Aleo-Regular Italic.ufo
<glyph name="ampersand" format="1">
  <advance width="656"/>
  <unicode hex="0026"/>
  <note>
    ampersand
  </note>
  <outline>
    <contour>
      <point x="334" y="724"/>
      <point x="307" y="720"/>
      <point x="282" y="711" type="curve" smooth="yes"/>
      <point x="257" y="702"/>
      <point x="236" y="689"/>
      <point x="217" y="673" type="curve" smooth="yes"/>
      <point x="198" y="657"/>
      <point x="183" y="638"/>
      <point x="172" y="617" type="curve" smooth="yes"/>
      <point x="161" y="596"/>
      <point x="153" y="573"/>
      <point x="150" y="549" type="curve" smooth="yes"/>
      <point x="147" y="523"/>
      <point x="148" y="497"/>
      <point x="155" y="473" type="curve" smooth="yes"/>
      <point x="162" y="449"/>
      <point x="174" y="424"/>
      <point x="191" y="398" type="curve"/>
      <point x="167" y="388"/>
      <point x="145" y="376"/>
      <point x="124" y="362" type="curve" smooth="yes"/>
      <point x="103" y="348"/>
      <point x="85" y="333"/>
      <point x="69" y="315" type="curve" smooth="yes"/>
      <point x="53" y="297"/>
      <point x="40" y="278"/>
      <point x="30" y="257" type="curve" smooth="yes"/>
      <point x="20" y="236"/>
      <point x="13" y="214"/>
      <point x="10" y="191" type="curve" smooth="yes"/>
      <point x="6" y="160"/>
      <point x="9" y="132"/>
      <point x="18" y="107" type="curve" smooth="yes"/>
      <point x="27" y="82"/>
      <point x="41" y="62"/>
      <point x="59" y="45" type="curve" smooth="yes"/>
      <point x="77" y="28"/>
      <point x="98" y="14"/>
      <point x="123" y="5" type="curve" smooth="yes"/>
      <point x="148" y="-4"/>
      <point x="173" y="-8"/>
      <point x="200" y="-8" type="curve" smooth="yes"/>
      <point x="249" y="-8"/>
      <point x="295" y="0"/>
      <point x="338" y="18" type="curve" smooth="yes"/>
      <point x="381" y="36"/>
      <point x="420" y="60"/>
      <point x="455" y="90" type="curve"/>
      <point x="518" y="18" type="line" smooth="yes"/>
      <point x="524" y="11"/>
      <point x="530" y="5"/>
      <point x="536" y="3" type="curve" smooth="yes"/>
      <point x="542" y="1"/>
      <point x="549" y="0"/>
      <point x="559" y="0" type="curve" smooth="yes"/>
      <point x="645" y="0" type="line"/>
      <point x="514" y="152" type="line"/>
      <point x="540" y="184"/>
      <point x="561" y="219"/>
      <point x="577" y="256" type="curve" smooth="yes"/>
      <point x="593" y="293"/>
      <point x="605" y="331"/>
      <point x="610" y="369" type="curve"/>
      <point x="555" y="369" type="line" smooth="yes"/>
      <point x="549" y="369"/>
      <point x="544" y="367"/>
      <point x="540" y="363" type="curve" smooth="yes"/>
      <point x="536" y="359"/>
      <point x="533" y="354"/>
      <point x="532" y="348" type="curve"/>
      <point x="526" y="323"/>
      <point x="519" y="299"/>
      <point x="508" y="275" type="curve" smooth="yes"/>
      <point x="497" y="251"/>
      <point x="484" y="226"/>
      <point x="469" y="204" type="curve"/>
      <point x="289" y="414" type="line" smooth="yes"/>
      <point x="278" y="427"/>
      <point x="268" y="438"/>
      <point x="260" y="450" type="curve" smooth="yes"/>
      <point x="252" y="462"/>
      <point x="247" y="473"/>
      <point x="243" y="484" type="curve" smooth="yes"/>
      <point x="239" y="495"/>
      <point x="236" y="505"/>
      <point x="234" y="516" type="curve" smooth="yes"/>
      <point x="232" y="527"/>
      <point x="233" y="537"/>
      <point x="234" y="549" type="curve"/>
      <point x="236" y="564"/>
      <point x="240" y="578"/>
      <point x="247" y="591" type="curve" smooth="yes"/>
      <point x="254" y="604"/>
      <point x="262" y="615"/>
      <point x="273" y="625" type="curve"/>
      <point x="284" y="634"/>
      <point x="296" y="642"/>
      <point x="310" y="647" type="curve" smooth="yes"/>
      <point x="324" y="652"/>
      <point x="339" y="655"/>
      <point x="356" y="655" type="curve" smooth="yes"/>
      <point x="371" y="655"/>
      <point x="384" y="652"/>
      <point x="395" y="647" type="curve" smooth="yes"/>
      <point x="406" y="642"/>
      <point x="415" y="636"/>
      <point x="422" y="628" type="curve" smooth="yes"/>
      <point x="429" y="620"/>
      <point x="435" y="612"/>
      <point x="439" y="603" type="curve" smooth="yes"/>
      <point x="443" y="594"/>
      <point x="446" y="585"/>
      <point x="447" y="576" type="curve"/>
      <point x="448" y="570"/>
      <point x="450" y="565"/>
      <point x="454" y="563" type="curve" smooth="yes"/>
      <point x="458" y="561"/>
      <point x="461" y="560"/>
      <point x="465" y="560" type="curve" smooth="yes"/>
      <point x="470" y="560" type="line"/>
      <point x="527" y="571" type="line"/>
      <point x="528" y="591"/>
      <point x="525" y="611"/>
      <point x="518" y="629" type="curve" smooth="yes"/>
      <point x="511" y="647"/>
      <point x="501" y="664"/>
      <point x="487" y="678" type="curve" smooth="yes"/>
      <point x="473" y="692"/>
      <point x="456" y="704"/>
      <point x="435" y="712" type="curve" smooth="yes"/>
      <point x="414" y="720"/>
      <point x="390" y="724"/>
      <point x="364" y="724" type="curve" smooth="yes"/>
    </contour>
    <contour>
      <point x="105" y="229"/>
      <point x="117" y="259"/>
      <point x="138" y="285" type="curve" smooth="yes"/>
      <point x="159" y="311"/>
      <point x="189" y="334"/>
      <point x="227" y="353" type="curve"/>
      <point x="412" y="139" type="line"/>
      <point x="387" y="116"/>
      <point x="358" y="99"/>
      <point x="327" y="85" type="curve" smooth="yes"/>
      <point x="296" y="71"/>
      <point x="261" y="64"/>
      <point x="224" y="64" type="curve" smooth="yes"/>
      <point x="207" y="64"/>
      <point x="190" y="67"/>
      <point x="174" y="73" type="curve" smooth="yes"/>
      <point x="158" y="79"/>
      <point x="144" y="88"/>
      <point x="132" y="99" type="curve" smooth="yes"/>
      <point x="120" y="110"/>
      <point x="112" y="125"/>
      <point x="106" y="141" type="curve" smooth="yes"/>
      <point x="100" y="157"/>
      <point x="98" y="176"/>
      <point x="101" y="198" type="curve" smooth="yes"/>
    </contour>
  </outline>
</glyph>
<glyph name="parenright" format="1">
  <advance width="261"/>
  <unicode hex="0029"/>
  <note>
    parenright
  </note>
  <outline>
    <contour>
      <point x="134" y="243"/>
      <point x="117" y="174"/>
      <point x="90" y="107" type="curve" smooth="yes"/>
      <point x="63" y="40"/>
      <point x="29" y="-25"/>
      <point x="-13" y="-86" type="curve"/>
      <point x="-15" y="-90"/>
      <point x="-17" y="-92"/>
      <point x="-18" y="-95" type="curve" smooth="yes"/>
      <point x="-19" y="-98"/>
      <point x="-20" y="-100"/>
      <point x="-20" y="-103" type="curve"/>
      <point x="-21" y="-108"/>
      <point x="-20" y="-111"/>
      <point x="-18" y="-114" type="curve" smooth="yes"/>
      <point x="-16" y="-117"/>
      <point x="-13" y="-120"/>
      <point x="-10" y="-122" type="curve" smooth="yes"/>
      <point x="26" y="-146" type="line"/>
      <point x="56" y="-108"/>
      <point x="82" y="-70"/>
      <point x="104" y="-32" type="curve" smooth="yes"/>
      <point x="126" y="6"/>
      <point x="145" y="43"/>
      <point x="161" y="81" type="curve" smooth="yes"/>
      <point x="176" y="119"/>
      <point x="188" y="158"/>
      <point x="198" y="196" type="curve" smooth="yes"/>
      <point x="208" y="234"/>
      <point x="215" y="274"/>
      <point x="220" y="315" type="curve" smooth="yes"/>
      <point x="225" y="355"/>
      <point x="228" y="394"/>
      <point x="228" y="433" type="curve" smooth="yes"/>
      <point x="228" y="472"/>
      <point x="224" y="510"/>
      <point x="218" y="548" type="curve" smooth="yes"/>
      <point x="212" y="586"/>
      <point x="202" y="623"/>
      <point x="189" y="661" type="curve" smooth="yes"/>
      <point x="176" y="699"/>
      <point x="160" y="737"/>
      <point x="140" y="776" type="curve"/>
      <point x="97" y="751" type="line"/>
      <point x="93" y="749"/>
      <point x="90" y="746"/>
      <point x="87" y="743" type="curve" smooth="yes"/>
      <point x="84" y="740"/>
      <point x="83" y="737"/>
      <point x="82" y="732" type="curve" smooth="yes"/>
      <point x="81" y="727"/>
      <point x="82" y="720"/>
      <point x="85" y="714" type="curve" smooth="yes"/>
      <point x="113" y="653"/>
      <point x="131" y="589"/>
      <point x="141" y="522" type="curve" smooth="yes"/>
      <point x="151" y="455"/>
      <point x="152" y="385"/>
      <point x="143" y="314" type="curve" smooth="yes"/>
    </contour>
  </outline>
</glyph>
<glyph name="asterisk" format="1">
  <advance width="371"/>
  <unicode hex="002A"/>
  <note>
    asterisk
  </note>
  <outline>
    <contour>
      <point x="153" y="432" type="line"/>
      <point x="197" y="432" type="line"/>
      <point x="209" y="530" type="line" smooth="yes"/>
      <point x="211" y="543"/>
      <point x="209" y="555"/>
      <point x="205" y="566" type="curve"/>
      <point x="208" y="561"/>
      <point x="212" y="557"/>
      <point x="216" y="553" type="curve" smooth="yes"/>
      <point x="220" y="549"/>
      <point x="225" y="546"/>
      <point x="231" y="542" type="curve" smooth="yes"/>
      <point x="311" y="492" type="line"/>
      <point x="338" y="530" type="line"/>
      <point x="258" y="580" type="line"/>
      <point x="253" y="584"/>
      <point x="247" y="586"/>
      <point x="242" y="588" type="curve" smooth="yes"/>
      <point x="237" y="590"/>
      <point x="231" y="591"/>
      <point x="225" y="592" type="curve"/>
      <point x="231" y="593"/>
      <point x="237" y="594"/>
      <point x="243" y="596" type="curve" smooth="yes"/>
      <point x="249" y="598"/>
      <point x="255" y="600"/>
      <point x="261" y="604" type="curve"/>
      <point x="353" y="654" type="line"/>
      <point x="335" y="692" type="line"/>
      <point x="243" y="642" type="line"/>
      <point x="237" y="638"/>
      <point x="232" y="636"/>
      <point x="227" y="632" type="curve" smooth="yes"/>
      <point x="222" y="628"/>
      <point x="217" y="623"/>
      <point x="213" y="618" type="curve"/>
      <point x="219" y="628"/>
      <point x="222" y="640"/>
      <point x="224" y="654" type="curve" smooth="yes"/>
      <point x="236" y="753" type="line"/>
      <point x="192" y="753" type="line"/>
      <point x="180" y="654" type="line" smooth="yes"/>
      <point x="179" y="647"/>
      <point x="180" y="641"/>
      <point x="180" y="635" type="curve" smooth="yes"/>
      <point x="180" y="629"/>
      <point x="182" y="622"/>
      <point x="184" y="616" type="curve"/>
      <point x="178" y="627"/>
      <point x="169" y="635"/>
      <point x="158" y="642" type="curve" smooth="yes"/>
      <point x="78" y="692" type="line"/>
      <point x="51" y="655" type="line"/>
      <point x="132" y="604" type="line" smooth="yes"/>
      <point x="138" y="600"/>
      <point x="142" y="598"/>
      <point x="148" y="596" type="curve" smooth="yes"/>
      <point x="154" y="594"/>
      <point x="160" y="593"/>
      <point x="167" y="592" type="curve"/>
      <point x="155" y="591"/>
      <point x="142" y="587"/>
      <point x="129" y="580" type="curve" smooth="yes"/>
      <point x="36" y="530" type="line"/>
      <point x="54" y="492" type="line"/>
      <point x="146" y="542" type="line" smooth="yes"/>
      <point x="158" y="549"/>
      <point x="167" y="556"/>
      <point x="175" y="564" type="curve"/>
      <point x="172" y="559"/>
      <point x="170" y="554"/>
      <point x="168" y="548" type="curve" smooth="yes"/>
      <point x="166" y="542"/>
      <point x="166" y="536"/>
      <point x="165" y="530" type="curve"/>
    </contour>
  </outline>
</glyph>
<glyph name="one" format="1">
  <advance width="419"/>
  <unicode hex="0031"/>
  <note>
    one
  </note>
  <outline>
    <contour>
      <point x="372" y="59"/>
      <point x="330" y="62"/>
      <point x="252" y="68" type="curve"/>
      <point x="332" y="718" type="line"/>
      <point x="260" y="718" type="line"/>
      <point x="24" y="534" type="line"/>
      <point x="47" y="495" type="line" smooth="yes"/>
      <point x="51" y="488"/>
      <point x="59" y="484"/>
      <point x="70" y="484" type="curve" smooth="yes"/>
      <point x="76" y="484"/>
      <point x="82" y="487"/>
      <point x="89" y="492" type="curve"/>
      <point x="230" y="601" type="line"/>
      <point x="227" y="586"/>
      <point x="225" y="571"/>
      <point x="223" y="556" type="curve" smooth="yes"/>
      <point x="163" y="68" type="line"/>
      <point x="22" y="58" type="line"/>
      <point x="12" y="56"/>
      <point x="7" y="50"/>
      <point x="6" y="40" type="curve" smooth="yes"/>
      <point x="5" y="30" type="line"/>
      <point x="1" y="0" type="line"/>
      <point x="385" y="0" type="line"/>
      <point x="390" y="40" type="line" smooth="yes"/>
      <point x="391" y="50"/>
      <point x="387" y="56"/>
      <point x="378" y="58" type="curve"/>
    </contour>
  </outline>
</glyph>
<glyph name="two" format="1">
  <advance width="546"/>
  <unicode hex="0032"/>
  <note>
    two
  </note>
  <outline>
    <contour>
      <point x="340" y="265" type="line" smooth="yes"/>
      <point x="401" y="320"/>
      <point x="463" y="375"/>
      <point x="499" y="451" type="curve" smooth="yes"/>
      <point x="519" y="492"/>
      <point x="531" y="558"/>
      <point x="514" y="609" type="curve" smooth="yes"/>
      <point x="491" y="682"/>
      <point x="426" y="724"/>
      <point x="330" y="724" type="curve" smooth="yes"/>
      <point x="299" y="724"/>
      <point x="271" y="720"/>
      <point x="243" y="711" type="curve" smooth="yes"/>
      <point x="155" y="683"/>
      <point x="96" y="615"/>
      <point x="71" y="522" type="curve"/>
      <point x="117" y="514" type="line"/>
      <point x="121" y="513"/>
      <point x="124" y="513"/>
      <point x="128" y="513" type="curve" smooth="yes"/>
      <point x="148" y="513"/>
      <point x="157" y="525"/>
      <point x="164" y="541" type="curve"/>
      <point x="169" y="557"/>
      <point x="177" y="571"/>
      <point x="187" y="584" type="curve" smooth="yes"/>
      <point x="213" y="619"/>
      <point x="256" y="648"/>
      <point x="316" y="648" type="curve" smooth="yes"/>
      <point x="374" y="648"/>
      <point x="412" y="623"/>
      <point x="426" y="578" type="curve" smooth="yes"/>
      <point x="437" y="540"/>
      <point x="426" y="493"/>
      <point x="413" y="463" type="curve" smooth="yes"/>
      <point x="383" y="395"/>
      <point x="329" y="348"/>
      <point x="275" y="299" type="curve" smooth="yes"/>
      <point x="17" y="68" type="line"/>
      <point x="6" y="59"/>
      <point x="-2" y="47"/>
      <point x="-4" y="31" type="curve" smooth="yes"/>
      <point x="-8" y="0" type="line"/>
      <point x="470" y="0" type="line"/>
      <point x="477" y="62" type="line" smooth="yes"/>
      <point x="481" y="95"/>
      <point x="485" y="126"/>
      <point x="489" y="159" type="curve"/>
      <point x="441" y="159" type="line" smooth="yes"/>
      <point x="431" y="159"/>
      <point x="421" y="152"/>
      <point x="418" y="142" type="curve"/>
      <point x="417" y="138"/>
      <point x="412" y="112"/>
      <point x="406" y="84" type="curve"/>
      <point x="209" y="84" type="line" smooth="yes"/>
      <point x="180" y="84"/>
      <point x="152" y="79"/>
      <point x="128" y="73" type="curve"/>
    </contour>
  </outline>
</glyph>
<glyph name="four" format="1">
  <advance width="553"/>
  <unicode hex="0034"/>
  <note>
    four
  </note>
  <outline>
    <contour>
      <point x="435" y="258" type="line"/>
      <point x="491" y="716" type="line"/>
      <point x="408" y="716" type="line"/>
      <point x="3" y="254" type="line"/>
      <point x="6" y="208" type="line"/>
      <point x="7" y="202"/>
      <point x="10" y="198"/>
      <point x="14" y="194" type="curve" smooth="yes"/>
      <point x="18" y="190"/>
      <point x="23" y="188"/>
      <point x="30" y="188" type="curve" smooth="yes"/>
      <point x="348" y="188" type="line"/>
      <point x="325" y="0" type="line"/>
      <point x="403" y="0" type="line"/>
      <point x="426" y="188" type="line"/>
      <point x="515" y="188" type="line" smooth="yes"/>
      <point x="522" y="188"/>
      <point x="527" y="190"/>
      <point x="531" y="194" type="curve" smooth="yes"/>
      <point x="535" y="198"/>
      <point x="536" y="203"/>
      <point x="537" y="208" type="curve"/>
      <point x="544" y="258" type="line"/>
    </contour>
    <contour>
      <point x="357" y="258" type="line"/>
      <point x="100" y="258" type="line"/>
      <point x="404" y="613" type="line"/>
      <point x="401" y="602"/>
      <point x="399" y="592"/>
      <point x="397" y="582" type="curve" smooth="yes"/>
      <point x="395" y="572"/>
      <point x="394" y="563"/>
      <point x="393" y="554" type="curve" smooth="yes"/>
    </contour>
  </outline>
</glyph>
<glyph name="five" format="1">
  <advance width="522"/>
  <unicode hex="0035"/>
  <note>
    five
  </note>
  <outline>
    <contour>
      <point x="507" y="716" type="line"/>
      <point x="167" y="716" type="line"/>
      <point x="68" y="382" type="line"/>
      <point x="122" y="365" type="line"/>
      <point x="143" y="372"/>
      <point x="164" y="377"/>
      <point x="184" y="380" type="curve" smooth="yes"/>
      <point x="204" y="383"/>
      <point x="222" y="384"/>
      <point x="240" y="384" type="curve" smooth="yes"/>
      <point x="266" y="384"/>
      <point x="289" y="381"/>
      <point x="308" y="374" type="curve" smooth="yes"/>
      <point x="327" y="367"/>
      <point x="342" y="357"/>
      <point x="354" y="344" type="curve" smooth="yes"/>
      <point x="366" y="331"/>
      <point x="374" y="316"/>
      <point x="378" y="298" type="curve" smooth="yes"/>
      <point x="382" y="280"/>
      <point x="383" y="260"/>
      <point x="380" y="238" type="curve" smooth="yes"/>
      <point x="377" y="212"/>
      <point x="370" y="189"/>
      <point x="360" y="168" type="curve" smooth="yes"/>
      <point x="350" y="147"/>
      <point x="337" y="130"/>
      <point x="321" y="115" type="curve" smooth="yes"/>
      <point x="305" y="100"/>
      <point x="286" y="88"/>
      <point x="265" y="80" type="curve" smooth="yes"/>
      <point x="244" y="72"/>
      <point x="221" y="68"/>
      <point x="196" y="68" type="curve" smooth="yes"/>
      <point x="174" y="68"/>
      <point x="155" y="71"/>
      <point x="139" y="76" type="curve" smooth="yes"/>
      <point x="123" y="81"/>
      <point x="110" y="88"/>
      <point x="99" y="94" type="curve" smooth="yes"/>
      <point x="88" y="100"/>
      <point x="79" y="106"/>
      <point x="71" y="111" type="curve" smooth="yes"/>
      <point x="63" y="116"/>
      <point x="55" y="119"/>
      <point x="49" y="119" type="curve" smooth="yes"/>
      <point x="39" y="119"/>
      <point x="31" y="115"/>
      <point x="24" y="106" type="curve"/>
      <point x="-8" y="68" type="line"/>
      <point x="2" y="58"/>
      <point x="13" y="48"/>
      <point x="26" y="39" type="curve" smooth="yes"/>
      <point x="39" y="30"/>
      <point x="54" y="22"/>
      <point x="70" y="15" type="curve" smooth="yes"/>
      <point x="86" y="8"/>
      <point x="103" y="2"/>
      <point x="122" y="-2" type="curve" smooth="yes"/>
      <point x="141" y="-6"/>
      <point x="161" y="-8"/>
      <point x="182" y="-8" type="curve" smooth="yes"/>
      <point x="218" y="-8"/>
      <point x="252" y="-2"/>
      <point x="285" y="10" type="curve" smooth="yes"/>
      <point x="318" y="22"/>
      <point x="347" y="38"/>
      <point x="373" y="60" type="curve" smooth="yes"/>
      <point x="399" y="82"/>
      <point x="421" y="108"/>
      <point x="438" y="139" type="curve" smooth="yes"/>
      <point x="455" y="170"/>
      <point x="465" y="204"/>
      <point x="470" y="242" type="curve" smooth="yes"/>
      <point x="474" y="273"/>
      <point x="473" y="302"/>
      <point x="466" y="328" type="curve" smooth="yes"/>
      <point x="459" y="354"/>
      <point x="448" y="377"/>
      <point x="431" y="396" type="curve" smooth="yes"/>
      <point x="414" y="415"/>
      <point x="392" y="431"/>
      <point x="365" y="442" type="curve" smooth="yes"/>
      <point x="338" y="453"/>
      <point x="305" y="458"/>
      <point x="268" y="458" type="curve" smooth="yes"/>
      <point x="236" y="458"/>
      <point x="201" y="454"/>
      <point x="163" y="446" type="curve"/>
      <point x="219" y="634" type="line"/>
      <point x="444" y="634" type="line" smooth="yes"/>
      <point x="463" y="634"/>
      <point x="477" y="638"/>
      <point x="486" y="646" type="curve" smooth="yes"/>
      <point x="495" y="654"/>
      <point x="500" y="665"/>
      <point x="502" y="678" type="curve" smooth="yes"/>
    </contour>
  </outline>
</glyph>
<glyph name="six" format="1">
  <advance width="523"/>
  <unicode hex="0036"/>
  <note>
    six
  </note>
  <outline>
    <contour>
      <point x="289" y="439"/>
      <point x="266" y="435"/>
      <point x="245" y="429" type="curve" smooth="yes"/>
      <point x="224" y="423"/>
      <point x="203" y="414"/>
      <point x="185" y="402" type="curve"/>
      <point x="472" y="716" type="line"/>
      <point x="393" y="716" type="line" smooth="yes"/>
      <point x="382" y="716"/>
      <point x="373" y="714"/>
      <point x="364" y="710" type="curve" smooth="yes"/>
      <point x="355" y="706"/>
      <point x="347" y="701"/>
      <point x="342" y="695" type="curve" smooth="yes"/>
      <point x="131" y="450" type="line" smooth="yes"/>
      <point x="96" y="409"/>
      <point x="68" y="371"/>
      <point x="50" y="336" type="curve" smooth="yes"/>
      <point x="32" y="301"/>
      <point x="21" y="267"/>
      <point x="17" y="236" type="curve" smooth="yes"/>
      <point x="12" y="199"/>
      <point x="14" y="165"/>
      <point x="21" y="135" type="curve" smooth="yes"/>
      <point x="28" y="105"/>
      <point x="42" y="79"/>
      <point x="60" y="58" type="curve" smooth="yes"/>
      <point x="78" y="37"/>
      <point x="100" y="21"/>
      <point x="128" y="9" type="curve" smooth="yes"/>
      <point x="156" y="-3"/>
      <point x="188" y="-8"/>
      <point x="224" y="-8" type="curve" smooth="yes"/>
      <point x="260" y="-8"/>
      <point x="294" y="-2"/>
      <point x="326" y="10" type="curve" smooth="yes"/>
      <point x="358" y="22"/>
      <point x="386" y="39"/>
      <point x="410" y="60" type="curve" smooth="yes"/>
      <point x="434" y="81"/>
      <point x="454" y="106"/>
      <point x="469" y="134" type="curve" smooth="yes"/>
      <point x="484" y="162"/>
      <point x="495" y="193"/>
      <point x="499" y="226" type="curve" smooth="yes"/>
      <point x="503" y="260"/>
      <point x="501" y="290"/>
      <point x="493" y="316" type="curve" smooth="yes"/>
      <point x="485" y="342"/>
      <point x="472" y="365"/>
      <point x="455" y="383" type="curve" smooth="yes"/>
      <point x="438" y="401"/>
      <point x="417" y="415"/>
      <point x="393" y="425" type="curve" smooth="yes"/>
      <point x="369" y="435"/>
      <point x="342" y="439"/>
      <point x="313" y="439" type="curve" smooth="yes"/>
    </contour>
    <contour>
      <point x="103" y="241"/>
      <point x="110" y="260"/>
      <point x="119" y="278" type="curve" smooth="yes"/>
      <point x="128" y="296"/>
      <point x="141" y="312"/>
      <point x="156" y="326" type="curve" smooth="yes"/>
      <point x="171" y="340"/>
      <point x="189" y="351"/>
      <point x="209" y="359" type="curve" smooth="yes"/>
      <point x="229" y="367"/>
      <point x="252" y="371"/>
      <point x="276" y="371" type="curve" smooth="yes"/>
      <point x="298" y="371"/>
      <point x="318" y="368"/>
      <point x="336" y="361" type="curve" smooth="yes"/>
      <point x="354" y="354"/>
      <point x="368" y="343"/>
      <point x="380" y="330" type="curve" smooth="yes"/>
      <point x="392" y="317"/>
      <point x="400" y="301"/>
      <point x="405" y="282" type="curve" smooth="yes"/>
      <point x="410" y="263"/>
      <point x="411" y="242"/>
      <point x="408" y="219" type="curve" smooth="yes"/>
      <point x="405" y="197"/>
      <point x="400" y="177"/>
      <point x="390" y="158" type="curve" smooth="yes"/>
      <point x="380" y="139"/>
      <point x="368" y="124"/>
      <point x="352" y="110" type="curve" smooth="yes"/>
      <point x="336" y="96"/>
      <point x="318" y="86"/>
      <point x="298" y="78" type="curve" smooth="yes"/>
      <point x="278" y="70"/>
      <point x="256" y="66"/>
      <point x="232" y="66" type="curve" smooth="yes"/>
      <point x="208" y="66"/>
      <point x="188" y="69"/>
      <point x="170" y="77" type="curve" smooth="yes"/>
      <point x="152" y="85"/>
      <point x="138" y="95"/>
      <point x="127" y="109" type="curve" smooth="yes"/>
      <point x="116" y="123"/>
      <point x="107" y="139"/>
      <point x="103" y="158" type="curve" smooth="yes"/>
      <point x="99" y="177"/>
      <point x="98" y="198"/>
      <point x="101" y="221" type="curve" smooth="yes"/>
    </contour>
  </outline>
</glyph>
<glyph name="semicolon" format="1">
  <advance width="242"/>
  <unicode hex="003B"/>
  <note>
    semicolon
  </note>
  <outline>
    <contour>
      <point x="38" y="53"/>
      <point x="38" y="45"/>
      <point x="40" y="37" type="curve" smooth="yes"/>
      <point x="42" y="29"/>
      <point x="46" y="23"/>
      <point x="50" y="17" type="curve" smooth="yes"/>
      <point x="54" y="11"/>
      <point x="59" y="7"/>
      <point x="66" y="4" type="curve" smooth="yes"/>
      <point x="73" y="1"/>
      <point x="80" y="0"/>
      <point x="89" y="0" type="curve" smooth="yes"/>
      <point x="96" y="0" type="line"/>
      <point x="93" y="-11"/>
      <point x="88" y="-21"/>
      <point x="82" y="-31" type="curve" smooth="yes"/>
      <point x="76" y="-41"/>
      <point x="70" y="-50"/>
      <point x="64" y="-58" type="curve" smooth="yes"/>
      <point x="58" y="-66"/>
      <point x="52" y="-73"/>
      <point x="46" y="-79" type="curve" smooth="yes"/>
      <point x="31" y="-94" type="line" smooth="yes"/>
      <point x="26" y="-99"/>
      <point x="24" y="-103"/>
      <point x="23" y="-107" type="curve"/>
      <point x="22" y="-112"/>
      <point x="23" y="-117"/>
      <point x="27" y="-121" type="curve" smooth="yes"/>
      <point x="41" y="-136" type="line"/>
      <point x="58" y="-123"/>
      <point x="72" y="-109"/>
      <point x="86" y="-94" type="curve" smooth="yes"/>
      <point x="100" y="-79"/>
      <point x="111" y="-64"/>
      <point x="121" y="-48" type="curve" smooth="yes"/>
      <point x="131" y="-32"/>
      <point x="140" y="-16"/>
      <point x="146" y="0" type="curve" smooth="yes"/>
      <point x="152" y="16"/>
      <point x="156" y="32"/>
      <point x="158" y="47" type="curve" smooth="yes"/>
      <point x="159" y="57"/>
      <point x="159" y="67"/>
      <point x="157" y="75" type="curve" smooth="yes"/>
      <point x="155" y="83"/>
      <point x="152" y="91"/>
      <point x="148" y="97" type="curve" smooth="yes"/>
      <point x="144" y="103"/>
      <point x="138" y="109"/>
      <point x="131" y="113" type="curve" smooth="yes"/>
      <point x="124" y="117"/>
      <point x="115" y="118"/>
      <point x="105" y="118" type="curve" smooth="yes"/>
      <point x="96" y="118"/>
      <point x="88" y="117"/>
      <point x="80" y="114" type="curve" smooth="yes"/>
      <point x="72" y="111"/>
      <point x="66" y="106"/>
      <point x="60" y="101" type="curve" smooth="yes"/>
      <point x="54" y="96"/>
      <point x="50" y="90"/>
      <point x="46" y="83" type="curve" smooth="yes"/>
      <point x="42" y="76"/>
      <point x="40" y="70"/>
      <point x="39" y="62" type="curve" smooth="yes"/>
    </contour>
    <contour>
      <point x="80" y="421"/>
      <point x="81" y="413"/>
      <point x="83" y="405" type="curve" smooth="yes"/>
      <point x="85" y="397"/>
      <point x="88" y="392"/>
      <point x="93" y="386" type="curve" smooth="yes"/>
      <point x="98" y="380"/>
      <point x="104" y="375"/>
      <point x="111" y="372" type="curve" smooth="yes"/>
      <point x="118" y="369"/>
      <point x="126" y="368"/>
      <point x="135" y="368" type="curve" smooth="yes"/>
      <point x="144" y="368"/>
      <point x="152" y="369"/>
      <point x="160" y="372" type="curve" smooth="yes"/>
      <point x="168" y="375"/>
      <point x="176" y="380"/>
      <point x="182" y="386" type="curve" smooth="yes"/>
      <point x="188" y="392"/>
      <point x="194" y="397"/>
      <point x="198" y="405" type="curve" smooth="yes"/>
      <point x="202" y="413"/>
      <point x="205" y="421"/>
      <point x="206" y="430" type="curve" smooth="yes"/>
      <point x="207" y="439"/>
      <point x="206" y="447"/>
      <point x="204" y="455" type="curve" smooth="yes"/>
      <point x="202" y="463"/>
      <point x="198" y="469"/>
      <point x="193" y="475" type="curve" smooth="yes"/>
      <point x="188" y="481"/>
      <point x="182" y="485"/>
      <point x="175" y="488" type="curve" smooth="yes"/>
      <point x="168" y="491"/>
      <point x="160" y="493"/>
      <point x="151" y="493" type="curve" smooth="yes"/>
      <point x="142" y="493"/>
      <point x="134" y="491"/>
      <point x="126" y="488" type="curve" smooth="yes"/>
      <point x="118" y="485"/>
      <point x="110" y="481"/>
      <point x="104" y="475" type="curve" smooth="yes"/>
      <point x="98" y="469"/>
      <point x="93" y="463"/>
      <point x="89" y="455" type="curve" smooth="yes"/>
      <point x="85" y="447"/>
      <point x="82" y="439"/>
      <point x="81" y="430" type="curve" smooth="yes"/>
    </contour>
  </outline>
</glyph>
<glyph name="less" format="1">
  <advance width="458"/>
  <unicode hex="003C"/>
  <note>
    less
  </note>
  <outline>
    <contour>
      <point x="26" y="355" type="line"/>
      <point x="22" y="318" type="line"/>
      <point x="384" y="117" type="line"/>
      <point x="392" y="181" type="line"/>
      <point x="393" y="186"/>
      <point x="391" y="192"/>
      <point x="389" y="196" type="curve" smooth="yes"/>
      <point x="387" y="200"/>
      <point x="383" y="204"/>
      <point x="377" y="207" type="curve" smooth="yes"/>
      <point x="166" y="320" type="line" smooth="yes"/>
      <point x="160" y="323"/>
      <point x="153" y="327"/>
      <point x="146" y="330" type="curve" smooth="yes"/>
      <point x="139" y="333"/>
      <point x="131" y="334"/>
      <point x="123" y="336" type="curve"/>
      <point x="132" y="338"/>
      <point x="140" y="341"/>
      <point x="148" y="343" type="curve" smooth="yes"/>
      <point x="156" y="345"/>
      <point x="163" y="348"/>
      <point x="170" y="352" type="curve"/>
      <point x="409" y="466" type="line"/>
      <point x="416" y="469"/>
      <point x="421" y="473"/>
      <point x="424" y="477" type="curve" smooth="yes"/>
      <point x="427" y="481"/>
      <point x="429" y="486"/>
      <point x="430" y="492" type="curve"/>
      <point x="438" y="556" type="line"/>
    </contour>
  </outline>
</glyph>
<glyph name="equal" format="1">
  <advance width="554"/>
  <unicode hex="003D"/>
  <note>
    equal
  </note>
  <outline>
    <contour>
      <point x="57" y="287" type="line"/>
      <point x="49" y="220" type="line"/>
      <point x="478" y="220" type="line"/>
      <point x="487" y="287" type="line"/>
    </contour>
    <contour>
      <point x="78" y="454" type="line"/>
      <point x="70" y="387" type="line"/>
      <point x="499" y="387" type="line"/>
      <point x="507" y="454" type="line"/>
    </contour>
  </outline>
</glyph>
<glyph name="question" format="1">
  <advance width="388"/>
  <unicode hex="003F"/>
  <note>
    question
  </note>
  <outline>
    <contour>
      <point x="43" y="615" type="line" smooth="yes"/>
      <point x="47" y="607"/>
      <point x="53" y="604"/>
      <point x="61" y="604" type="curve" smooth="yes"/>
      <point x="65" y="604"/>
      <point x="71" y="606"/>
      <point x="78" y="611" type="curve" smooth="yes"/>
      <point x="85" y="616"/>
      <point x="93" y="622"/>
      <point x="104" y="628" type="curve" smooth="yes"/>
      <point x="115" y="634"/>
      <point x="128" y="639"/>
      <point x="143" y="644" type="curve" smooth="yes"/>
      <point x="158" y="649"/>
      <point x="176" y="652"/>
      <point x="196" y="652" type="curve" smooth="yes"/>
      <point x="211" y="652"/>
      <point x="224" y="649"/>
      <point x="237" y="645" type="curve" smooth="yes"/>
      <point x="250" y="641"/>
      <point x="260" y="634"/>
      <point x="269" y="626" type="curve" smooth="yes"/>
      <point x="278" y="618"/>
      <point x="285" y="608"/>
      <point x="289" y="596" type="curve" smooth="yes"/>
      <point x="293" y="584"/>
      <point x="294" y="572"/>
      <point x="292" y="558" type="curve"/>
      <point x="290" y="538"/>
      <point x="284" y="521"/>
      <point x="275" y="506" type="curve" smooth="yes"/>
      <point x="266" y="491"/>
      <point x="254" y="478"/>
      <point x="241" y="466" type="curve" smooth="yes"/>
      <point x="228" y="454"/>
      <point x="215" y="445"/>
      <point x="201" y="435" type="curve" smooth="yes"/>
      <point x="187" y="425"/>
      <point x="173" y="416"/>
      <point x="160" y="406" type="curve"/>
      <point x="147" y="397"/>
      <point x="137" y="387"/>
      <point x="128" y="376" type="curve" smooth="yes"/>
      <point x="119" y="365"/>
      <point x="114" y="353"/>
      <point x="112" y="339" type="curve" smooth="yes"/>
      <point x="111" y="333" type="line"/>
      <point x="107" y="250" type="line"/>
      <point x="168" y="250" type="line"/>
      <point x="186" y="327" type="line"/>
      <point x="189" y="338"/>
      <point x="195" y="348"/>
      <point x="205" y="357" type="curve" smooth="yes"/>
      <point x="215" y="366"/>
      <point x="226" y="375"/>
      <point x="239" y="384" type="curve" smooth="yes"/>
      <point x="252" y="393"/>
      <point x="265" y="402"/>
      <point x="280" y="412" type="curve" smooth="yes"/>
      <point x="295" y="422"/>
      <point x="310" y="434"/>
      <point x="323" y="448" type="curve" smooth="yes"/>
      <point x="336" y="462"/>
      <point x="347" y="479"/>
      <point x="357" y="497" type="curve" smooth="yes"/>
      <point x="367" y="515"/>
      <point x="373" y="537"/>
      <point x="376" y="562" type="curve" smooth="yes"/>
      <point x="379" y="587"/>
      <point x="378" y="610"/>
      <point x="371" y="630" type="curve" smooth="yes"/>
      <point x="364" y="650"/>
      <point x="353" y="667"/>
      <point x="338" y="681" type="curve" smooth="yes"/>
      <point x="323" y="695"/>
      <point x="306" y="705"/>
      <point x="284" y="713" type="curve" smooth="yes"/>
      <point x="262" y="721"/>
      <point x="238" y="725"/>
      <point x="212" y="725" type="curve" smooth="yes"/>
      <point x="192" y="725"/>
      <point x="174" y="723"/>
      <point x="156" y="719" type="curve" smooth="yes"/>
      <point x="138" y="715"/>
      <point x="122" y="710"/>
      <point x="106" y="703" type="curve" smooth="yes"/>
      <point x="90" y="696"/>
      <point x="76" y="689"/>
      <point x="62" y="680" type="curve" smooth="yes"/>
      <point x="48" y="671"/>
      <point x="36" y="662"/>
      <point x="24" y="652" type="curve"/>
    </contour>
    <contour>
      <point x="48" y="46"/>
      <point x="49" y="38"/>
      <point x="51" y="30" type="curve" smooth="yes"/>
      <point x="53" y="22"/>
      <point x="56" y="17"/>
      <point x="61" y="11" type="curve" smooth="yes"/>
      <point x="66" y="5"/>
      <point x="73" y="0"/>
      <point x="80" y="-3" type="curve" smooth="yes"/>
      <point x="87" y="-6"/>
      <point x="94" y="-7"/>
      <point x="103" y="-7" type="curve" smooth="yes"/>
      <point x="112" y="-7"/>
      <point x="121" y="-6"/>
      <point x="129" y="-3" type="curve" smooth="yes"/>
      <point x="137" y="0"/>
      <point x="144" y="5"/>
      <point x="150" y="11" type="curve" smooth="yes"/>
      <point x="156" y="17"/>
      <point x="162" y="22"/>
      <point x="166" y="30" type="curve" smooth="yes"/>
      <point x="170" y="38"/>
      <point x="173" y="46"/>
      <point x="174" y="55" type="curve" smooth="yes"/>
      <point x="175" y="64"/>
      <point x="174" y="72"/>
      <point x="172" y="80" type="curve" smooth="yes"/>
      <point x="170" y="88"/>
      <point x="166" y="94"/>
      <point x="161" y="100" type="curve" smooth="yes"/>
      <point x="156" y="106"/>
      <point x="150" y="110"/>
      <point x="143" y="113" type="curve" smooth="yes"/>
      <point x="136" y="116"/>
      <point x="128" y="118"/>
      <point x="119" y="118" type="curve" smooth="yes"/>
      <point x="110" y="118"/>
      <point x="102" y="116"/>
      <point x="94" y="113" type="curve" smooth="yes"/>
      <point x="86" y="110"/>
      <point x="78" y="106"/>
      <point x="72" y="100" type="curve" smooth="yes"/>
      <point x="66" y="94"/>
      <point x="61" y="88"/>
      <point x="57" y="80" type="curve" smooth="yes"/>
      <point x="53" y="72"/>
      <point x="50" y="64"/>
      <point x="49" y="55" type="curve" smooth="yes"/>
    </contour>
  </outline>
</glyph>
<glyph name="at" format="1">
  <advance width="799"/>
  <unicode hex="0040"/>
  <note>
    at
  </note>
  <outline>
    <contour>
      <point x="569" y="93"/>
      <point x="596" y="99"/>
      <point x="622" y="112" type="curve" smooth="yes"/>
      <point x="648" y="125"/>
      <point x="670" y="142"/>
      <point x="691" y="164" type="curve" smooth="yes"/>
      <point x="712" y="186"/>
      <point x="729" y="214"/>
      <point x="743" y="244" type="curve" smooth="yes"/>
      <point x="757" y="274"/>
      <point x="766" y="308"/>
      <point x="770" y="344" type="curve" smooth="yes"/>
      <point x="774" y="380"/>
      <point x="774" y="413"/>
      <point x="769" y="443" type="curve" smooth="yes"/>
      <point x="764" y="473"/>
      <point x="755" y="501"/>
      <point x="742" y="526" type="curve" smooth="yes"/>
      <point x="729" y="551"/>
      <point x="714" y="573"/>
      <point x="694" y="592" type="curve" smooth="yes"/>
      <point x="674" y="611"/>
      <point x="652" y="627"/>
      <point x="627" y="640" type="curve" smooth="yes"/>
      <point x="602" y="653"/>
      <point x="577" y="663"/>
      <point x="548" y="670" type="curve" smooth="yes"/>
      <point x="519" y="677"/>
      <point x="490" y="680"/>
      <point x="459" y="680" type="curve" smooth="yes"/>
      <point x="423" y="680"/>
      <point x="388" y="675"/>
      <point x="354" y="665" type="curve" smooth="yes"/>
      <point x="320" y="656"/>
      <point x="287" y="642"/>
      <point x="256" y="625" type="curve" smooth="yes"/>
      <point x="225" y="608"/>
      <point x="197" y="587"/>
      <point x="171" y="563" type="curve" smooth="yes"/>
      <point x="145" y="539"/>
      <point x="121" y="512"/>
      <point x="101" y="483" type="curve" smooth="yes"/>
      <point x="81" y="454"/>
      <point x="64" y="423"/>
      <point x="51" y="389" type="curve" smooth="yes"/>
      <point x="38" y="355"/>
      <point x="28" y="320"/>
      <point x="24" y="284" type="curve" smooth="yes"/>
      <point x="16" y="221"/>
      <point x="19" y="164"/>
      <point x="34" y="114" type="curve" smooth="yes"/>
      <point x="49" y="64"/>
      <point x="73" y="21"/>
      <point x="105" y="-13" type="curve" smooth="yes"/>
      <point x="137" y="-47"/>
      <point x="177" y="-74"/>
      <point x="224" y="-92" type="curve" smooth="yes"/>
      <point x="271" y="-110"/>
      <point x="324" y="-119"/>
      <point x="382" y="-119" type="curve" smooth="yes"/>
      <point x="440" y="-119"/>
      <point x="492" y="-113"/>
      <point x="539" y="-99" type="curve" smooth="yes"/>
      <point x="586" y="-85"/>
      <point x="629" y="-66"/>
      <point x="668" y="-42" type="curve"/>
      <point x="659" y="-9" type="line" smooth="yes"/>
      <point x="657" y="-1"/>
      <point x="652" y="3"/>
      <point x="645" y="3" type="curve" smooth="yes"/>
      <point x="641" y="3"/>
      <point x="636" y="1"/>
      <point x="631" y="-2" type="curve" smooth="yes"/>
      <point x="601" y="-19"/>
      <point x="566" y="-33"/>
      <point x="526" y="-44" type="curve" smooth="yes"/>
      <point x="486" y="-55"/>
      <point x="440" y="-60"/>
      <point x="389" y="-60" type="curve" smooth="yes"/>
      <point x="341" y="-60"/>
      <point x="298" y="-53"/>
      <point x="258" y="-38" type="curve" smooth="yes"/>
      <point x="218" y="-23"/>
      <point x="185" y="-2"/>
      <point x="158" y="27" type="curve" smooth="yes"/>
      <point x="131" y="56"/>
      <point x="111" y="92"/>
      <point x="98" y="135" type="curve" smooth="yes"/>
      <point x="85" y="178"/>
      <point x="83" y="227"/>
      <point x="90" y="284" type="curve" smooth="yes"/>
      <point x="96" y="332"/>
      <point x="109" y="377"/>
      <point x="131" y="418" type="curve" smooth="yes"/>
      <point x="153" y="459"/>
      <point x="180" y="495"/>
      <point x="213" y="525" type="curve" smooth="yes"/>
      <point x="246" y="555"/>
      <point x="282" y="578"/>
      <point x="323" y="595" type="curve" smooth="yes"/>
      <point x="364" y="612"/>
      <point x="407" y="621"/>
      <point x="452" y="621" type="curve" smooth="yes"/>
      <point x="493" y="621"/>
      <point x="529" y="615"/>
      <point x="563" y="603" type="curve" smooth="yes"/>
      <point x="597" y="592"/>
      <point x="626" y="574"/>
      <point x="649" y="551" type="curve" smooth="yes"/>
      <point x="672" y="528"/>
      <point x="688" y="500"/>
      <point x="699" y="465" type="curve" smooth="yes"/>
      <point x="710" y="430"/>
      <point x="712" y="390"/>
      <point x="706" y="344" type="curve" smooth="yes"/>
      <point x="702" y="315"/>
      <point x="696" y="288"/>
      <point x="687" y="264" type="curve" smooth="yes"/>
      <point x="678" y="240"/>
      <point x="666" y="220"/>
      <point x="653" y="203" type="curve" smooth="yes"/>
      <point x="640" y="186"/>
      <point x="625" y="173"/>
      <point x="609" y="164" type="curve" smooth="yes"/>
      <point x="593" y="155"/>
      <point x="577" y="150"/>
      <point x="561" y="150" type="curve" smooth="yes"/>
      <point x="553" y="150"/>
      <point x="547" y="150"/>
      <point x="540" y="152" type="curve" smooth="yes"/>
      <point x="533" y="154"/>
      <point x="528" y="157"/>
      <point x="523" y="161" type="curve" smooth="yes"/>
      <point x="518" y="165"/>
      <point x="515" y="172"/>
      <point x="513" y="180" type="curve" smooth="yes"/>
      <point x="511" y="188"/>
      <point x="511" y="198"/>
      <point x="512" y="210" type="curve"/>
      <point x="514" y="226"/>
      <point x="520" y="247"/>
      <point x="529" y="272" type="curve" smooth="yes"/>
      <point x="598" y="452" type="line"/>
      <point x="584" y="459"/>
      <point x="568" y="463"/>
      <point x="552" y="467" type="curve" smooth="yes"/>
      <point x="536" y="471"/>
      <point x="516" y="473"/>
      <point x="494" y="473" type="curve" smooth="yes"/>
      <point x="452" y="473"/>
      <point x="415" y="466"/>
      <point x="381" y="451" type="curve" smooth="yes"/>
      <point x="347" y="436"/>
      <point x="318" y="417"/>
      <point x="294" y="394" type="curve" smooth="yes"/>
      <point x="270" y="371"/>
      <point x="250" y="345"/>
      <point x="236" y="316" type="curve" smooth="yes"/>
      <point x="222" y="287"/>
      <point x="212" y="258"/>
      <point x="209" y="230" type="curve" smooth="yes"/>
      <point x="207" y="211"/>
      <point x="207" y="193"/>
      <point x="210" y="176" type="curve" smooth="yes"/>
      <point x="213" y="159"/>
      <point x="219" y="145"/>
      <point x="227" y="133" type="curve" smooth="yes"/>
      <point x="235" y="121"/>
      <point x="246" y="111"/>
      <point x="260" y="104" type="curve" smooth="yes"/>
      <point x="274" y="97"/>
      <point x="291" y="94"/>
      <point x="311" y="94" type="curve" smooth="yes"/>
      <point x="337" y="94"/>
      <point x="362" y="100"/>
      <point x="386" y="112" type="curve" smooth="yes"/>
      <point x="410" y="124"/>
      <point x="433" y="143"/>
      <point x="456" y="170" type="curve"/>
      <point x="457" y="144"/>
      <point x="465" y="124"/>
      <point x="480" y="112" type="curve" smooth="yes"/>
      <point x="495" y="100"/>
      <point x="515" y="93"/>
      <point x="541" y="93" type="curve" smooth="yes"/>
    </contour>
    <contour>
      <point x="313" y="153"/>
      <point x="298" y="161"/>
      <point x="289" y="175" type="curve" smooth="yes"/>
      <point x="280" y="189"/>
      <point x="277" y="209"/>
      <point x="280" y="233" type="curve" smooth="yes"/>
      <point x="283" y="256"/>
      <point x="290" y="278"/>
      <point x="301" y="300" type="curve" smooth="yes"/>
      <point x="312" y="322"/>
      <point x="326" y="342"/>
      <point x="343" y="359" type="curve" smooth="yes"/>
      <point x="360" y="376"/>
      <point x="380" y="390"/>
      <point x="402" y="400" type="curve" smooth="yes"/>
      <point x="424" y="410"/>
      <point x="448" y="416"/>
      <point x="473" y="416" type="curve" smooth="yes"/>
      <point x="488" y="416"/>
      <point x="502" y="414"/>
      <point x="515" y="411" type="curve"/>
      <point x="459" y="264" type="line" smooth="yes"/>
      <point x="451" y="242"/>
      <point x="441" y="224"/>
      <point x="431" y="210" type="curve" smooth="yes"/>
      <point x="421" y="196"/>
      <point x="411" y="184"/>
      <point x="400" y="176" type="curve" smooth="yes"/>
      <point x="389" y="168"/>
      <point x="378" y="161"/>
      <point x="367" y="158" type="curve" smooth="yes"/>
      <point x="356" y="155"/>
      <point x="345" y="153"/>
      <point x="335" y="153" type="curve" smooth="yes"/>
    </contour>
  </outline>
</glyph>
<glyph name="C" format="1">
  <advance width="621"/>
  <unicode hex="0043"/>
  <note>
    C
  </note>
  <outline>
    <contour>
      <point x="318" y="724"/>
      <point x="226" y="690"/>
      <point x="151" y="622" type="curve" smooth="yes"/>
      <point x="76" y="554"/>
      <point x="31" y="466"/>
      <point x="18" y="358" type="curve" smooth="yes"/>
      <point x="5" y="249"/>
      <point x="26" y="161"/>
      <point x="80" y="94" type="curve" smooth="yes"/>
      <point x="134" y="26"/>
      <point x="212" y="-8"/>
      <point x="315" y="-8" type="curve" smooth="yes"/>
      <point x="425" y="-8"/>
      <point x="515" y="28"/>
      <point x="586" y="100" type="curve"/>
      <point x="553" y="142" type="line"/>
      <point x="549" y="146"/>
      <point x="545" y="148"/>
      <point x="540" y="148" type="curve" smooth="yes"/>
      <point x="535" y="148"/>
      <point x="528" y="145"/>
      <point x="522" y="140" type="curve" smooth="yes"/>
      <point x="493" y="117"/>
      <point x="461" y="100"/>
      <point x="427" y="88" type="curve" smooth="yes"/>
      <point x="405" y="80"/>
      <point x="373" y="76"/>
      <point x="331" y="76" type="curve" smooth="yes"/>
      <point x="259" y="76"/>
      <point x="203" y="100"/>
      <point x="164" y="150" type="curve" smooth="yes"/>
      <point x="122" y="202"/>
      <point x="106" y="271"/>
      <point x="117" y="358" type="curve" smooth="yes"/>
      <point x="128" y="444"/>
      <point x="161" y="513"/>
      <point x="216" y="564" type="curve" smooth="yes"/>
      <point x="301" y="644"/>
      <point x="415" y="661"/>
      <point x="559" y="614" type="curve"/>
      <point x="559" y="610"/>
      <point x="558" y="594"/>
      <point x="557" y="568" type="curve" smooth="yes"/>
      <point x="556" y="542"/>
      <point x="555" y="527"/>
      <point x="556" y="523" type="curve"/>
      <point x="557" y="512"/>
      <point x="564" y="506"/>
      <point x="575" y="506" type="curve" smooth="yes"/>
      <point x="623" y="506" type="line"/>
      <point x="637" y="617" type="line"/>
      <point x="644" y="673" type="line"/>
      <point x="557" y="707"/>
      <point x="485" y="724"/>
      <point x="428" y="724" type="curve" smooth="yes"/>
    </contour>
    <contour>
      <point x="367" y="716" type="move" name="top"/>
    </contour>
    <contour>
      <point x="281" y="0" type="move" name="bottom"/>
    </contour>
  </outline>
</glyph>
<glyph name="F" format="1">
  <advance width="583"/>
  <unicode hex="0046"/>
  <note>
    F
  </note>
  <outline>
    <contour>
      <point x="151" y="716" type="line"/>
      <point x="79" y="716" type="line"/>
      <point x="74" y="674" type="line" smooth="yes"/>
      <point x="73" y="664"/>
      <point x="77" y="657"/>
      <point x="87" y="655" type="curve" smooth="yes"/>
      <point x="93" y="654"/>
      <point x="112" y="650"/>
      <point x="143" y="644" type="curve"/>
      <point x="72" y="73" type="line"/>
      <point x="14" y="62" type="line" smooth="yes"/>
      <point x="4" y="60"/>
      <point x="-2" y="53"/>
      <point x="-3" y="43" type="curve" smooth="yes"/>
      <point x="-8" y="0" type="line"/>
      <point x="233" y="0" type="line"/>
      <point x="238" y="43" type="line" smooth="yes"/>
      <point x="239" y="53"/>
      <point x="236" y="60"/>
      <point x="226" y="62" type="curve" smooth="yes"/>
      <point x="197" y="68"/>
      <point x="178" y="71"/>
      <point x="170" y="73" type="curve"/>
      <point x="199" y="308" type="line"/>
      <point x="471" y="308" type="line"/>
      <point x="481" y="387" type="line"/>
      <point x="209" y="387" type="line"/>
      <point x="239" y="638" type="line"/>
      <point x="524" y="638" type="line"/>
      <point x="522" y="590"/>
      <point x="522" y="564"/>
      <point x="522" y="561" type="curve"/>
      <point x="523" y="549"/>
      <point x="529" y="544"/>
      <point x="540" y="544" type="curve" smooth="yes"/>
      <point x="589" y="544" type="line"/>
      <point x="610" y="716" type="line"/>
    </contour>
    <contour>
      <point x="348" y="716" type="move" name="top"/>
    </contour>
    <contour>
      <point x="262" y="0" type="move" name="bottom"/>
    </contour>
  </outline>
</glyph>
<glyph name="N" format="1">
  <advance width="777"/>
  <unicode hex="004E"/>
  <note>
    N
  </note>
  <outline>
    <contour>
      <point x="233" y="700" type="line"/>
      <point x="228" y="707"/>
      <point x="224" y="711"/>
      <point x="220" y="713" type="curve" smooth="yes"/>
      <point x="216" y="715"/>
      <point x="210" y="716"/>
      <point x="201" y="716" type="curve" smooth="yes"/>
      <point x="79" y="716" type="line"/>
      <point x="74" y="674" type="line" smooth="yes"/>
      <point x="73" y="664"/>
      <point x="77" y="657"/>
      <point x="87" y="655" type="curve" smooth="yes"/>
      <point x="93" y="654"/>
      <point x="112" y="649"/>
      <point x="143" y="643" type="curve"/>
      <point x="72" y="73" type="line"/>
      <point x="14" y="61" type="line" smooth="yes"/>
      <point x="4" y="59"/>
      <point x="-2" y="53"/>
      <point x="-3" y="43" type="curve" smooth="yes"/>
      <point x="-8" y="0" type="line"/>
      <point x="230" y="0" type="line"/>
      <point x="235" y="43" type="line" smooth="yes"/>
      <point x="236" y="53"/>
      <point x="233" y="59"/>
      <point x="223" y="61" type="curve" smooth="yes"/>
      <point x="218" y="62"/>
      <point x="196" y="66"/>
      <point x="157" y="73" type="curve"/>
      <point x="211" y="510" type="line" smooth="yes"/>
      <point x="213" y="524"/>
      <point x="214" y="540"/>
      <point x="215" y="557" type="curve"/>
      <point x="563" y="18" type="line" smooth="yes"/>
      <point x="571" y="6"/>
      <point x="582" y="0"/>
      <point x="596" y="0" type="curve" smooth="yes"/>
      <point x="644" y="0" type="line"/>
      <point x="724" y="644" type="line"/>
      <point x="782" y="655" type="line" smooth="yes"/>
      <point x="793" y="657"/>
      <point x="799" y="664"/>
      <point x="800" y="674" type="curve" smooth="yes"/>
      <point x="805" y="716" type="line"/>
      <point x="732" y="716" type="line"/>
      <point x="647" y="716" type="line"/>
      <point x="566" y="716" type="line"/>
      <point x="561" y="674" type="line" smooth="yes"/>
      <point x="560" y="664"/>
      <point x="563" y="657"/>
      <point x="573" y="655" type="curve" smooth="yes"/>
      <point x="578" y="654"/>
      <point x="601" y="650"/>
      <point x="639" y="643" type="curve"/>
      <point x="585" y="209" type="line" smooth="yes"/>
      <point x="583" y="191"/>
      <point x="582" y="174"/>
      <point x="582" y="160" type="curve"/>
    </contour>
    <contour>
      <point x="445" y="716" type="move" name="top"/>
    </contour>
    <contour>
      <point x="359" y="0" type="move" name="bottom"/>
    </contour>
  </outline>
</glyph>
<glyph name="T" format="1">
  <advance width="589"/>
  <unicode hex="0054"/>
  <note>
    T
  </note>
  <outline>
    <contour>
      <point x="602" y="716" type="line"/>
      <point x="567" y="716" type="line"/>
      <point x="28" y="716" type="line"/>
      <point x="8" y="558" type="line"/>
      <point x="57" y="558" type="line" smooth="yes"/>
      <point x="68" y="558"/>
      <point x="75" y="561"/>
      <point x="77" y="568" type="curve" smooth="yes"/>
      <point x="79" y="575"/>
      <point x="85" y="597"/>
      <point x="94" y="635" type="curve"/>
      <point x="263" y="635" type="line"/>
      <point x="194" y="73" type="line"/>
      <point x="168" y="68"/>
      <point x="149" y="64"/>
      <point x="138" y="62" type="curve" smooth="yes"/>
      <point x="127" y="60"/>
      <point x="120" y="53"/>
      <point x="119" y="43" type="curve"/>
      <point x="113" y="0" type="line"/>
      <point x="355" y="0" type="line"/>
      <point x="360" y="43" type="line" smooth="yes"/>
      <point x="361" y="53"/>
      <point x="359" y="59"/>
      <point x="352" y="61" type="curve" smooth="yes"/>
      <point x="345" y="63"/>
      <point x="329" y="65"/>
      <point x="304" y="70" type="curve"/>
      <point x="296" y="72"/>
      <point x="291" y="73"/>
      <point x="291" y="73" type="curve"/>
      <point x="360" y="635" type="line"/>
      <point x="529" y="635" type="line"/>
      <point x="529" y="568" type="line" smooth="yes"/>
      <point x="529" y="561"/>
      <point x="536" y="558"/>
      <point x="548" y="558" type="curve" smooth="yes"/>
      <point x="596" y="558" type="line"/>
      <point x="615" y="716" type="line"/>
    </contour>
    <contour>
      <point x="308" y="358" type="move" name="center"/>
    </contour>
    <contour>
      <point x="265" y="0" type="move" name="bottom"/>
    </contour>
    <contour>
      <point x="351" y="716" type="move" name="top"/>
    </contour>
  </outline>
</glyph>
<glyph name="U" format="1">
  <advance width="729"/>
  <unicode hex="0055"/>
  <note>
    U
  </note>
  <outline>
    <contour>
      <point x="684" y="716" type="line"/>
      <point x="588" y="716" type="line"/>
      <point x="506" y="716" type="line"/>
      <point x="501" y="674" type="line" smooth="yes"/>
      <point x="500" y="664"/>
      <point x="504" y="657"/>
      <point x="514" y="655" type="curve" smooth="yes"/>
      <point x="519" y="654"/>
      <point x="541" y="651"/>
      <point x="579" y="644" type="curve"/>
      <point x="535" y="281" type="line" smooth="yes"/>
      <point x="528" y="220"/>
      <point x="505" y="171"/>
      <point x="467" y="134" type="curve" smooth="yes"/>
      <point x="428" y="96"/>
      <point x="379" y="77"/>
      <point x="321" y="77" type="curve" smooth="yes"/>
      <point x="263" y="77"/>
      <point x="219" y="96"/>
      <point x="189" y="134" type="curve" smooth="yes"/>
      <point x="160" y="171"/>
      <point x="150" y="221"/>
      <point x="157" y="282" type="curve" smooth="yes"/>
      <point x="202" y="644" type="line"/>
      <point x="242" y="651"/>
      <point x="264" y="654"/>
      <point x="269" y="655" type="curve" smooth="yes"/>
      <point x="280" y="657"/>
      <point x="286" y="664"/>
      <point x="287" y="674" type="curve" smooth="yes"/>
      <point x="292" y="716" type="line"/>
      <point x="42" y="716" type="line"/>
      <point x="37" y="674" type="line" smooth="yes"/>
      <point x="36" y="664"/>
      <point x="39" y="657"/>
      <point x="49" y="655" type="curve" smooth="yes"/>
      <point x="55" y="654"/>
      <point x="74" y="650"/>
      <point x="105" y="644" type="curve"/>
      <point x="61" y="281" type="line" smooth="yes"/>
      <point x="51" y="197"/>
      <point x="68" y="128"/>
      <point x="112" y="74" type="curve" smooth="yes"/>
      <point x="158" y="19"/>
      <point x="223" y="-8"/>
      <point x="310" y="-8" type="curve" smooth="yes"/>
      <point x="397" y="-8"/>
      <point x="471" y="19"/>
      <point x="530" y="74" type="curve" smooth="yes"/>
      <point x="587" y="128"/>
      <point x="621" y="197"/>
      <point x="631" y="281" type="curve" smooth="yes"/>
      <point x="676" y="644" type="line"/>
      <point x="734" y="655" type="line" smooth="yes"/>
      <point x="745" y="657"/>
      <point x="751" y="664"/>
      <point x="752" y="674" type="curve" smooth="yes"/>
      <point x="757" y="716" type="line"/>
    </contour>
    <contour>
      <point x="626" y="10" type="move" name="ogonek"/>
    </contour>
    <contour>
      <point x="421" y="716" type="move" name="top"/>
    </contour>
    <contour>
      <point x="765" y="716" type="move" name="topright"/>
    </contour>
    <contour>
      <point x="335" y="0" type="move" name="bottom"/>
    </contour>
  </outline>
</glyph>
<glyph name="V" format="1">
  <advance width="731"/>
  <unicode hex="0056"/>
  <note>
    V
  </note>
  <outline>
    <contour>
      <point x="520" y="716" type="line"/>
      <point x="515" y="674" type="line" smooth="yes"/>
      <point x="514" y="664"/>
      <point x="517" y="657"/>
      <point x="527" y="655" type="curve" smooth="yes"/>
      <point x="533" y="654"/>
      <point x="552" y="650"/>
      <point x="583" y="644" type="curve"/>
      <point x="346" y="188" type="line" smooth="yes"/>
      <point x="336" y="170"/>
      <point x="326" y="144"/>
      <point x="314" y="110" type="curve"/>
      <point x="309" y="146"/>
      <point x="305" y="171"/>
      <point x="300" y="188" type="curve" smooth="yes"/>
      <point x="173" y="643" type="line"/>
      <point x="195" y="647"/>
      <point x="214" y="651"/>
      <point x="227" y="654" type="curve" smooth="yes"/>
      <point x="240" y="657"/>
      <point x="248" y="663"/>
      <point x="249" y="673" type="curve" smooth="yes"/>
      <point x="254" y="716" type="line"/>
      <point x="16" y="716" type="line"/>
      <point x="11" y="673" type="line" smooth="yes"/>
      <point x="10" y="663"/>
      <point x="13" y="657"/>
      <point x="23" y="655" type="curve" smooth="yes"/>
      <point x="29" y="654"/>
      <point x="46" y="649"/>
      <point x="73" y="643" type="curve"/>
      <point x="256" y="0" type="line"/>
      <point x="343" y="0" type="line"/>
      <point x="685" y="643" type="line"/>
      <point x="736" y="655" type="line" smooth="yes"/>
      <point x="746" y="657"/>
      <point x="752" y="663"/>
      <point x="753" y="673" type="curve" smooth="yes"/>
      <point x="758" y="716" type="line"/>
    </contour>
    <contour>
      <point x="422" y="716" type="move" name="top"/>
    </contour>
    <contour>
      <point x="336" y="0" type="move" name="bottom"/>
    </contour>
  </outline>
</glyph>
<glyph name="X" format="1">
  <advance width="735"/>
  <unicode hex="0058"/>
  <note>
    X
  </note>
  <outline>
    <contour>
      <point x="669" y="63"/>
      <point x="648" y="67"/>
      <point x="610" y="73" type="curve"/>
      <point x="450" y="372" type="line"/>
      <point x="670" y="644" type="line"/>
      <point x="708" y="650"/>
      <point x="731" y="654"/>
      <point x="740" y="656" type="curve" smooth="yes"/>
      <point x="749" y="658"/>
      <point x="754" y="664"/>
      <point x="755" y="674" type="curve" smooth="yes"/>
      <point x="760" y="716" type="line"/>
      <point x="503" y="716" type="line"/>
      <point x="498" y="674" type="line" smooth="yes"/>
      <point x="497" y="664"/>
      <point x="501" y="657"/>
      <point x="511" y="655" type="curve" smooth="yes"/>
      <point x="536" y="650"/>
      <point x="555" y="647"/>
      <point x="567" y="644" type="curve"/>
      <point x="404" y="439" type="line" smooth="yes"/>
      <point x="398" y="431"/>
      <point x="394" y="423"/>
      <point x="391" y="416" type="curve"/>
      <point x="269" y="645" type="line"/>
      <point x="291" y="649"/>
      <point x="308" y="653"/>
      <point x="319" y="655" type="curve" smooth="yes"/>
      <point x="330" y="657"/>
      <point x="336" y="664"/>
      <point x="337" y="674" type="curve" smooth="yes"/>
      <point x="342" y="716" type="line"/>
      <point x="87" y="716" type="line"/>
      <point x="82" y="674" type="line" smooth="yes"/>
      <point x="81" y="664"/>
      <point x="85" y="657"/>
      <point x="95" y="655" type="curve" smooth="yes"/>
      <point x="101" y="654"/>
      <point x="122" y="650"/>
      <point x="160" y="644" type="curve"/>
      <point x="313" y="368" type="line"/>
      <point x="79" y="73" type="line"/>
      <point x="36" y="66"/>
      <point x="13" y="63"/>
      <point x="11" y="62" type="curve"/>
      <point x="1" y="60"/>
      <point x="-5" y="53"/>
      <point x="-6" y="43" type="curve"/>
      <point x="-12" y="0" type="line"/>
      <point x="246" y="0" type="line"/>
      <point x="251" y="43" type="line" smooth="yes"/>
      <point x="252" y="53"/>
      <point x="249" y="60"/>
      <point x="239" y="62" type="curve" smooth="yes"/>
      <point x="205" y="69"/>
      <point x="186" y="72"/>
      <point x="183" y="73" type="curve"/>
      <point x="362" y="299" type="line"/>
      <point x="366" y="305"/>
      <point x="370" y="312"/>
      <point x="373" y="319" type="curve"/>
      <point x="500" y="73" type="line"/>
      <point x="500" y="73"/>
      <point x="490" y="72"/>
      <point x="473" y="68" type="curve" smooth="yes"/>
      <point x="456" y="64"/>
      <point x="446" y="63"/>
      <point x="442" y="62" type="curve"/>
      <point x="432" y="60"/>
      <point x="425" y="53"/>
      <point x="424" y="43" type="curve" smooth="yes"/>
      <point x="419" y="0" type="line"/>
      <point x="682" y="0" type="line"/>
      <point x="688" y="43" type="line"/>
      <point x="689" y="53"/>
      <point x="685" y="60"/>
      <point x="675" y="62" type="curve" smooth="yes"/>
    </contour>
    <contour>
      <point x="424" y="716" type="move" name="top"/>
    </contour>
    <contour>
      <point x="338" y="0" type="move" name="bottom"/>
    </contour>
  </outline>
</glyph>
<glyph name="bracketleft" format="1">
  <advance width="290"/>
  <unicode hex="005B"/>
  <note>
    bracketleft
  </note>
  <outline>
    <contour>
      <point x="8" y="-144" type="line"/>
      <point x="192" y="-144" type="line"/>
      <point x="196" y="-110" type="line" smooth="yes"/>
      <point x="197" y="-102"/>
      <point x="196" y="-96"/>
      <point x="192" y="-92" type="curve" smooth="yes"/>
      <point x="188" y="-88"/>
      <point x="182" y="-86"/>
      <point x="175" y="-86" type="curve" smooth="yes"/>
      <point x="90" y="-86" type="line"/>
      <point x="188" y="708" type="line"/>
      <point x="272" y="708" type="line" smooth="yes"/>
      <point x="279" y="708"/>
      <point x="286" y="710"/>
      <point x="291" y="714" type="curve" smooth="yes"/>
      <point x="296" y="718"/>
      <point x="299" y="725"/>
      <point x="300" y="732" type="curve" smooth="yes"/>
      <point x="304" y="766" type="line"/>
      <point x="120" y="766" type="line"/>
    </contour>
  </outline>
</glyph>
<glyph name="backslash" format="1">
  <advance width="321"/>
  <unicode hex="005C"/>
  <note>
    backslash
  </note>
  <outline>
    <contour>
      <point x="22" y="736" type="line"/>
      <point x="230" y="-10" type="line" smooth="yes"/>
      <point x="233" y="-22"/>
      <point x="238" y="-30"/>
      <point x="247" y="-36" type="curve" smooth="yes"/>
      <point x="256" y="-42"/>
      <point x="265" y="-45"/>
      <point x="275" y="-45" type="curve" smooth="yes"/>
      <point x="312" y="-45" type="line"/>
      <point x="103" y="704" type="line" smooth="yes"/>
      <point x="100" y="715"/>
      <point x="95" y="722"/>
      <point x="88" y="728" type="curve" smooth="yes"/>
      <point x="81" y="734"/>
      <point x="71" y="736"/>
      <point x="60" y="736" type="curve" smooth="yes"/>
    </contour>
  </outline>
</glyph>
<glyph name="bracketright" format="1">
  <advance width="296"/>
  <unicode hex="005D"/>
  <note>
    bracketright
  </note>
  <outline>
    <contour>
      <point x="-17" y="-144" type="line"/>
      <point x="167" y="-144" type="line"/>
      <point x="279" y="766" type="line"/>
      <point x="95" y="766" type="line"/>
      <point x="91" y="732" type="line" smooth="yes"/>
      <point x="90" y="725"/>
      <point x="91" y="720"/>
      <point x="95" y="715" type="curve"/>
      <point x="99" y="711"/>
      <point x="105" y="708"/>
      <point x="112" y="708" type="curve" smooth="yes"/>
      <point x="197" y="708" type="line"/>
      <point x="99" y="-86" type="line"/>
      <point x="15" y="-86" type="line" smooth="yes"/>
      <point x="8" y="-86"/>
      <point x="1" y="-87"/>
      <point x="-4" y="-92" type="curve" smooth="yes"/>
      <point x="-9" y="-97"/>
      <point x="-12" y="-103"/>
      <point x="-13" y="-110" type="curve" smooth="yes"/>
    </contour>
  </outline>
</glyph>
<glyph name="asciicircum" format="1">
  <advance width="455"/>
  <unicode hex="005E"/>
  <note>
    asciicircum
  </note>
  <outline>
    <contour>
      <point x="239" y="716" type="line"/>
      <point x="20" y="394" type="line"/>
      <point x="88" y="394" type="line" smooth="yes"/>
      <point x="95" y="394"/>
      <point x="101" y="395"/>
      <point x="105" y="398" type="curve" smooth="yes"/>
      <point x="109" y="401"/>
      <point x="113" y="405"/>
      <point x="116" y="410" type="curve"/>
      <point x="235" y="586" type="line" smooth="yes"/>
      <point x="244" y="600"/>
      <point x="253" y="615"/>
      <point x="259" y="630" type="curve"/>
      <point x="260" y="623"/>
      <point x="262" y="616"/>
      <point x="264" y="609" type="curve" smooth="yes"/>
      <point x="266" y="602"/>
      <point x="270" y="594"/>
      <point x="273" y="586" type="curve"/>
      <point x="349" y="410" type="line" smooth="yes"/>
      <point x="351" y="405"/>
      <point x="354" y="401"/>
      <point x="358" y="398" type="curve" smooth="yes"/>
      <point x="362" y="395"/>
      <point x="366" y="394"/>
      <point x="372" y="394" type="curve" smooth="yes"/>
      <point x="436" y="394" type="line"/>
      <point x="297" y="716" type="line"/>
    </contour>
  </outline>
</glyph>
<glyph name="underscore" format="1">
  <advance width="552"/>
  <unicode hex="005F"/>
  <note>
    underscore
  </note>
  <outline>
    <contour>
      <point x="471" y="-82" type="line"/>
      <point x="77" y="-82" type="line"/>
      <point x="70" y="-142" type="line"/>
      <point x="464" y="-142" type="line"/>
    </contour>
  </outline>
</glyph>
<glyph name="grave" format="1">
  <advance width="265"/>
  <unicode hex="0060"/>
  <note>
    grave
  </note>
  <outline>
    <contour>
      <point x="92" y="724" type="line"/>
      <point x="193" y="596" type="line" smooth="yes"/>
      <point x="197" y="591"/>
      <point x="201" y="587"/>
      <point x="205" y="585" type="curve" smooth="yes"/>
      <point x="209" y="583"/>
      <point x="214" y="582"/>
      <point x="221" y="582" type="curve" smooth="yes"/>
      <point x="272" y="582" type="line"/>
      <point x="213" y="702" type="line" smooth="yes"/>
      <point x="209" y="710"/>
      <point x="205" y="715"/>
      <point x="200" y="719" type="curve" smooth="yes"/>
      <point x="195" y="723"/>
      <point x="187" y="724"/>
      <point x="176" y="724" type="curve" smooth="yes"/>
    </contour>
  </outline>
</glyph>
<glyph name="f" format="1">
  <advance width="398"/>
  <unicode hex="0066"/>
  <note>
    f
  </note>
  <outline>
    <contour>
      <point x="243" y="727"/>
      <point x="175" y="652"/>
      <point x="162" y="546" type="curve" smooth="yes"/>
      <point x="156" y="496" type="line"/>
      <point x="76" y="496" type="line"/>
      <point x="72" y="460" type="line" smooth="yes"/>
      <point x="71" y="448"/>
      <point x="77" y="441"/>
      <point x="93" y="437" type="curve"/>
      <point x="148" y="430" type="line"/>
      <point x="91" y="-37" type="line" smooth="yes"/>
      <point x="85" y="-88"/>
      <point x="64" y="-114"/>
      <point x="9" y="-114" type="curve" smooth="yes"/>
      <point x="-10" y="-114" type="line" smooth="yes"/>
      <point x="-19" y="-114"/>
      <point x="-25" y="-117"/>
      <point x="-27" y="-124" type="curve"/>
      <point x="-37" y="-172" type="line"/>
      <point x="-20" y="-179"/>
      <point x="0" y="-182"/>
      <point x="23" y="-182" type="curve" smooth="yes"/>
      <point x="118" y="-182"/>
      <point x="169" y="-124"/>
      <point x="180" y="-38" type="curve" smooth="yes"/>
      <point x="199" y="119"/>
      <point x="218" y="275"/>
      <point x="237" y="432" type="curve"/>
      <point x="381" y="432" type="line"/>
      <point x="389" y="496" type="line"/>
      <point x="243" y="496" type="line"/>
      <point x="248" y="543" type="line" smooth="yes"/>
      <point x="257" y="620"/>
      <point x="296" y="658"/>
      <point x="364" y="658" type="curve" smooth="yes"/>
      <point x="380" y="658" type="line" smooth="yes"/>
      <point x="398" y="658"/>
      <point x="411" y="659"/>
      <point x="413" y="673" type="curve" smooth="yes"/>
      <point x="420" y="717" type="line"/>
      <point x="402" y="724"/>
      <point x="381" y="727"/>
      <point x="358" y="727" type="curve" smooth="yes"/>
    </contour>
    <contour>
      <point x="229" y="506" type="move" name="top"/>
    </contour>
    <contour>
      <point x="169" y="0" type="move" name="bottom"/>
    </contour>
  </outline>
</glyph>
<glyph name="i" format="1">
  <advance width="249"/>
  <unicode hex="0069"/>
  <note>
    i
  </note>
  <outline>
    <contour>
      <point x="184" y="64"/>
      <point x="137" y="73"/>
      <point x="137" y="73" type="curve"/>
      <point x="191" y="506" type="line"/>
      <point x="29" y="506" type="line"/>
      <point x="24" y="463" type="line" smooth="yes"/>
      <point x="23" y="454"/>
      <point x="28" y="447"/>
      <point x="37" y="445" type="curve" smooth="yes"/>
      <point x="46" y="443"/>
      <point x="93" y="434"/>
      <point x="93" y="434" type="curve"/>
      <point x="48" y="73" type="line"/>
      <point x="39" y="0" type="line"/>
      <point x="201" y="0" type="line"/>
      <point x="206" y="43" type="line" smooth="yes"/>
      <point x="207" y="52"/>
      <point x="202" y="60"/>
      <point x="193" y="62" type="curve" smooth="yes"/>
    </contour>
    <contour>
      <point x="225" y="698"/>
      <point x="221" y="705"/>
      <point x="216" y="711" type="curve" smooth="yes"/>
      <point x="211" y="717"/>
      <point x="205" y="721"/>
      <point x="198" y="724" type="curve" smooth="yes"/>
      <point x="191" y="727"/>
      <point x="183" y="729"/>
      <point x="174" y="729" type="curve" smooth="yes"/>
      <point x="165" y="729"/>
      <point x="157" y="727"/>
      <point x="149" y="724" type="curve" smooth="yes"/>
      <point x="141" y="721"/>
      <point x="134" y="717"/>
      <point x="127" y="711" type="curve" smooth="yes"/>
      <point x="120" y="705"/>
      <point x="115" y="698"/>
      <point x="111" y="690" type="curve" smooth="yes"/>
      <point x="107" y="682"/>
      <point x="104" y="674"/>
      <point x="103" y="665" type="curve" smooth="yes"/>
      <point x="102" y="656"/>
      <point x="103" y="648"/>
      <point x="105" y="641" type="curve" smooth="yes"/>
      <point x="107" y="634"/>
      <point x="111" y="627"/>
      <point x="116" y="621" type="curve" smooth="yes"/>
      <point x="121" y="615"/>
      <point x="128" y="610"/>
      <point x="135" y="607" type="curve" smooth="yes"/>
      <point x="142" y="604"/>
      <point x="149" y="602"/>
      <point x="158" y="602" type="curve" smooth="yes"/>
      <point x="167" y="602"/>
      <point x="175" y="604"/>
      <point x="183" y="607" type="curve" smooth="yes"/>
      <point x="191" y="610"/>
      <point x="198" y="615"/>
      <point x="205" y="621" type="curve" smooth="yes"/>
      <point x="212" y="627"/>
      <point x="218" y="633"/>
      <point x="222" y="641" type="curve" smooth="yes"/>
      <point x="226" y="649"/>
      <point x="229" y="656"/>
      <point x="230" y="665" type="curve" smooth="yes"/>
      <point x="231" y="674"/>
      <point x="231" y="682"/>
      <point x="228" y="690" type="curve" smooth="yes"/>
    </contour>
    <contour>
      <point x="95" y="0" type="move" name="bottom"/>
    </contour>
  </outline>
</glyph>
<glyph name="j" format="1">
  <advance width="283"/>
  <unicode hex="006A"/>
  <note>
    j
  </note>
  <outline>
    <contour>
      <point x="281" y="698"/>
      <point x="277" y="705"/>
      <point x="272" y="711" type="curve" smooth="yes"/>
      <point x="267" y="717"/>
      <point x="261" y="721"/>
      <point x="254" y="724" type="curve" smooth="yes"/>
      <point x="247" y="727"/>
      <point x="239" y="730"/>
      <point x="230" y="730" type="curve" smooth="yes"/>
      <point x="221" y="730"/>
      <point x="213" y="727"/>
      <point x="205" y="724" type="curve" smooth="yes"/>
      <point x="197" y="721"/>
      <point x="190" y="717"/>
      <point x="183" y="711" type="curve" smooth="yes"/>
      <point x="176" y="705"/>
      <point x="171" y="698"/>
      <point x="167" y="690" type="curve" smooth="yes"/>
      <point x="163" y="682"/>
      <point x="160" y="674"/>
      <point x="159" y="665" type="curve" smooth="yes"/>
      <point x="158" y="656"/>
      <point x="159" y="649"/>
      <point x="161" y="641" type="curve" smooth="yes"/>
      <point x="163" y="633"/>
      <point x="167" y="627"/>
      <point x="172" y="621" type="curve" smooth="yes"/>
      <point x="177" y="615"/>
      <point x="183" y="610"/>
      <point x="190" y="607" type="curve" smooth="yes"/>
      <point x="197" y="604"/>
      <point x="205" y="602"/>
      <point x="214" y="602" type="curve" smooth="yes"/>
      <point x="223" y="602"/>
      <point x="231" y="604"/>
      <point x="239" y="607" type="curve" smooth="yes"/>
      <point x="247" y="610"/>
      <point x="254" y="615"/>
      <point x="261" y="621" type="curve" smooth="yes"/>
      <point x="268" y="627"/>
      <point x="274" y="633"/>
      <point x="278" y="641" type="curve" smooth="yes"/>
      <point x="282" y="649"/>
      <point x="285" y="656"/>
      <point x="286" y="665" type="curve" smooth="yes"/>
      <point x="287" y="674"/>
      <point x="287" y="682"/>
      <point x="284" y="690" type="curve" smooth="yes"/>
    </contour>
    <contour>
      <point x="140" y="-149"/>
      <point x="172" y="-105"/>
      <point x="180" y="-38" type="curve" smooth="yes"/>
      <point x="246" y="506" type="line"/>
      <point x="157" y="506" type="line"/>
      <point x="85" y="506" type="line"/>
      <point x="80" y="463" type="line" smooth="yes"/>
      <point x="79" y="453"/>
      <point x="83" y="447"/>
      <point x="93" y="445" type="curve" smooth="yes"/>
      <point x="120" y="439"/>
      <point x="138" y="435"/>
      <point x="148" y="433" type="curve"/>
      <point x="91" y="-37" type="line" smooth="yes"/>
      <point x="88" y="-64"/>
      <point x="79" y="-84"/>
      <point x="67" y="-96" type="curve" smooth="yes"/>
      <point x="55" y="-108"/>
      <point x="35" y="-114"/>
      <point x="9" y="-114" type="curve" smooth="yes"/>
      <point x="-10" y="-114" type="line" smooth="yes"/>
      <point x="-19" y="-114"/>
      <point x="-25" y="-117"/>
      <point x="-27" y="-124" type="curve"/>
      <point x="-37" y="-172" type="line"/>
      <point x="-20" y="-179"/>
      <point x="0" y="-182"/>
      <point x="23" y="-182" type="curve" smooth="yes"/>
      <point x="46" y="-182"/>
      <point x="67" y="-178"/>
      <point x="86" y="-171" type="curve" smooth="yes"/>
    </contour>
  </outline>
</glyph>
<glyph name="t" format="1">
  <advance width="323"/>
  <unicode hex="0074"/>
  <note>
    t
  </note>
  <outline>
    <contour>
      <point x="182" y="-8"/>
      <point x="204" y="-4"/>
      <point x="227" y="4" type="curve" smooth="yes"/>
      <point x="250" y="12"/>
      <point x="270" y="24"/>
      <point x="287" y="38" type="curve"/>
      <point x="266" y="80" type="line" smooth="yes"/>
      <point x="263" y="86"/>
      <point x="260" y="89"/>
      <point x="255" y="89" type="curve" smooth="yes"/>
      <point x="252" y="89"/>
      <point x="249" y="87"/>
      <point x="245" y="85" type="curve" smooth="yes"/>
      <point x="241" y="83"/>
      <point x="236" y="80"/>
      <point x="231" y="77" type="curve" smooth="yes"/>
      <point x="226" y="74"/>
      <point x="219" y="71"/>
      <point x="212" y="69" type="curve" smooth="yes"/>
      <point x="205" y="67"/>
      <point x="197" y="65"/>
      <point x="188" y="65" type="curve" smooth="yes"/>
      <point x="172" y="65"/>
      <point x="159" y="70"/>
      <point x="150" y="80" type="curve" smooth="yes"/>
      <point x="141" y="90"/>
      <point x="137" y="107"/>
      <point x="140" y="128" type="curve" smooth="yes"/>
      <point x="177" y="432" type="line"/>
      <point x="322" y="432" type="line"/>
      <point x="330" y="496" type="line"/>
      <point x="185" y="496" type="line"/>
      <point x="207" y="671" type="line"/>
      <point x="162" y="671" type="line" smooth="yes"/>
      <point x="156" y="671"/>
      <point x="151" y="669"/>
      <point x="147" y="666" type="curve" smooth="yes"/>
      <point x="143" y="663"/>
      <point x="140" y="659"/>
      <point x="139" y="654" type="curve"/>
      <point x="99" y="498" type="line"/>
      <point x="15" y="487" type="line"/>
      <point x="11" y="452" type="line" smooth="yes"/>
      <point x="10" y="445"/>
      <point x="11" y="440"/>
      <point x="14" y="437" type="curve" smooth="yes"/>
      <point x="17" y="434"/>
      <point x="22" y="432"/>
      <point x="27" y="432" type="curve" smooth="yes"/>
      <point x="88" y="432" type="line"/>
      <point x="50" y="122" type="line" smooth="yes"/>
      <point x="45" y="80"/>
      <point x="52" y="48"/>
      <point x="71" y="26" type="curve" smooth="yes"/>
      <point x="90" y="4"/>
      <point x="119" y="-8"/>
      <point x="159" y="-8" type="curve" smooth="yes"/>
    </contour>
    <contour>
      <point x="132" y="0" type="move" name="bottom"/>
    </contour>
    <contour>
      <point x="192" y="506" type="move" name="top"/>
    </contour>
    <contour>
      <point x="333" y="506" type="move" name="topright"/>
    </contour>
    <contour>
      <point x="162" y="253" type="move" name="center"/>
    </contour>
  </outline>
</glyph>
<glyph name="braceleft" format="1">
  <advance width="296"/>
  <unicode hex="007B"/>
  <note>
    braceleft
  </note>
  <outline>
    <contour>
      <point x="75" y="195"/>
      <point x="72" y="179"/>
      <point x="67" y="163" type="curve" smooth="yes"/>
      <point x="62" y="147"/>
      <point x="57" y="130"/>
      <point x="52" y="114" type="curve" smooth="yes"/>
      <point x="47" y="98"/>
      <point x="42" y="80"/>
      <point x="37" y="64" type="curve" smooth="yes"/>
      <point x="32" y="48"/>
      <point x="29" y="31"/>
      <point x="27" y="14" type="curve" smooth="yes"/>
      <point x="24" y="-9"/>
      <point x="26" y="-31"/>
      <point x="30" y="-50" type="curve" smooth="yes"/>
      <point x="34" y="-69"/>
      <point x="43" y="-86"/>
      <point x="55" y="-100" type="curve" smooth="yes"/>
      <point x="67" y="-114"/>
      <point x="82" y="-125"/>
      <point x="102" y="-133" type="curve" smooth="yes"/>
      <point x="122" y="-141"/>
      <point x="145" y="-144"/>
      <point x="172" y="-144" type="curve" smooth="yes"/>
      <point x="199" y="-144" type="line"/>
      <point x="204" y="-104" type="line" smooth="yes"/>
      <point x="205" y="-97"/>
      <point x="203" y="-93"/>
      <point x="199" y="-90" type="curve" smooth="yes"/>
      <point x="195" y="-87"/>
      <point x="190" y="-86"/>
      <point x="186" y="-86" type="curve" smooth="yes"/>
      <point x="176" y="-86" type="line" smooth="yes"/>
      <point x="150" y="-86"/>
      <point x="131" y="-77"/>
      <point x="118" y="-60" type="curve" smooth="yes"/>
      <point x="105" y="-43"/>
      <point x="101" y="-21"/>
      <point x="105" y="8" type="curve" smooth="yes"/>
      <point x="107" y="27"/>
      <point x="111" y="45"/>
      <point x="115" y="62" type="curve" smooth="yes"/>
      <point x="119" y="79"/>
      <point x="124" y="97"/>
      <point x="129" y="113" type="curve" smooth="yes"/>
      <point x="134" y="129"/>
      <point x="139" y="146"/>
      <point x="143" y="162" type="curve" smooth="yes"/>
      <point x="147" y="178"/>
      <point x="151" y="195"/>
      <point x="153" y="212" type="curve"/>
      <point x="155" y="224"/>
      <point x="153" y="235"/>
      <point x="151" y="246" type="curve" smooth="yes"/>
      <point x="149" y="257"/>
      <point x="145" y="266"/>
      <point x="139" y="275" type="curve" smooth="yes"/>
      <point x="133" y="284"/>
      <point x="126" y="291"/>
      <point x="118" y="297" type="curve" smooth="yes"/>
      <point x="110" y="303"/>
      <point x="100" y="308"/>
      <point x="89" y="311" type="curve"/>
      <point x="100" y="314"/>
      <point x="111" y="319"/>
      <point x="121" y="325" type="curve" smooth="yes"/>
      <point x="131" y="331"/>
      <point x="140" y="338"/>
      <point x="148" y="347" type="curve"/>
      <point x="156" y="355"/>
      <point x="162" y="365"/>
      <point x="167" y="376" type="curve" smooth="yes"/>
      <point x="172" y="387"/>
      <point x="175" y="398"/>
      <point x="177" y="411" type="curve"/>
      <point x="179" y="428"/>
      <point x="180" y="445"/>
      <point x="180" y="461" type="curve" smooth="yes"/>
      <point x="180" y="477"/>
      <point x="179" y="494"/>
      <point x="178" y="510" type="curve" smooth="yes"/>
      <point x="177" y="526"/>
      <point x="176" y="544"/>
      <point x="176" y="561" type="curve" smooth="yes"/>
      <point x="176" y="578"/>
      <point x="177" y="596"/>
      <point x="179" y="615" type="curve" smooth="yes"/>
      <point x="183" y="644"/>
      <point x="193" y="666"/>
      <point x="210" y="683" type="curve" smooth="yes"/>
      <point x="227" y="700"/>
      <point x="248" y="708"/>
      <point x="274" y="708" type="curve" smooth="yes"/>
      <point x="284" y="708" type="line" smooth="yes"/>
      <point x="288" y="708"/>
      <point x="292" y="709"/>
      <point x="297" y="712" type="curve" smooth="yes"/>
      <point x="302" y="715"/>
      <point x="305" y="720"/>
      <point x="306" y="727" type="curve" smooth="yes"/>
      <point x="311" y="766" type="line"/>
      <point x="284" y="766" type="line" smooth="yes"/>
      <point x="257" y="766"/>
      <point x="232" y="763"/>
      <point x="211" y="755" type="curve" smooth="yes"/>
      <point x="190" y="747"/>
      <point x="172" y="736"/>
      <point x="156" y="722" type="curve" smooth="yes"/>
      <point x="140" y="708"/>
      <point x="127" y="691"/>
      <point x="118" y="672" type="curve" smooth="yes"/>
      <point x="109" y="653"/>
      <point x="103" y="632"/>
      <point x="100" y="609" type="curve" smooth="yes"/>
      <point x="98" y="592"/>
      <point x="97" y="575"/>
      <point x="98" y="558" type="curve" smooth="yes"/>
      <point x="99" y="541"/>
      <point x="100" y="524"/>
      <point x="101" y="508" type="curve" smooth="yes"/>
      <point x="102" y="492"/>
      <point x="102" y="476"/>
      <point x="103" y="460" type="curve" smooth="yes"/>
      <point x="104" y="444"/>
      <point x="103" y="427"/>
      <point x="101" y="410" type="curve" smooth="yes"/>
      <point x="98" y="389"/>
      <point x="91" y="371"/>
      <point x="78" y="358" type="curve" smooth="yes"/>
      <point x="65" y="345"/>
      <point x="46" y="338"/>
      <point x="24" y="338" type="curve"/>
      <point x="18" y="284" type="line"/>
      <point x="40" y="284"/>
      <point x="56" y="278"/>
      <point x="66" y="264" type="curve" smooth="yes"/>
      <point x="76" y="250"/>
      <point x="80" y="233"/>
      <point x="77" y="212" type="curve" smooth="yes"/>
    </contour>
  </outline>
</glyph>
<glyph name="cent" format="1">
  <advance width="450"/>
  <unicode hex="00A2"/>
  <note>
    cent
  </note>
  <outline>
    <contour>
      <point x="386" y="103" type="line"/>
      <point x="383" y="109"/>
      <point x="379" y="112"/>
      <point x="372" y="112" type="curve" smooth="yes"/>
      <point x="365" y="112"/>
      <point x="358" y="109"/>
      <point x="351" y="104" type="curve" smooth="yes"/>
      <point x="344" y="99"/>
      <point x="336" y="92"/>
      <point x="326" y="86" type="curve" smooth="yes"/>
      <point x="316" y="80"/>
      <point x="304" y="74"/>
      <point x="289" y="69" type="curve" smooth="yes"/>
      <point x="274" y="64"/>
      <point x="261" y="62"/>
      <point x="250" y="62" type="curve" smooth="yes"/>
      <point x="230" y="62" type="line"/>
      <point x="230" y="63" type="line"/>
      <point x="302" y="443" type="line"/>
      <point x="303" y="444" type="line"/>
      <point x="310" y="443"/>
      <point x="319" y="442"/>
      <point x="331" y="440" type="curve"/>
      <point x="340" y="439"/>
      <point x="351" y="435"/>
      <point x="366" y="430" type="curve"/>
      <point x="364" y="386"/>
      <point x="363" y="364"/>
      <point x="364" y="360" type="curve"/>
      <point x="365" y="351"/>
      <point x="369" y="346"/>
      <point x="379" y="346" type="curve" smooth="yes"/>
      <point x="419" y="346" type="line"/>
      <point x="435" y="476" type="line"/>
      <point x="391" y="495"/>
      <point x="351" y="507"/>
      <point x="316" y="512" type="curve"/>
      <point x="338" y="628" type="line"/>
      <point x="305" y="628" type="line" smooth="yes"/>
      <point x="298" y="628"/>
      <point x="292" y="625"/>
      <point x="287" y="620" type="curve" smooth="yes"/>
      <point x="282" y="615"/>
      <point x="279" y="609"/>
      <point x="277" y="602" type="curve"/>
      <point x="260" y="512" type="line"/>
      <point x="198" y="506"/>
      <point x="146" y="483"/>
      <point x="104" y="440" type="curve" smooth="yes"/>
      <point x="57" y="393"/>
      <point x="29" y="331"/>
      <point x="19" y="253" type="curve" smooth="yes"/>
      <point x="9" y="172"/>
      <point x="23" y="108"/>
      <point x="60" y="61" type="curve" smooth="yes"/>
      <point x="85" y="28"/>
      <point x="119" y="7"/>
      <point x="161" y="-2" type="curve"/>
      <point x="139" y="-117" type="line"/>
      <point x="172" y="-117" type="line" smooth="yes"/>
      <point x="179" y="-117"/>
      <point x="185" y="-115"/>
      <point x="190" y="-110" type="curve" smooth="yes"/>
      <point x="195" y="-105"/>
      <point x="199" y="-99"/>
      <point x="200" y="-93" type="curve" smooth="yes"/>
      <point x="216" y="-7" type="line"/>
      <point x="296" y="-5"/>
      <point x="360" y="21"/>
      <point x="407" y="71" type="curve"/>
    </contour>
    <contour>
      <point x="115" y="282"/>
      <point x="121" y="309"/>
      <point x="130" y="333" type="curve" smooth="yes"/>
      <point x="154" y="392"/>
      <point x="192" y="428"/>
      <point x="246" y="440" type="curve"/>
      <point x="201" y="204"/>
      <point x="177" y="82"/>
      <point x="175" y="74" type="curve"/>
      <point x="158" y="83"/>
      <point x="144" y="95"/>
      <point x="133" y="111" type="curve" smooth="yes"/>
      <point x="111" y="145"/>
      <point x="104" y="193"/>
      <point x="111" y="253" type="curve" smooth="yes"/>
    </contour>
  </outline>
</glyph>
<glyph name="sterling" format="1">
  <advance width="580"/>
  <unicode hex="00A3"/>
  <note>
    sterling
  </note>
  <outline>
    <contour>
      <point x="29" y="307" type="line"/>
      <point x="127" y="307" type="line"/>
      <point x="109" y="162" type="line" smooth="yes"/>
      <point x="107" y="147"/>
      <point x="103" y="134"/>
      <point x="97" y="122" type="curve" smooth="yes"/>
      <point x="91" y="110"/>
      <point x="83" y="100"/>
      <point x="74" y="92" type="curve" smooth="yes"/>
      <point x="65" y="84"/>
      <point x="55" y="77"/>
      <point x="44" y="71" type="curve" smooth="yes"/>
      <point x="33" y="65"/>
      <point x="22" y="61"/>
      <point x="10" y="58" type="curve"/>
      <point x="2" y="0" type="line"/>
      <point x="484" y="0" type="line" smooth="yes"/>
      <point x="490" y="0"/>
      <point x="496" y="2"/>
      <point x="501" y="4" type="curve" smooth="yes"/>
      <point x="506" y="6"/>
      <point x="510" y="9"/>
      <point x="514" y="13" type="curve" smooth="yes"/>
      <point x="518" y="17"/>
      <point x="521" y="21"/>
      <point x="523" y="25" type="curve" smooth="yes"/>
      <point x="525" y="29"/>
      <point x="527" y="34"/>
      <point x="528" y="39" type="curve"/>
      <point x="532" y="77" type="line"/>
      <point x="194" y="77" type="line" smooth="yes"/>
      <point x="184" y="77"/>
      <point x="175" y="76"/>
      <point x="165" y="75" type="curve" smooth="yes"/>
      <point x="155" y="74"/>
      <point x="146" y="73"/>
      <point x="136" y="71" type="curve"/>
      <point x="155" y="86"/>
      <point x="169" y="103"/>
      <point x="181" y="121" type="curve" smooth="yes"/>
      <point x="193" y="139"/>
      <point x="200" y="161"/>
      <point x="203" y="186" type="curve" smooth="yes"/>
      <point x="218" y="307" type="line"/>
      <point x="413" y="307" type="line" smooth="yes"/>
      <point x="420" y="307"/>
      <point x="426" y="310"/>
      <point x="432" y="315" type="curve" smooth="yes"/>
      <point x="438" y="320"/>
      <point x="441" y="325"/>
      <point x="442" y="331" type="curve"/>
      <point x="446" y="367" type="line"/>
      <point x="226" y="367" type="line"/>
      <point x="242" y="499" type="line" smooth="yes"/>
      <point x="245" y="522"/>
      <point x="249" y="542"/>
      <point x="257" y="560" type="curve" smooth="yes"/>
      <point x="265" y="578"/>
      <point x="275" y="594"/>
      <point x="287" y="607" type="curve" smooth="yes"/>
      <point x="299" y="620"/>
      <point x="314" y="630"/>
      <point x="331" y="637" type="curve" smooth="yes"/>
      <point x="348" y="644"/>
      <point x="367" y="648"/>
      <point x="388" y="648" type="curve" smooth="yes"/>
      <point x="403" y="648"/>
      <point x="415" y="646"/>
      <point x="426" y="642" type="curve" smooth="yes"/>
      <point x="437" y="638"/>
      <point x="445" y="634"/>
      <point x="453" y="628" type="curve" smooth="yes"/>
      <point x="461" y="622"/>
      <point x="468" y="616"/>
      <point x="474" y="608" type="curve" smooth="yes"/>
      <point x="480" y="600"/>
      <point x="485" y="592"/>
      <point x="491" y="584" type="curve"/>
      <point x="494" y="579"/>
      <point x="498" y="576"/>
      <point x="502" y="574" type="curve" smooth="yes"/>
      <point x="506" y="572"/>
      <point x="510" y="571"/>
      <point x="515" y="571" type="curve" smooth="yes"/>
      <point x="518" y="571"/>
      <point x="521" y="571"/>
      <point x="525" y="572" type="curve" smooth="yes"/>
      <point x="529" y="573"/>
      <point x="532" y="574"/>
      <point x="536" y="576" type="curve"/>
      <point x="575" y="599" type="line"/>
      <point x="569" y="616"/>
      <point x="561" y="633"/>
      <point x="551" y="648" type="curve" smooth="yes"/>
      <point x="541" y="663"/>
      <point x="529" y="676"/>
      <point x="515" y="687" type="curve" smooth="yes"/>
      <point x="501" y="698"/>
      <point x="484" y="707"/>
      <point x="465" y="714" type="curve"/>
      <point x="446" y="720"/>
      <point x="423" y="724"/>
      <point x="397" y="724" type="curve" smooth="yes"/>
      <point x="360" y="724"/>
      <point x="328" y="718"/>
      <point x="299" y="706" type="curve" smooth="yes"/>
      <point x="270" y="694"/>
      <point x="245" y="678"/>
      <point x="224" y="658" type="curve" smooth="yes"/>
      <point x="203" y="638"/>
      <point x="186" y="614"/>
      <point x="174" y="586" type="curve" smooth="yes"/>
      <point x="162" y="558"/>
      <point x="154" y="528"/>
      <point x="150" y="497" type="curve" smooth="yes"/>
      <point x="134" y="367" type="line"/>
      <point x="67" y="367" type="line" smooth="yes"/>
      <point x="57" y="367"/>
      <point x="49" y="364"/>
      <point x="43" y="358" type="curve" smooth="yes"/>
      <point x="37" y="352"/>
      <point x="34" y="345"/>
      <point x="33" y="336" type="curve" smooth="yes"/>
    </contour>
  </outline>
</glyph>
<glyph name="brokenbar" format="1">
  <advance width="207"/>
  <unicode hex="00A6"/>
  <note>
    brokenbar
  </note>
  <outline>
    <contour>
      <point x="121" y="766" type="line"/>
      <point x="72" y="370" type="line"/>
      <point x="141" y="370" type="line"/>
      <point x="190" y="766" type="line"/>
    </contour>
    <contour>
      <point x="55" y="226" type="line"/>
      <point x="6" y="-172" type="line"/>
      <point x="75" y="-172" type="line"/>
      <point x="124" y="226" type="line"/>
    </contour>
  </outline>
</glyph>
<glyph name="ordfeminine" format="1">
  <advance width="345"/>
  <unicode hex="00AA"/>
  <note>
    ordfeminine
  </note>
  <outline>
    <contour>
      <point x="285" y="420" type="line"/>
      <point x="308" y="610" type="line" smooth="yes"/>
      <point x="310" y="627"/>
      <point x="310" y="643"/>
      <point x="307" y="657" type="curve" smooth="yes"/>
      <point x="304" y="671"/>
      <point x="297" y="683"/>
      <point x="289" y="693" type="curve" smooth="yes"/>
      <point x="281" y="703"/>
      <point x="269" y="710"/>
      <point x="256" y="716" type="curve" smooth="yes"/>
      <point x="243" y="722"/>
      <point x="227" y="725"/>
      <point x="209" y="725" type="curve" smooth="yes"/>
      <point x="185" y="725"/>
      <point x="162" y="722"/>
      <point x="141" y="714" type="curve" smooth="yes"/>
      <point x="120" y="706"/>
      <point x="100" y="694"/>
      <point x="81" y="678" type="curve"/>
      <point x="89" y="656" type="line" smooth="yes"/>
      <point x="90" y="653"/>
      <point x="92" y="650"/>
      <point x="95" y="648" type="curve" smooth="yes"/>
      <point x="98" y="646"/>
      <point x="102" y="644"/>
      <point x="107" y="644" type="curve" smooth="yes"/>
      <point x="112" y="644"/>
      <point x="118" y="645"/>
      <point x="123" y="648" type="curve" smooth="yes"/>
      <point x="128" y="651"/>
      <point x="133" y="654"/>
      <point x="140" y="658" type="curve" smooth="yes"/>
      <point x="147" y="662"/>
      <point x="154" y="665"/>
      <point x="163" y="668" type="curve" smooth="yes"/>
      <point x="172" y="671"/>
      <point x="182" y="672"/>
      <point x="195" y="672" type="curve" smooth="yes"/>
      <point x="214" y="672"/>
      <point x="229" y="667"/>
      <point x="237" y="657" type="curve" smooth="yes"/>
      <point x="245" y="647"/>
      <point x="248" y="631"/>
      <point x="245" y="610" type="curve" smooth="yes"/>
      <point x="243" y="592" type="line"/>
      <point x="207" y="591"/>
      <point x="177" y="588"/>
      <point x="152" y="582" type="curve" smooth="yes"/>
      <point x="127" y="576"/>
      <point x="107" y="569"/>
      <point x="91" y="560" type="curve" smooth="yes"/>
      <point x="75" y="551"/>
      <point x="64" y="541"/>
      <point x="56" y="530" type="curve" smooth="yes"/>
      <point x="48" y="519"/>
      <point x="43" y="507"/>
      <point x="42" y="496" type="curve"/>
      <point x="40" y="482"/>
      <point x="42" y="471"/>
      <point x="45" y="461" type="curve" smooth="yes"/>
      <point x="48" y="451"/>
      <point x="53" y="443"/>
      <point x="60" y="436" type="curve" smooth="yes"/>
      <point x="67" y="429"/>
      <point x="77" y="423"/>
      <point x="87" y="420" type="curve" smooth="yes"/>
      <point x="97" y="417"/>
      <point x="108" y="416"/>
      <point x="121" y="416" type="curve" smooth="yes"/>
      <point x="132" y="416"/>
      <point x="143" y="416"/>
      <point x="153" y="418" type="curve" smooth="yes"/>
      <point x="163" y="420"/>
      <point x="171" y="423"/>
      <point x="180" y="427" type="curve" smooth="yes"/>
      <point x="189" y="431"/>
      <point x="198" y="436"/>
      <point x="206" y="441" type="curve" smooth="yes"/>
      <point x="214" y="446"/>
      <point x="223" y="452"/>
      <point x="232" y="459" type="curve"/>
      <point x="235" y="435" type="line"/>
      <point x="237" y="429"/>
      <point x="239" y="425"/>
      <point x="242" y="423" type="curve" smooth="yes"/>
      <point x="245" y="421"/>
      <point x="249" y="420"/>
      <point x="255" y="420" type="curve" smooth="yes"/>
    </contour>
    <contour>
      <point x="134" y="462"/>
      <point x="123" y="464"/>
      <point x="115" y="470" type="curve" smooth="yes"/>
      <point x="107" y="476"/>
      <point x="103" y="486"/>
      <point x="105" y="500" type="curve" smooth="yes"/>
      <point x="106" y="507"/>
      <point x="109" y="513"/>
      <point x="114" y="519" type="curve" smooth="yes"/>
      <point x="119" y="525"/>
      <point x="126" y="529"/>
      <point x="137" y="534" type="curve"/>
      <point x="148" y="538"/>
      <point x="161" y="542"/>
      <point x="178" y="545" type="curve" smooth="yes"/>
      <point x="195" y="548"/>
      <point x="215" y="549"/>
      <point x="238" y="550" type="curve"/>
      <point x="232" y="498" type="line"/>
      <point x="219" y="486"/>
      <point x="205" y="477"/>
      <point x="192" y="471" type="curve" smooth="yes"/>
      <point x="179" y="465"/>
      <point x="164" y="462"/>
      <point x="147" y="462" type="curve" smooth="yes"/>
    </contour>
  </outline>
</glyph>
<glyph name="logicalnot" format="1">
  <advance width="536"/>
  <unicode hex="00AC"/>
  <note>
    logicalnot
  </note>
  <outline>
    <contour>
      <point x="54" y="370" type="line"/>
      <point x="46" y="302" type="line"/>
      <point x="400" y="302" type="line"/>
      <point x="382" y="158" type="line"/>
      <point x="458" y="158" type="line"/>
      <point x="484" y="370" type="line"/>
    </contour>
  </outline>
</glyph>
<glyph name="macron" format="1">
  <advance width="400"/>
  <unicode hex="00AF"/>
  <note>
    macron
  </note>
  <outline>
    <contour>
      <point x="107" y="674" type="line"/>
      <point x="100" y="616" type="line"/>
      <point x="387" y="616" type="line"/>
      <point x="394" y="674" type="line"/>
    </contour>
  </outline>
</glyph>
<glyph name="plusminus" format="1">
  <advance width="543"/>
  <unicode hex="00B1"/>
  <note>
    plusminus
  </note>
  <outline>
    <contour>
      <point x="349" y="601" type="line"/>
      <point x="276" y="601" type="line"/>
      <point x="253" y="413" type="line"/>
      <point x="51" y="413" type="line"/>
      <point x="42" y="345" type="line"/>
      <point x="245" y="345" type="line"/>
      <point x="222" y="161" type="line"/>
      <point x="295" y="161" type="line"/>
      <point x="318" y="345" type="line"/>
      <point x="521" y="345" type="line"/>
      <point x="530" y="413" type="line"/>
      <point x="326" y="413" type="line"/>
    </contour>
    <contour>
      <point x="13" y="108" type="line"/>
      <point x="5" y="40" type="line"/>
      <point x="484" y="40" type="line"/>
      <point x="492" y="108" type="line"/>
    </contour>
  </outline>
</glyph>
<glyph name="periodcentered" format="1">
  <advance width="252"/>
  <unicode hex="00B7"/>
  <note>
    periodcentered
  </note>
  <outline>
    <contour>
      <point x="51" y="286"/>
      <point x="51" y="277"/>
      <point x="54" y="268" type="curve" smooth="yes"/>
      <point x="57" y="259"/>
      <point x="61" y="251"/>
      <point x="67" y="244" type="curve" smooth="yes"/>
      <point x="73" y="237"/>
      <point x="80" y="232"/>
      <point x="89" y="228" type="curve" smooth="yes"/>
      <point x="98" y="224"/>
      <point x="107" y="222"/>
      <point x="117" y="222" type="curve" smooth="yes"/>
      <point x="127" y="222"/>
      <point x="137" y="224"/>
      <point x="147" y="228" type="curve" smooth="yes"/>
      <point x="157" y="232"/>
      <point x="165" y="237"/>
      <point x="173" y="244" type="curve" smooth="yes"/>
      <point x="181" y="251"/>
      <point x="187" y="259"/>
      <point x="192" y="268" type="curve" smooth="yes"/>
      <point x="197" y="277"/>
      <point x="201" y="286"/>
      <point x="202" y="296" type="curve" smooth="yes"/>
      <point x="203" y="306"/>
      <point x="202" y="317"/>
      <point x="199" y="326" type="curve" smooth="yes"/>
      <point x="196" y="335"/>
      <point x="192" y="343"/>
      <point x="186" y="350" type="curve" smooth="yes"/>
      <point x="180" y="357"/>
      <point x="173" y="362"/>
      <point x="164" y="366" type="curve" smooth="yes"/>
      <point x="155" y="370"/>
      <point x="145" y="372"/>
      <point x="135" y="372" type="curve" smooth="yes"/>
      <point x="125" y="372"/>
      <point x="115" y="370"/>
      <point x="106" y="366" type="curve" smooth="yes"/>
      <point x="97" y="362"/>
      <point x="88" y="357"/>
      <point x="80" y="350" type="curve" smooth="yes"/>
      <point x="72" y="343"/>
      <point x="66" y="335"/>
      <point x="61" y="326" type="curve" smooth="yes"/>
      <point x="56" y="317"/>
      <point x="53" y="306"/>
      <point x="52" y="296" type="curve" smooth="yes"/>
    </contour>
  </outline>
</glyph>
<glyph name="onesuperior" format="1">
  <advance width="271"/>
  <unicode hex="00B9"/>
  <note>
    onesuperior
  </note>
  <outline>
    <contour>
      <point x="48" y="492" type="line"/>
      <point x="43" y="450" type="line"/>
      <point x="246" y="450" type="line"/>
      <point x="252" y="492" type="line"/>
      <point x="187" y="492" type="line"/>
      <point x="226" y="816" type="line"/>
      <point x="172" y="816" type="line"/>
      <point x="50" y="720" type="line"/>
      <point x="66" y="692" type="line"/>
      <point x="68" y="687"/>
      <point x="73" y="686"/>
      <point x="81" y="686" type="curve" smooth="yes"/>
      <point x="86" y="686"/>
      <point x="90" y="687"/>
      <point x="94" y="690" type="curve" smooth="yes"/>
      <point x="153" y="734" type="line"/>
      <point x="149" y="712" type="line"/>
      <point x="122" y="492" type="line"/>
    </contour>
  </outline>
</glyph>
<glyph name="questiondown" format="1">
  <advance width="381"/>
  <unicode hex="00BF"/>
  <note>
    questiondown
  </note>
  <outline>
    <contour>
      <point x="340" y="-68" type="line" smooth="yes"/>
      <point x="338" y="-64"/>
      <point x="337" y="-62"/>
      <point x="334" y="-60" type="curve" smooth="yes"/>
      <point x="331" y="-58"/>
      <point x="328" y="-57"/>
      <point x="323" y="-57" type="curve" smooth="yes"/>
      <point x="319" y="-57"/>
      <point x="313" y="-59"/>
      <point x="306" y="-64" type="curve" smooth="yes"/>
      <point x="299" y="-69"/>
      <point x="291" y="-75"/>
      <point x="280" y="-81" type="curve" smooth="yes"/>
      <point x="269" y="-87"/>
      <point x="256" y="-93"/>
      <point x="241" y="-98" type="curve" smooth="yes"/>
      <point x="226" y="-103"/>
      <point x="208" y="-105"/>
      <point x="188" y="-105" type="curve" smooth="yes"/>
      <point x="173" y="-105"/>
      <point x="159" y="-102"/>
      <point x="146" y="-98" type="curve" smooth="yes"/>
      <point x="133" y="-94"/>
      <point x="123" y="-88"/>
      <point x="114" y="-80" type="curve" smooth="yes"/>
      <point x="105" y="-72"/>
      <point x="99" y="-62"/>
      <point x="95" y="-50" type="curve" smooth="yes"/>
      <point x="91" y="-38"/>
      <point x="89" y="-26"/>
      <point x="91" y="-11" type="curve" smooth="yes"/>
      <point x="93" y="9"/>
      <point x="100" y="25"/>
      <point x="109" y="38" type="curve" smooth="yes"/>
      <point x="118" y="51"/>
      <point x="128" y="64"/>
      <point x="141" y="74" type="curve" smooth="yes"/>
      <point x="154" y="84"/>
      <point x="168" y="92"/>
      <point x="182" y="100" type="curve" smooth="yes"/>
      <point x="196" y="108"/>
      <point x="209" y="116"/>
      <point x="222" y="124" type="curve" smooth="yes"/>
      <point x="235" y="132"/>
      <point x="245" y="142"/>
      <point x="254" y="152" type="curve" smooth="yes"/>
      <point x="263" y="162"/>
      <point x="268" y="175"/>
      <point x="270" y="190" type="curve"/>
      <point x="270" y="196" type="line"/>
      <point x="275" y="280" type="line"/>
      <point x="214" y="280" type="line"/>
      <point x="195" y="202" type="line" smooth="yes"/>
      <point x="192" y="191"/>
      <point x="187" y="182"/>
      <point x="177" y="174" type="curve" smooth="yes"/>
      <point x="167" y="166"/>
      <point x="156" y="158"/>
      <point x="143" y="150" type="curve" smooth="yes"/>
      <point x="130" y="142"/>
      <point x="117" y="133"/>
      <point x="102" y="124" type="curve" smooth="yes"/>
      <point x="87" y="115"/>
      <point x="73" y="105"/>
      <point x="60" y="92" type="curve" smooth="yes"/>
      <point x="47" y="79"/>
      <point x="36" y="64"/>
      <point x="26" y="46" type="curve" smooth="yes"/>
      <point x="16" y="28"/>
      <point x="10" y="7"/>
      <point x="7" y="-18" type="curve" smooth="yes"/>
      <point x="4" y="-43"/>
      <point x="6" y="-66"/>
      <point x="13" y="-86" type="curve" smooth="yes"/>
      <point x="20" y="-106"/>
      <point x="30" y="-121"/>
      <point x="45" y="-135" type="curve" smooth="yes"/>
      <point x="60" y="-149"/>
      <point x="77" y="-160"/>
      <point x="99" y="-167" type="curve" smooth="yes"/>
      <point x="121" y="-174"/>
      <point x="145" y="-178"/>
      <point x="171" y="-178" type="curve" smooth="yes"/>
      <point x="191" y="-178"/>
      <point x="210" y="-176"/>
      <point x="228" y="-172" type="curve" smooth="yes"/>
      <point x="246" y="-168"/>
      <point x="263" y="-163"/>
      <point x="278" y="-156" type="curve" smooth="yes"/>
      <point x="293" y="-149"/>
      <point x="308" y="-143"/>
      <point x="322" y="-134" type="curve" smooth="yes"/>
      <point x="336" y="-125"/>
      <point x="347" y="-116"/>
      <point x="359" y="-106" type="curve"/>
    </contour>
    <contour>
      <point x="204" y="443"/>
      <point x="204" y="435"/>
      <point x="206" y="427" type="curve" smooth="yes"/>
      <point x="208" y="419"/>
      <point x="212" y="413"/>
      <point x="217" y="407" type="curve" smooth="yes"/>
      <point x="222" y="401"/>
      <point x="228" y="397"/>
      <point x="235" y="394" type="curve" smooth="yes"/>
      <point x="242" y="391"/>
      <point x="250" y="389"/>
      <point x="259" y="389" type="curve" smooth="yes"/>
      <point x="268" y="389"/>
      <point x="276" y="391"/>
      <point x="284" y="394" type="curve" smooth="yes"/>
      <point x="292" y="397"/>
      <point x="300" y="401"/>
      <point x="306" y="407" type="curve" smooth="yes"/>
      <point x="312" y="413"/>
      <point x="317" y="419"/>
      <point x="321" y="427" type="curve" smooth="yes"/>
      <point x="325" y="435"/>
      <point x="328" y="443"/>
      <point x="329" y="452" type="curve" smooth="yes"/>
      <point x="330" y="461"/>
      <point x="329" y="468"/>
      <point x="327" y="476" type="curve" smooth="yes"/>
      <point x="325" y="484"/>
      <point x="322" y="490"/>
      <point x="317" y="496" type="curve" smooth="yes"/>
      <point x="312" y="502"/>
      <point x="305" y="507"/>
      <point x="298" y="510" type="curve" smooth="yes"/>
      <point x="291" y="513"/>
      <point x="283" y="514"/>
      <point x="274" y="514" type="curve" smooth="yes"/>
      <point x="265" y="514"/>
      <point x="257" y="513"/>
      <point x="249" y="510" type="curve" smooth="yes"/>
      <point x="241" y="507"/>
      <point x="234" y="502"/>
      <point x="228" y="496" type="curve" smooth="yes"/>
      <point x="222" y="490"/>
      <point x="216" y="484"/>
      <point x="212" y="476" type="curve" smooth="yes"/>
      <point x="208" y="468"/>
      <point x="206" y="461"/>
      <point x="205" y="452" type="curve" smooth="yes"/>
    </contour>
  </outline>
</glyph>
<glyph name="Ecircumflex" format="1">
  <advance width="573"/>
  <unicode hex="00CA"/>
  <note>
    Ecircumflex
  </note>
  <outline>
    <contour>
      <point x="78" y="716" type="line"/>
      <point x="73" y="674" type="line" smooth="yes"/>
      <point x="72" y="664"/>
      <point x="76" y="657"/>
      <point x="86" y="655" type="curve" smooth="yes"/>
      <point x="92" y="654"/>
      <point x="111" y="650"/>
      <point x="142" y="644" type="curve"/>
      <point x="71" y="73" type="line"/>
      <point x="13" y="62" type="line" smooth="yes"/>
      <point x="3" y="60"/>
      <point x="-3" y="53"/>
      <point x="-4" y="43" type="curve"/>
      <point x="-10" y="0" type="line"/>
      <point x="504" y="0" type="line"/>
      <point x="525" y="167" type="line"/>
      <point x="477" y="167" type="line" smooth="yes"/>
      <point x="465" y="167"/>
      <point x="457" y="161"/>
      <point x="453" y="150" type="curve" smooth="yes"/>
      <point x="452" y="147"/>
      <point x="447" y="123"/>
      <point x="438" y="79" type="curve"/>
      <point x="170" y="79" type="line"/>
      <point x="200" y="324" type="line"/>
      <point x="464" y="324" type="line"/>
      <point x="473" y="400" type="line"/>
      <point x="209" y="400" type="line"/>
      <point x="238" y="638" type="line"/>
      <point x="506" y="638" type="line"/>
      <point x="504" y="590"/>
      <point x="504" y="564"/>
      <point x="504" y="561" type="curve"/>
      <point x="505" y="549"/>
      <point x="511" y="544"/>
      <point x="523" y="544" type="curve" smooth="yes"/>
      <point x="571" y="544" type="line"/>
      <point x="592" y="716" type="line"/>
    </contour>
    <contour>
      <point x="547" y="773" type="line"/>
      <point x="441" y="878" type="line"/>
      <point x="353" y="878" type="line"/>
      <point x="221" y="773" type="line"/>
      <point x="289" y="773" type="line" smooth="yes"/>
      <point x="293" y="773"/>
      <point x="297" y="774"/>
      <point x="302" y="775" type="curve" smooth="yes"/>
      <point x="307" y="776"/>
      <point x="311" y="778"/>
      <point x="314" y="780" type="curve" smooth="yes"/>
      <point x="385" y="827" type="line"/>
      <point x="386" y="828"/>
      <point x="389" y="829"/>
      <point x="392" y="831" type="curve"/>
      <point x="393" y="830"/>
      <point x="394" y="828"/>
      <point x="397" y="827" type="curve"/>
      <point x="456" y="779" type="line"/>
      <point x="459" y="777"/>
      <point x="462" y="776"/>
      <point x="467" y="775" type="curve" smooth="yes"/>
      <point x="472" y="774"/>
      <point x="476" y="773"/>
      <point x="480" y="773" type="curve" smooth="yes"/>
    </contour>
  </outline>
</glyph>
<glyph name="Igrave" format="1">
  <advance width="293"/>
  <unicode hex="00CC"/>
  <note>
    Igrave
  </note>
  <outline>
    <contour>
      <point x="297" y="655" type="line" smooth="yes"/>
      <point x="308" y="657"/>
      <point x="314" y="664"/>
      <point x="315" y="674" type="curve" smooth="yes"/>
      <point x="320" y="716" type="line"/>
      <point x="78" y="716" type="line"/>
      <point x="73" y="674" type="line" smooth="yes"/>
      <point x="72" y="664"/>
      <point x="75" y="658"/>
      <point x="83" y="656" type="curve" smooth="yes"/>
      <point x="91" y="654"/>
      <point x="111" y="650"/>
      <point x="142" y="644" type="curve"/>
      <point x="71" y="73" type="line"/>
      <point x="13" y="62" type="line" smooth="yes"/>
      <point x="3" y="60"/>
      <point x="-3" y="53"/>
      <point x="-4" y="43" type="curve"/>
      <point x="-10" y="0" type="line"/>
      <point x="232" y="0" type="line"/>
      <point x="237" y="43" type="line" smooth="yes"/>
      <point x="238" y="53"/>
      <point x="235" y="59"/>
      <point x="227" y="61" type="curve" smooth="yes"/>
      <point x="219" y="63"/>
      <point x="200" y="67"/>
      <point x="168" y="73" type="curve"/>
      <point x="239" y="644" type="line"/>
    </contour>
    <contour>
      <point x="41" y="891" type="line"/>
      <point x="175" y="782" type="line" smooth="yes"/>
      <point x="180" y="778"/>
      <point x="185" y="776"/>
      <point x="189" y="775" type="curve" smooth="yes"/>
      <point x="193" y="774"/>
      <point x="198" y="773"/>
      <point x="205" y="773" type="curve" smooth="yes"/>
      <point x="274" y="773" type="line"/>
      <point x="181" y="874" type="line"/>
      <point x="175" y="881"/>
      <point x="170" y="886"/>
      <point x="165" y="888" type="curve" smooth="yes"/>
      <point x="160" y="890"/>
      <point x="152" y="891"/>
      <point x="141" y="891" type="curve" smooth="yes"/>
    </contour>
  </outline>
</glyph>
<glyph name="Iacute" format="1">
  <advance width="353"/>
  <unicode hex="00CD"/>
  <note>
    Iacute
  </note>
  <outline>
    <contour>
      <point x="297" y="655" type="line" smooth="yes"/>
      <point x="308" y="657"/>
      <point x="314" y="664"/>
      <point x="315" y="674" type="curve" smooth="yes"/>
      <point x="320" y="716" type="line"/>
      <point x="78" y="716" type="line"/>
      <point x="73" y="674" type="line" smooth="yes"/>
      <point x="72" y="664"/>
      <point x="75" y="658"/>
      <point x="83" y="656" type="curve" smooth="yes"/>
      <point x="91" y="654"/>
      <point x="111" y="650"/>
      <point x="142" y="644" type="curve"/>
      <point x="71" y="73" type="line"/>
      <point x="13" y="62" type="line" smooth="yes"/>
      <point x="3" y="60"/>
      <point x="-3" y="53"/>
      <point x="-4" y="43" type="curve"/>
      <point x="-10" y="0" type="line"/>
      <point x="232" y="0" type="line"/>
      <point x="237" y="43" type="line" smooth="yes"/>
      <point x="238" y="53"/>
      <point x="235" y="59"/>
      <point x="227" y="61" type="curve" smooth="yes"/>
      <point x="219" y="63"/>
      <point x="200" y="67"/>
      <point x="168" y="73" type="curve"/>
      <point x="239" y="644" type="line"/>
    </contour>
    <contour>
      <point x="392" y="891" type="line"/>
      <point x="291" y="891" type="line" smooth="yes"/>
      <point x="285" y="891"/>
      <point x="281" y="890"/>
      <point x="277" y="890" type="curve" smooth="yes"/>
      <point x="273" y="890"/>
      <point x="270" y="889"/>
      <point x="267" y="888" type="curve" smooth="yes"/>
      <point x="264" y="887"/>
      <point x="261" y="884"/>
      <point x="258" y="882" type="curve" smooth="yes"/>
      <point x="255" y="880"/>
      <point x="251" y="877"/>
      <point x="247" y="874" type="curve"/>
      <point x="129" y="773" type="line"/>
      <point x="198" y="773" type="line" smooth="yes"/>
      <point x="205" y="773"/>
      <point x="212" y="774"/>
      <point x="216" y="775" type="curve" smooth="yes"/>
      <point x="220" y="776"/>
      <point x="226" y="779"/>
      <point x="232" y="783" type="curve" smooth="yes"/>
    </contour>
  </outline>
</glyph>
<glyph name="Idieresis" format="1">
  <advance width="337"/>
  <unicode hex="00CF"/>
  <note>
    Idieresis
  </note>
  <outline>
    <contour>
      <point x="297" y="655" type="line" smooth="yes"/>
      <point x="308" y="657"/>
      <point x="314" y="664"/>
      <point x="315" y="674" type="curve" smooth="yes"/>
      <point x="320" y="716" type="line"/>
      <point x="78" y="716" type="line"/>
      <point x="73" y="674" type="line" smooth="yes"/>
      <point x="72" y="664"/>
      <point x="75" y="658"/>
      <point x="83" y="656" type="curve" smooth="yes"/>
      <point x="91" y="654"/>
      <point x="111" y="650"/>
      <point x="142" y="644" type="curve"/>
      <point x="71" y="73" type="line"/>
      <point x="13" y="62" type="line" smooth="yes"/>
      <point x="3" y="60"/>
      <point x="-3" y="53"/>
      <point x="-4" y="43" type="curve"/>
      <point x="-10" y="0" type="line"/>
      <point x="232" y="0" type="line"/>
      <point x="237" y="43" type="line" smooth="yes"/>
      <point x="238" y="53"/>
      <point x="235" y="59"/>
      <point x="227" y="61" type="curve" smooth="yes"/>
      <point x="219" y="63"/>
      <point x="200" y="67"/>
      <point x="168" y="73" type="curve"/>
      <point x="239" y="644" type="line"/>
    </contour>
    <contour>
      <point x="164" y="841"/>
      <point x="163" y="848"/>
      <point x="161" y="855" type="curve" smooth="yes"/>
      <point x="159" y="862"/>
      <point x="155" y="867"/>
      <point x="151" y="872" type="curve" smooth="yes"/>
      <point x="147" y="877"/>
      <point x="141" y="881"/>
      <point x="135" y="884" type="curve" smooth="yes"/>
      <point x="129" y="887"/>
      <point x="122" y="889"/>
      <point x="114" y="889" type="curve" smooth="yes"/>
      <point x="107" y="889"/>
      <point x="100" y="887"/>
      <point x="93" y="884" type="curve" smooth="yes"/>
      <point x="86" y="881"/>
      <point x="80" y="877"/>
      <point x="74" y="872" type="curve" smooth="yes"/>
      <point x="68" y="867"/>
      <point x="64" y="862"/>
      <point x="60" y="855" type="curve" smooth="yes"/>
      <point x="56" y="848"/>
      <point x="54" y="841"/>
      <point x="53" y="833" type="curve" smooth="yes"/>
      <point x="52" y="826"/>
      <point x="53" y="818"/>
      <point x="55" y="812" type="curve" smooth="yes"/>
      <point x="57" y="806"/>
      <point x="61" y="800"/>
      <point x="65" y="795" type="curve" smooth="yes"/>
      <point x="69" y="790"/>
      <point x="74" y="786"/>
      <point x="80" y="783" type="curve" smooth="yes"/>
      <point x="86" y="780"/>
      <point x="93" y="779"/>
      <point x="100" y="779" type="curve" smooth="yes"/>
      <point x="108" y="779"/>
      <point x="115" y="780"/>
      <point x="122" y="783" type="curve" smooth="yes"/>
      <point x="129" y="786"/>
      <point x="136" y="790"/>
      <point x="142" y="795" type="curve" smooth="yes"/>
      <point x="148" y="800"/>
      <point x="152" y="806"/>
      <point x="156" y="812" type="curve" smooth="yes"/>
      <point x="160" y="818"/>
      <point x="162" y="826"/>
      <point x="163" y="833" type="curve" smooth="yes"/>
    </contour>
    <contour>
      <point x="377" y="841"/>
      <point x="376" y="848"/>
      <point x="374" y="855" type="curve" smooth="yes"/>
      <point x="372" y="862"/>
      <point x="368" y="867"/>
      <point x="364" y="872" type="curve" smooth="yes"/>
      <point x="360" y="877"/>
      <point x="354" y="881"/>
      <point x="348" y="884" type="curve" smooth="yes"/>
      <point x="342" y="887"/>
      <point x="335" y="889"/>
      <point x="328" y="889" type="curve" smooth="yes"/>
      <point x="320" y="889"/>
      <point x="313" y="887"/>
      <point x="306" y="884" type="curve" smooth="yes"/>
      <point x="299" y="881"/>
      <point x="293" y="877"/>
      <point x="287" y="872" type="curve" smooth="yes"/>
      <point x="281" y="867"/>
      <point x="277" y="862"/>
      <point x="273" y="855" type="curve" smooth="yes"/>
      <point x="269" y="848"/>
      <point x="267" y="841"/>
      <point x="266" y="833" type="curve" smooth="yes"/>
      <point x="265" y="826"/>
      <point x="265" y="818"/>
      <point x="267" y="812" type="curve" smooth="yes"/>
      <point x="269" y="806"/>
      <point x="273" y="800"/>
      <point x="277" y="795" type="curve" smooth="yes"/>
      <point x="281" y="790"/>
      <point x="287" y="786"/>
      <point x="293" y="783" type="curve" smooth="yes"/>
      <point x="299" y="780"/>
      <point x="306" y="779"/>
      <point x="314" y="779" type="curve" smooth="yes"/>
      <point x="321" y="779"/>
      <point x="329" y="780"/>
      <point x="336" y="783" type="curve" smooth="yes"/>
      <point x="343" y="786"/>
      <point x="349" y="790"/>
      <point x="355" y="795" type="curve" smooth="yes"/>
      <point x="361" y="800"/>
      <point x="365" y="806"/>
      <point x="369" y="812" type="curve" smooth="yes"/>
      <point x="373" y="818"/>
      <point x="375" y="826"/>
      <point x="376" y="833" type="curve" smooth="yes"/>
    </contour>
  </outline>
</glyph>
<glyph name="Eth" format="1">
  <advance width="738"/>
  <unicode hex="00D0"/>
  <note>
    Eth
  </note>
  <outline>
    <contour>
      <point x="700" y="549"/>
      <point x="681" y="587"/>
      <point x="654" y="618" type="curve" smooth="yes"/>
      <point x="627" y="650"/>
      <point x="592" y="674"/>
      <point x="551" y="691" type="curve" smooth="yes"/>
      <point x="510" y="708"/>
      <point x="463" y="716"/>
      <point x="410" y="716" type="curve" smooth="yes"/>
      <point x="152" y="716" type="line"/>
      <point x="79" y="716" type="line" smooth="yes"/>
      <point x="79" y="716"/>
      <point x="75" y="682"/>
      <point x="74" y="673" type="curve" smooth="yes"/>
      <point x="73" y="664"/>
      <point x="78" y="657"/>
      <point x="87" y="655" type="curve" smooth="yes"/>
      <point x="96" y="653"/>
      <point x="143" y="644"/>
      <point x="143" y="644" type="curve"/>
      <point x="112" y="390" type="line"/>
      <point x="13" y="390" type="line"/>
      <point x="6" y="333" type="line"/>
      <point x="105" y="333" type="line"/>
      <point x="73" y="73" type="line"/>
      <point x="73" y="73"/>
      <point x="23" y="64"/>
      <point x="14" y="62" type="curve" smooth="yes"/>
      <point x="5" y="60"/>
      <point x="-2" y="52"/>
      <point x="-3" y="43" type="curve" smooth="yes"/>
      <point x="-4" y="34"/>
      <point x="-8" y="0"/>
      <point x="-8" y="0" type="curve"/>
      <point x="64" y="0" type="line"/>
      <point x="322" y="0" type="line" smooth="yes"/>
      <point x="375" y="0"/>
      <point x="424" y="9"/>
      <point x="469" y="26" type="curve" smooth="yes"/>
      <point x="514" y="43"/>
      <point x="555" y="68"/>
      <point x="590" y="99" type="curve" smooth="yes"/>
      <point x="625" y="130"/>
      <point x="654" y="168"/>
      <point x="676" y="212" type="curve" smooth="yes"/>
      <point x="698" y="256"/>
      <point x="712" y="304"/>
      <point x="719" y="358" type="curve" smooth="yes"/>
      <point x="726" y="412"/>
      <point x="724" y="461"/>
      <point x="712" y="505" type="curve" smooth="yes"/>
    </contour>
    <contour>
      <point x="571" y="205"/>
      <point x="550" y="176"/>
      <point x="525" y="152" type="curve" smooth="yes"/>
      <point x="500" y="128"/>
      <point x="472" y="111"/>
      <point x="439" y="98" type="curve" smooth="yes"/>
      <point x="406" y="85"/>
      <point x="370" y="78"/>
      <point x="332" y="78" type="curve" smooth="yes"/>
      <point x="171" y="78" type="line"/>
      <point x="202" y="333" type="line"/>
      <point x="392" y="333" type="line"/>
      <point x="399" y="390" type="line"/>
      <point x="209" y="390" type="line"/>
      <point x="239" y="638" type="line"/>
      <point x="401" y="638" type="line" smooth="yes"/>
      <point x="439" y="638"/>
      <point x="473" y="632"/>
      <point x="503" y="619" type="curve" smooth="yes"/>
      <point x="533" y="606"/>
      <point x="557" y="588"/>
      <point x="576" y="564" type="curve" smooth="yes"/>
      <point x="595" y="540"/>
      <point x="608" y="511"/>
      <point x="616" y="476" type="curve" smooth="yes"/>
      <point x="624" y="441"/>
      <point x="625" y="402"/>
      <point x="620" y="358" type="curve" smooth="yes"/>
      <point x="615" y="314"/>
      <point x="603" y="275"/>
      <point x="587" y="240" type="curve" smooth="yes"/>
    </contour>
  </outline>
</glyph>
<glyph name="Ntilde" format="1">
  <advance width="776"/>
  <unicode hex="00D1"/>
  <note>
    Ntilde
  </note>
  <outline>
    <contour>
      <point x="232" y="700" type="line"/>
      <point x="227" y="707"/>
      <point x="223" y="711"/>
      <point x="219" y="713" type="curve" smooth="yes"/>
      <point x="215" y="715"/>
      <point x="209" y="716"/>
      <point x="200" y="716" type="curve" smooth="yes"/>
      <point x="78" y="716" type="line"/>
      <point x="73" y="674" type="line" smooth="yes"/>
      <point x="72" y="664"/>
      <point x="76" y="657"/>
      <point x="86" y="655" type="curve" smooth="yes"/>
      <point x="92" y="654"/>
      <point x="111" y="649"/>
      <point x="142" y="643" type="curve"/>
      <point x="71" y="73" type="line"/>
      <point x="13" y="61" type="line" smooth="yes"/>
      <point x="3" y="59"/>
      <point x="-3" y="53"/>
      <point x="-4" y="43" type="curve"/>
      <point x="-10" y="0" type="line"/>
      <point x="229" y="0" type="line"/>
      <point x="234" y="43" type="line" smooth="yes"/>
      <point x="235" y="53"/>
      <point x="232" y="59"/>
      <point x="222" y="61" type="curve" smooth="yes"/>
      <point x="217" y="62"/>
      <point x="195" y="66"/>
      <point x="156" y="73" type="curve"/>
      <point x="210" y="510" type="line" smooth="yes"/>
      <point x="212" y="524"/>
      <point x="213" y="540"/>
      <point x="214" y="557" type="curve"/>
      <point x="562" y="18" type="line" smooth="yes"/>
      <point x="570" y="6"/>
      <point x="580" y="0"/>
      <point x="594" y="0" type="curve" smooth="yes"/>
      <point x="644" y="0" type="line"/>
      <point x="723" y="644" type="line"/>
      <point x="781" y="655" type="line" smooth="yes"/>
      <point x="792" y="657"/>
      <point x="798" y="664"/>
      <point x="799" y="674" type="curve" smooth="yes"/>
      <point x="804" y="716" type="line"/>
      <point x="731" y="716" type="line"/>
      <point x="646" y="716" type="line"/>
      <point x="565" y="716" type="line"/>
      <point x="560" y="674" type="line" smooth="yes"/>
      <point x="559" y="664"/>
      <point x="562" y="657"/>
      <point x="572" y="655" type="curve" smooth="yes"/>
      <point x="577" y="654"/>
      <point x="600" y="650"/>
      <point x="638" y="643" type="curve"/>
      <point x="584" y="209" type="line" smooth="yes"/>
      <point x="582" y="191"/>
      <point x="581" y="174"/>
      <point x="581" y="160" type="curve"/>
    </contour>
    <contour>
      <point x="520" y="831"/>
      <point x="512" y="834"/>
      <point x="504" y="838" type="curve" smooth="yes"/>
      <point x="496" y="842"/>
      <point x="487" y="847"/>
      <point x="478" y="852" type="curve" smooth="yes"/>
      <point x="469" y="857"/>
      <point x="459" y="862"/>
      <point x="449" y="866" type="curve" smooth="yes"/>
      <point x="439" y="870"/>
      <point x="429" y="873"/>
      <point x="417" y="873" type="curve" smooth="yes"/>
      <point x="404" y="873"/>
      <point x="392" y="870"/>
      <point x="381" y="865" type="curve" smooth="yes"/>
      <point x="370" y="860"/>
      <point x="360" y="854"/>
      <point x="352" y="845" type="curve" smooth="yes"/>
      <point x="344" y="836"/>
      <point x="336" y="826"/>
      <point x="331" y="814" type="curve" smooth="yes"/>
      <point x="326" y="802"/>
      <point x="323" y="788"/>
      <point x="321" y="774" type="curve"/>
      <point x="371" y="774" type="line"/>
      <point x="373" y="786"/>
      <point x="377" y="796"/>
      <point x="384" y="803" type="curve" smooth="yes"/>
      <point x="391" y="810"/>
      <point x="400" y="813"/>
      <point x="411" y="813" type="curve" smooth="yes"/>
      <point x="419" y="813"/>
      <point x="428" y="811"/>
      <point x="436" y="807" type="curve" smooth="yes"/>
      <point x="444" y="803"/>
      <point x="453" y="798"/>
      <point x="462" y="793" type="curve" smooth="yes"/>
      <point x="471" y="788"/>
      <point x="481" y="782"/>
      <point x="491" y="778" type="curve" smooth="yes"/>
      <point x="501" y="774"/>
      <point x="511" y="772"/>
      <point x="523" y="772" type="curve" smooth="yes"/>
      <point x="536" y="772"/>
      <point x="549" y="774"/>
      <point x="560" y="779" type="curve" smooth="yes"/>
      <point x="571" y="784"/>
      <point x="580" y="791"/>
      <point x="588" y="800" type="curve" smooth="yes"/>
      <point x="596" y="809"/>
      <point x="603" y="819"/>
      <point x="608" y="831" type="curve" smooth="yes"/>
      <point x="613" y="843"/>
      <point x="616" y="856"/>
      <point x="618" y="870" type="curve"/>
      <point x="569" y="870" type="line"/>
      <point x="567" y="858"/>
      <point x="563" y="849"/>
      <point x="556" y="842" type="curve" smooth="yes"/>
      <point x="549" y="835"/>
      <point x="540" y="831"/>
      <point x="528" y="831" type="curve" smooth="yes"/>
    </contour>
  </outline>
</glyph>
<glyph name="Ograve" format="1">
  <advance width="742"/>
  <unicode hex="00D2"/>
  <note>
    Ograve
  </note>
  <outline>
    <contour>
      <point x="731" y="412"/>
      <point x="727" y="461"/>
      <point x="716" y="506" type="curve" smooth="yes"/>
      <point x="705" y="551"/>
      <point x="685" y="589"/>
      <point x="658" y="622" type="curve" smooth="yes"/>
      <point x="631" y="654"/>
      <point x="597" y="680"/>
      <point x="556" y="698" type="curve" smooth="yes"/>
      <point x="515" y="716"/>
      <point x="468" y="724"/>
      <point x="415" y="724" type="curve" smooth="yes"/>
      <point x="362" y="724"/>
      <point x="314" y="716"/>
      <point x="268" y="698" type="curve" smooth="yes"/>
      <point x="222" y="680"/>
      <point x="182" y="654"/>
      <point x="147" y="622" type="curve" smooth="yes"/>
      <point x="112" y="590"/>
      <point x="84" y="551"/>
      <point x="61" y="506" type="curve" smooth="yes"/>
      <point x="38" y="461"/>
      <point x="24" y="412"/>
      <point x="17" y="358" type="curve" smooth="yes"/>
      <point x="10" y="304"/>
      <point x="13" y="255"/>
      <point x="24" y="210" type="curve" smooth="yes"/>
      <point x="35" y="165"/>
      <point x="55" y="126"/>
      <point x="82" y="94" type="curve" smooth="yes"/>
      <point x="109" y="62"/>
      <point x="144" y="37"/>
      <point x="185" y="19" type="curve" smooth="yes"/>
      <point x="226" y="1"/>
      <point x="272" y="-8"/>
      <point x="325" y="-8" type="curve" smooth="yes"/>
      <point x="378" y="-8"/>
      <point x="427" y="1"/>
      <point x="473" y="19" type="curve" smooth="yes"/>
      <point x="519" y="37"/>
      <point x="559" y="62"/>
      <point x="594" y="94" type="curve" smooth="yes"/>
      <point x="629" y="126"/>
      <point x="657" y="165"/>
      <point x="680" y="210" type="curve" smooth="yes"/>
      <point x="703" y="255"/>
      <point x="717" y="304"/>
      <point x="724" y="358" type="curve" smooth="yes"/>
    </contour>
    <contour>
      <point x="619" y="314"/>
      <point x="608" y="275"/>
      <point x="592" y="240" type="curve" smooth="yes"/>
      <point x="576" y="205"/>
      <point x="555" y="175"/>
      <point x="530" y="151" type="curve" smooth="yes"/>
      <point x="505" y="127"/>
      <point x="476" y="109"/>
      <point x="443" y="96" type="curve" smooth="yes"/>
      <point x="410" y="83"/>
      <point x="375" y="76"/>
      <point x="336" y="76" type="curve" smooth="yes"/>
      <point x="298" y="76"/>
      <point x="263" y="83"/>
      <point x="233" y="96" type="curve" smooth="yes"/>
      <point x="203" y="109"/>
      <point x="179" y="127"/>
      <point x="160" y="151" type="curve" smooth="yes"/>
      <point x="141" y="175"/>
      <point x="128" y="205"/>
      <point x="120" y="240" type="curve" smooth="yes"/>
      <point x="112" y="275"/>
      <point x="111" y="314"/>
      <point x="116" y="358" type="curve" smooth="yes"/>
      <point x="121" y="402"/>
      <point x="133" y="441"/>
      <point x="149" y="476" type="curve" smooth="yes"/>
      <point x="165" y="511"/>
      <point x="186" y="541"/>
      <point x="211" y="565" type="curve" smooth="yes"/>
      <point x="236" y="589"/>
      <point x="265" y="608"/>
      <point x="298" y="621" type="curve" smooth="yes"/>
      <point x="331" y="634"/>
      <point x="367" y="640"/>
      <point x="405" y="640" type="curve" smooth="yes"/>
      <point x="444" y="640"/>
      <point x="477" y="634"/>
      <point x="507" y="621" type="curve" smooth="yes"/>
      <point x="537" y="608"/>
      <point x="562" y="589"/>
      <point x="581" y="565" type="curve" smooth="yes"/>
      <point x="600" y="541"/>
      <point x="613" y="511"/>
      <point x="621" y="476" type="curve" smooth="yes"/>
      <point x="629" y="441"/>
      <point x="629" y="402"/>
      <point x="624" y="358" type="curve" smooth="yes"/>
    </contour>
    <contour>
      <point x="256" y="891" type="line"/>
      <point x="390" y="782" type="line" smooth="yes"/>
      <point x="395" y="778"/>
      <point x="400" y="776"/>
      <point x="404" y="775" type="curve" smooth="yes"/>
      <point x="408" y="774"/>
      <point x="413" y="773"/>
      <point x="420" y="773" type="curve" smooth="yes"/>
      <point x="490" y="773" type="line"/>
      <point x="397" y="874" type="line"/>
      <point x="391" y="881"/>
      <point x="385" y="886"/>
      <point x="380" y="888" type="curve" smooth="yes"/>
      <point x="375" y="890"/>
      <point x="368" y="891"/>
      <point x="357" y="891" type="curve" smooth="yes"/>
    </contour>
  </outline>
</glyph>
<glyph name="Odieresis" format="1">
  <advance width="742"/>
  <unicode hex="00D6"/>
  <note>
    Odieresis
  </note>
  <outline>
    <contour>
      <point x="731" y="412"/>
      <point x="727" y="461"/>
      <point x="716" y="506" type="curve" smooth="yes"/>
      <point x="705" y="551"/>
      <point x="685" y="589"/>
      <point x="658" y="622" type="curve" smooth="yes"/>
      <point x="631" y="654"/>
      <point x="597" y="680"/>
      <point x="556" y="698" type="curve" smooth="yes"/>
      <point x="515" y="716"/>
      <point x="468" y="724"/>
      <point x="415" y="724" type="curve" smooth="yes"/>
      <point x="362" y="724"/>
      <point x="314" y="716"/>
      <point x="268" y="698" type="curve" smooth="yes"/>
      <point x="222" y="680"/>
      <point x="182" y="654"/>
      <point x="147" y="622" type="curve" smooth="yes"/>
      <point x="112" y="590"/>
      <point x="84" y="551"/>
      <point x="61" y="506" type="curve" smooth="yes"/>
      <point x="38" y="461"/>
      <point x="24" y="412"/>
      <point x="17" y="358" type="curve" smooth="yes"/>
      <point x="10" y="304"/>
      <point x="13" y="255"/>
      <point x="24" y="210" type="curve" smooth="yes"/>
      <point x="35" y="165"/>
      <point x="55" y="126"/>
      <point x="82" y="94" type="curve" smooth="yes"/>
      <point x="109" y="62"/>
      <point x="144" y="37"/>
      <point x="185" y="19" type="curve" smooth="yes"/>
      <point x="226" y="1"/>
      <point x="272" y="-8"/>
      <point x="325" y="-8" type="curve" smooth="yes"/>
      <point x="378" y="-8"/>
      <point x="427" y="1"/>
      <point x="473" y="19" type="curve" smooth="yes"/>
      <point x="519" y="37"/>
      <point x="559" y="62"/>
      <point x="594" y="94" type="curve" smooth="yes"/>
      <point x="629" y="126"/>
      <point x="657" y="165"/>
      <point x="680" y="210" type="curve" smooth="yes"/>
      <point x="703" y="255"/>
      <point x="717" y="304"/>
      <point x="724" y="358" type="curve" smooth="yes"/>
    </contour>
    <contour>
      <point x="619" y="314"/>
      <point x="608" y="275"/>
      <point x="592" y="240" type="curve" smooth="yes"/>
      <point x="576" y="205"/>
      <point x="555" y="175"/>
      <point x="530" y="151" type="curve" smooth="yes"/>
      <point x="505" y="127"/>
      <point x="476" y="109"/>
      <point x="443" y="96" type="curve" smooth="yes"/>
      <point x="410" y="83"/>
      <point x="375" y="76"/>
      <point x="336" y="76" type="curve" smooth="yes"/>
      <point x="298" y="76"/>
      <point x="263" y="83"/>
      <point x="233" y="96" type="curve" smooth="yes"/>
      <point x="203" y="109"/>
      <point x="179" y="127"/>
      <point x="160" y="151" type="curve" smooth="yes"/>
      <point x="141" y="175"/>
      <point x="128" y="205"/>
      <point x="120" y="240" type="curve" smooth="yes"/>
      <point x="112" y="275"/>
      <point x="111" y="314"/>
      <point x="116" y="358" type="curve" smooth="yes"/>
      <point x="121" y="402"/>
      <point x="133" y="441"/>
      <point x="149" y="476" type="curve" smooth="yes"/>
      <point x="165" y="511"/>
      <point x="186" y="541"/>
      <point x="211" y="565" type="curve" smooth="yes"/>
      <point x="236" y="589"/>
      <point x="265" y="608"/>
      <point x="298" y="621" type="curve" smooth="yes"/>
      <point x="331" y="634"/>
      <point x="367" y="640"/>
      <point x="405" y="640" type="curve" smooth="yes"/>
      <point x="444" y="640"/>
      <point x="477" y="634"/>
      <point x="507" y="621" type="curve" smooth="yes"/>
      <point x="537" y="608"/>
      <point x="562" y="589"/>
      <point x="581" y="565" type="curve" smooth="yes"/>
      <point x="600" y="541"/>
      <point x="613" y="511"/>
      <point x="621" y="476" type="curve" smooth="yes"/>
      <point x="629" y="441"/>
      <point x="629" y="402"/>
      <point x="624" y="358" type="curve" smooth="yes"/>
    </contour>
    <contour>
      <point x="379" y="841"/>
      <point x="379" y="848"/>
      <point x="377" y="855" type="curve" smooth="yes"/>
      <point x="375" y="862"/>
      <point x="371" y="867"/>
      <point x="367" y="872" type="curve" smooth="yes"/>
      <point x="363" y="877"/>
      <point x="356" y="881"/>
      <point x="350" y="884" type="curve" smooth="yes"/>
      <point x="344" y="887"/>
      <point x="337" y="889"/>
      <point x="329" y="889" type="curve" smooth="yes"/>
      <point x="322" y="889"/>
      <point x="315" y="887"/>
      <point x="308" y="884" type="curve" smooth="yes"/>
      <point x="301" y="881"/>
      <point x="296" y="877"/>
      <point x="290" y="872" type="curve" smooth="yes"/>
      <point x="284" y="867"/>
      <point x="280" y="862"/>
      <point x="276" y="855" type="curve" smooth="yes"/>
      <point x="272" y="848"/>
      <point x="269" y="841"/>
      <point x="268" y="833" type="curve" smooth="yes"/>
      <point x="267" y="826"/>
      <point x="268" y="818"/>
      <point x="270" y="812" type="curve" smooth="yes"/>
      <point x="272" y="806"/>
      <point x="276" y="800"/>
      <point x="280" y="795" type="curve" smooth="yes"/>
      <point x="284" y="790"/>
      <point x="290" y="786"/>
      <point x="296" y="783" type="curve" smooth="yes"/>
      <point x="302" y="780"/>
      <point x="309" y="779"/>
      <point x="316" y="779" type="curve" smooth="yes"/>
      <point x="324" y="779"/>
      <point x="331" y="780"/>
      <point x="338" y="783" type="curve" smooth="yes"/>
      <point x="345" y="786"/>
      <point x="351" y="790"/>
      <point x="357" y="795" type="curve" smooth="yes"/>
      <point x="363" y="800"/>
      <point x="367" y="806"/>
      <point x="371" y="812" type="curve" smooth="yes"/>
      <point x="375" y="818"/>
      <point x="377" y="826"/>
      <point x="378" y="833" type="curve" smooth="yes"/>
    </contour>
    <contour>
      <point x="592" y="841"/>
      <point x="592" y="848"/>
      <point x="590" y="855" type="curve" smooth="yes"/>
      <point x="588" y="862"/>
      <point x="584" y="867"/>
      <point x="580" y="872" type="curve" smooth="yes"/>
      <point x="576" y="877"/>
      <point x="570" y="881"/>
      <point x="564" y="884" type="curve" smooth="yes"/>
      <point x="558" y="887"/>
      <point x="550" y="889"/>
      <point x="543" y="889" type="curve" smooth="yes"/>
      <point x="535" y="889"/>
      <point x="528" y="887"/>
      <point x="521" y="884" type="curve" smooth="yes"/>
      <point x="514" y="881"/>
      <point x="508" y="877"/>
      <point x="502" y="872" type="curve" smooth="yes"/>
      <point x="496" y="867"/>
      <point x="492" y="862"/>
      <point x="488" y="855" type="curve" smooth="yes"/>
      <point x="484" y="848"/>
      <point x="482" y="841"/>
      <point x="481" y="833" type="curve" smooth="yes"/>
      <point x="480" y="826"/>
      <point x="481" y="818"/>
      <point x="483" y="812" type="curve" smooth="yes"/>
      <point x="485" y="806"/>
      <point x="489" y="800"/>
      <point x="493" y="795" type="curve" smooth="yes"/>
      <point x="497" y="790"/>
      <point x="503" y="786"/>
      <point x="509" y="783" type="curve" smooth="yes"/>
      <point x="515" y="780"/>
      <point x="522" y="779"/>
      <point x="530" y="779" type="curve" smooth="yes"/>
      <point x="537" y="779"/>
      <point x="544" y="780"/>
      <point x="551" y="783" type="curve" smooth="yes"/>
      <point x="558" y="786"/>
      <point x="564" y="790"/>
      <point x="570" y="795" type="curve" smooth="yes"/>
      <point x="576" y="800"/>
      <point x="580" y="806"/>
      <point x="584" y="812" type="curve" smooth="yes"/>
      <point x="588" y="818"/>
      <point x="590" y="826"/>
      <point x="591" y="833" type="curve" smooth="yes"/>
    </contour>
  </outline>
</glyph>
<glyph name="Udieresis" format="1">
  <advance width="728"/>
  <unicode hex="00DC"/>
  <note>
    Udieresis
  </note>
  <outline>
    <contour>
      <point x="684" y="716" type="line"/>
      <point x="587" y="716" type="line"/>
      <point x="506" y="716" type="line"/>
      <point x="501" y="674" type="line" smooth="yes"/>
      <point x="500" y="664"/>
      <point x="504" y="657"/>
      <point x="514" y="655" type="curve" smooth="yes"/>
      <point x="519" y="654"/>
      <point x="541" y="651"/>
      <point x="579" y="644" type="curve"/>
      <point x="534" y="281" type="line" smooth="yes"/>
      <point x="527" y="220"/>
      <point x="504" y="171"/>
      <point x="466" y="134" type="curve" smooth="yes"/>
      <point x="427" y="96"/>
      <point x="378" y="77"/>
      <point x="320" y="77" type="curve" smooth="yes"/>
      <point x="262" y="77"/>
      <point x="219" y="96"/>
      <point x="189" y="134" type="curve" smooth="yes"/>
      <point x="160" y="171"/>
      <point x="150" y="221"/>
      <point x="157" y="282" type="curve" smooth="yes"/>
      <point x="201" y="644" type="line"/>
      <point x="241" y="651"/>
      <point x="264" y="654"/>
      <point x="269" y="655" type="curve" smooth="yes"/>
      <point x="280" y="657"/>
      <point x="286" y="664"/>
      <point x="287" y="674" type="curve" smooth="yes"/>
      <point x="292" y="716" type="line"/>
      <point x="41" y="716" type="line"/>
      <point x="36" y="674" type="line" smooth="yes"/>
      <point x="35" y="664"/>
      <point x="39" y="657"/>
      <point x="49" y="655" type="curve" smooth="yes"/>
      <point x="55" y="654"/>
      <point x="74" y="650"/>
      <point x="105" y="644" type="curve"/>
      <point x="60" y="281" type="line" smooth="yes"/>
      <point x="50" y="197"/>
      <point x="67" y="128"/>
      <point x="111" y="74" type="curve" smooth="yes"/>
      <point x="157" y="19"/>
      <point x="223" y="-8"/>
      <point x="310" y="-8" type="curve" smooth="yes"/>
      <point x="397" y="-8"/>
      <point x="470" y="19"/>
      <point x="529" y="74" type="curve" smooth="yes"/>
      <point x="586" y="128"/>
      <point x="621" y="197"/>
      <point x="631" y="281" type="curve" smooth="yes"/>
      <point x="675" y="644" type="line"/>
      <point x="733" y="655" type="line" smooth="yes"/>
      <point x="744" y="657"/>
      <point x="750" y="664"/>
      <point x="751" y="674" type="curve" smooth="yes"/>
      <point x="756" y="716" type="line"/>
    </contour>
    <contour>
      <point x="363" y="841"/>
      <point x="362" y="848"/>
      <point x="360" y="855" type="curve" smooth="yes"/>
      <point x="358" y="862"/>
      <point x="354" y="867"/>
      <point x="350" y="872" type="curve" smooth="yes"/>
      <point x="346" y="877"/>
      <point x="340" y="881"/>
      <point x="334" y="884" type="curve" smooth="yes"/>
      <point x="328" y="887"/>
      <point x="321" y="889"/>
      <point x="313" y="889" type="curve" smooth="yes"/>
      <point x="306" y="889"/>
      <point x="299" y="887"/>
      <point x="292" y="884" type="curve" smooth="yes"/>
      <point x="285" y="881"/>
      <point x="279" y="877"/>
      <point x="273" y="872" type="curve" smooth="yes"/>
      <point x="267" y="867"/>
      <point x="263" y="862"/>
      <point x="259" y="855" type="curve" smooth="yes"/>
      <point x="255" y="848"/>
      <point x="253" y="841"/>
      <point x="252" y="833" type="curve" smooth="yes"/>
      <point x="251" y="826"/>
      <point x="252" y="818"/>
      <point x="254" y="812" type="curve" smooth="yes"/>
      <point x="256" y="806"/>
      <point x="260" y="800"/>
      <point x="264" y="795" type="curve" smooth="yes"/>
      <point x="268" y="790"/>
      <point x="273" y="786"/>
      <point x="279" y="783" type="curve" smooth="yes"/>
      <point x="285" y="780"/>
      <point x="292" y="779"/>
      <point x="299" y="779" type="curve" smooth="yes"/>
      <point x="307" y="779"/>
      <point x="314" y="780"/>
      <point x="321" y="783" type="curve" smooth="yes"/>
      <point x="328" y="786"/>
      <point x="335" y="790"/>
      <point x="341" y="795" type="curve" smooth="yes"/>
      <point x="347" y="800"/>
      <point x="351" y="806"/>
      <point x="355" y="812" type="curve" smooth="yes"/>
      <point x="359" y="818"/>
      <point x="361" y="826"/>
      <point x="362" y="833" type="curve" smooth="yes"/>
    </contour>
    <contour>
      <point x="576" y="841"/>
      <point x="575" y="848"/>
      <point x="573" y="855" type="curve" smooth="yes"/>
      <point x="571" y="862"/>
      <point x="567" y="867"/>
      <point x="563" y="872" type="curve" smooth="yes"/>
      <point x="559" y="877"/>
      <point x="553" y="881"/>
      <point x="547" y="884" type="curve" smooth="yes"/>
      <point x="541" y="887"/>
      <point x="534" y="889"/>
      <point x="527" y="889" type="curve" smooth="yes"/>
      <point x="519" y="889"/>
      <point x="512" y="887"/>
      <point x="505" y="884" type="curve" smooth="yes"/>
      <point x="498" y="881"/>
      <point x="492" y="877"/>
      <point x="486" y="872" type="curve" smooth="yes"/>
      <point x="480" y="867"/>
      <point x="476" y="862"/>
      <point x="472" y="855" type="curve" smooth="yes"/>
      <point x="468" y="848"/>
      <point x="466" y="841"/>
      <point x="465" y="833" type="curve" smooth="yes"/>
      <point x="464" y="826"/>
      <point x="465" y="818"/>
      <point x="467" y="812" type="curve" smooth="yes"/>
      <point x="469" y="806"/>
      <point x="472" y="800"/>
      <point x="476" y="795" type="curve" smooth="yes"/>
      <point x="480" y="790"/>
      <point x="486" y="786"/>
      <point x="492" y="783" type="curve" smooth="yes"/>
      <point x="498" y="780"/>
      <point x="505" y="779"/>
      <point x="513" y="779" type="curve" smooth="yes"/>
      <point x="520" y="779"/>
      <point x="528" y="780"/>
      <point x="535" y="783" type="curve" smooth="yes"/>
      <point x="542" y="786"/>
      <point x="548" y="790"/>
      <point x="554" y="795" type="curve" smooth="yes"/>
      <point x="560" y="800"/>
      <point x="564" y="806"/>
      <point x="568" y="812" type="curve" smooth="yes"/>
      <point x="572" y="818"/>
      <point x="574" y="826"/>
      <point x="575" y="833" type="curve" smooth="yes"/>
    </contour>
  </outline>
</glyph>
<glyph name="Yacute" format="1">
  <advance width="651"/>
  <unicode hex="00DD"/>
  <note>
    Yacute
  </note>
  <outline>
    <contour>
      <point x="438" y="716" type="line"/>
      <point x="432" y="674" type="line"/>
      <point x="431" y="664"/>
      <point x="435" y="657"/>
      <point x="445" y="655" type="curve" smooth="yes"/>
      <point x="478" y="648"/>
      <point x="497" y="645"/>
      <point x="501" y="644" type="curve"/>
      <point x="339" y="416" type="line" smooth="yes"/>
      <point x="327" y="399"/>
      <point x="314" y="377"/>
      <point x="302" y="352" type="curve"/>
      <point x="296" y="376"/>
      <point x="289" y="397"/>
      <point x="281" y="416" type="curve"/>
      <point x="175" y="644" type="line"/>
      <point x="179" y="645"/>
      <point x="198" y="648"/>
      <point x="233" y="655" type="curve" smooth="yes"/>
      <point x="244" y="657"/>
      <point x="250" y="664"/>
      <point x="251" y="674" type="curve" smooth="yes"/>
      <point x="256" y="716" type="line"/>
      <point x="15" y="716" type="line"/>
      <point x="10" y="674" type="line" smooth="yes"/>
      <point x="9" y="664"/>
      <point x="12" y="657"/>
      <point x="21" y="655" type="curve" smooth="yes"/>
      <point x="30" y="653"/>
      <point x="47" y="650"/>
      <point x="71" y="644" type="curve"/>
      <point x="245" y="285" type="line"/>
      <point x="219" y="73" type="line"/>
      <point x="161" y="62" type="line" smooth="yes"/>
      <point x="151" y="60"/>
      <point x="144" y="53"/>
      <point x="143" y="43" type="curve" smooth="yes"/>
      <point x="138" y="0" type="line"/>
      <point x="210" y="0" type="line"/>
      <point x="307" y="0" type="line"/>
      <point x="379" y="0" type="line"/>
      <point x="384" y="43" type="line" smooth="yes"/>
      <point x="385" y="53"/>
      <point x="381" y="60"/>
      <point x="371" y="62" type="curve" smooth="yes"/>
      <point x="338" y="69"/>
      <point x="321" y="72"/>
      <point x="316" y="73" type="curve"/>
      <point x="342" y="285" type="line"/>
      <point x="604" y="644" type="line"/>
      <point x="658" y="656" type="line" smooth="yes"/>
      <point x="667" y="658"/>
      <point x="672" y="664"/>
      <point x="673" y="674" type="curve"/>
      <point x="679" y="716" type="line"/>
    </contour>
    <contour>
      <point x="538" y="891" type="line"/>
      <point x="438" y="891" type="line" smooth="yes"/>
      <point x="432" y="891"/>
      <point x="428" y="890"/>
      <point x="424" y="890" type="curve" smooth="yes"/>
      <point x="420" y="890"/>
      <point x="417" y="889"/>
      <point x="414" y="888" type="curve" smooth="yes"/>
      <point x="411" y="887"/>
      <point x="407" y="884"/>
      <point x="404" y="882" type="curve" smooth="yes"/>
      <point x="401" y="880"/>
      <point x="398" y="877"/>
      <point x="394" y="874" type="curve"/>
      <point x="276" y="773" type="line"/>
      <point x="345" y="773" type="line" smooth="yes"/>
      <point x="352" y="773"/>
      <point x="358" y="774"/>
      <point x="362" y="775" type="curve" smooth="yes"/>
      <point x="366" y="776"/>
      <point x="372" y="779"/>
      <point x="378" y="783" type="curve" smooth="yes"/>
    </contour>
  </outline>
</glyph>
<glyph name="aacute" format="1">
  <advance width="511"/>
  <unicode hex="00E1"/>
  <note>
    aacute
  </note>
  <outline>
    <contour>
      <point x="388" y="1" type="line"/>
      <point x="469" y="1" type="line"/>
      <point x="469" y="44" type="line" smooth="yes"/>
      <point x="469" y="53"/>
      <point x="463" y="61"/>
      <point x="454" y="63" type="curve" smooth="yes"/>
      <point x="446" y="65"/>
      <point x="400" y="73"/>
      <point x="397" y="74" type="curve"/>
      <point x="448" y="491" type="line"/>
      <point x="412" y="507"/>
      <point x="373" y="514"/>
      <point x="324" y="514" type="curve" smooth="yes"/>
      <point x="221" y="514"/>
      <point x="148" y="467"/>
      <point x="97" y="411" type="curve" smooth="yes"/>
      <point x="46" y="355"/>
      <point x="4" y="276"/>
      <point x="4" y="172" type="curve" smooth="yes"/>
      <point x="4" y="75"/>
      <point x="41" y="-6"/>
      <point x="136" y="-6" type="curve" smooth="yes"/>
      <point x="154" y="-6"/>
      <point x="172" y="-3"/>
      <point x="189" y="4" type="curve" smooth="yes"/>
      <point x="249" y="27"/>
      <point x="290" y="78"/>
      <point x="321" y="133" type="curve"/>
      <point x="312" y="32" type="line"/>
      <point x="312" y="12"/>
      <point x="321" y="1"/>
      <point x="342" y="1" type="curve" smooth="yes"/>
    </contour>
    <contour>
      <point x="334" y="268" type="line"/>
      <point x="317" y="214"/>
      <point x="292" y="163"/>
      <point x="262" y="125" type="curve" smooth="yes"/>
      <point x="241" y="98"/>
      <point x="211" y="68"/>
      <point x="170" y="68" type="curve" smooth="yes"/>
      <point x="119" y="68"/>
      <point x="93" y="108"/>
      <point x="93" y="188" type="curve" smooth="yes"/>
      <point x="93" y="266"/>
      <point x="122" y="326"/>
      <point x="158" y="370" type="curve" smooth="yes"/>
      <point x="192" y="411"/>
      <point x="241" y="448"/>
      <point x="312" y="448" type="curve" smooth="yes"/>
      <point x="334" y="448" type="line" smooth="yes"/>
      <point x="341" y="448"/>
      <point x="348" y="446"/>
      <point x="355" y="440" type="curve"/>
    </contour>
    <contour>
      <point x="429" y="724" type="line"/>
      <point x="342" y="724" type="line" smooth="yes"/>
      <point x="331" y="724"/>
      <point x="323" y="723"/>
      <point x="317" y="719" type="curve"/>
      <point x="311" y="716"/>
      <point x="306" y="710"/>
      <point x="300" y="702" type="curve" smooth="yes"/>
      <point x="211" y="582" type="line"/>
      <point x="264" y="582" type="line" smooth="yes"/>
      <point x="271" y="582"/>
      <point x="276" y="583"/>
      <point x="281" y="585" type="curve" smooth="yes"/>
      <point x="286" y="587"/>
      <point x="291" y="591"/>
      <point x="296" y="596" type="curve" smooth="yes"/>
    </contour>
  </outline>
</glyph>
<glyph name="ae" format="1">
  <advance width="717"/>
  <unicode hex="00E6"/>
  <note>
    ae
  </note>
  <outline>
    <contour>
      <point x="511" y="513"/>
      <point x="478" y="506"/>
      <point x="449" y="490" type="curve" smooth="yes"/>
      <point x="420" y="474"/>
      <point x="395" y="452"/>
      <point x="375" y="424" type="curve"/>
      <point x="368" y="452"/>
      <point x="354" y="475"/>
      <point x="334" y="491" type="curve" smooth="yes"/>
      <point x="314" y="507"/>
      <point x="285" y="515"/>
      <point x="249" y="515" type="curve" smooth="yes"/>
      <point x="214" y="515"/>
      <point x="183" y="508"/>
      <point x="153" y="495" type="curve" smooth="yes"/>
      <point x="123" y="482"/>
      <point x="94" y="461"/>
      <point x="65" y="434" type="curve"/>
      <point x="77" y="407" type="line"/>
      <point x="79" y="402"/>
      <point x="82" y="399"/>
      <point x="86" y="396" type="curve" smooth="yes"/>
      <point x="90" y="393"/>
      <point x="95" y="391"/>
      <point x="101" y="391" type="curve" smooth="yes"/>
      <point x="108" y="391"/>
      <point x="116" y="394"/>
      <point x="124" y="399" type="curve" smooth="yes"/>
      <point x="132" y="404"/>
      <point x="142" y="411"/>
      <point x="152" y="418" type="curve"/>
      <point x="163" y="425"/>
      <point x="175" y="431"/>
      <point x="189" y="436" type="curve" smooth="yes"/>
      <point x="203" y="441"/>
      <point x="220" y="444"/>
      <point x="240" y="444" type="curve" smooth="yes"/>
      <point x="291" y="444"/>
      <point x="317" y="414"/>
      <point x="317" y="354" type="curve" smooth="yes"/>
      <point x="317" y="347" type="line" smooth="yes"/>
      <point x="317" y="344"/>
      <point x="316" y="341"/>
      <point x="316" y="336" type="curve" smooth="yes"/>
      <point x="316" y="331"/>
      <point x="315" y="326"/>
      <point x="314" y="319" type="curve" smooth="yes"/>
      <point x="313" y="312"/>
      <point x="312" y="303"/>
      <point x="311" y="293" type="curve"/>
      <point x="254" y="293"/>
      <point x="206" y="287"/>
      <point x="167" y="277" type="curve" smooth="yes"/>
      <point x="128" y="267"/>
      <point x="96" y="254"/>
      <point x="72" y="237" type="curve" smooth="yes"/>
      <point x="48" y="220"/>
      <point x="31" y="201"/>
      <point x="20" y="180" type="curve" smooth="yes"/>
      <point x="9" y="159"/>
      <point x="4" y="136"/>
      <point x="4" y="112" type="curve" smooth="yes"/>
      <point x="4" y="72"/>
      <point x="16" y="42"/>
      <point x="40" y="22" type="curve" smooth="yes"/>
      <point x="64" y="2"/>
      <point x="99" y="-8"/>
      <point x="143" y="-8" type="curve" smooth="yes"/>
      <point x="159" y="-8"/>
      <point x="176" y="-6"/>
      <point x="194" y="-2" type="curve" smooth="yes"/>
      <point x="212" y="2"/>
      <point x="228" y="9"/>
      <point x="245" y="18" type="curve" smooth="yes"/>
      <point x="262" y="27"/>
      <point x="278" y="40"/>
      <point x="293" y="54" type="curve" smooth="yes"/>
      <point x="308" y="68"/>
      <point x="320" y="86"/>
      <point x="331" y="107" type="curve"/>
      <point x="344" y="69"/>
      <point x="363" y="41"/>
      <point x="390" y="22" type="curve" smooth="yes"/>
      <point x="416" y="3"/>
      <point x="447" y="-7"/>
      <point x="482" y="-7" type="curve" smooth="yes"/>
      <point x="503" y="-7"/>
      <point x="524" y="-5"/>
      <point x="542" y="-1" type="curve" smooth="yes"/>
      <point x="561" y="3"/>
      <point x="578" y="9"/>
      <point x="595" y="17" type="curve" smooth="yes"/>
      <point x="612" y="25"/>
      <point x="629" y="36"/>
      <point x="645" y="49" type="curve" smooth="yes"/>
      <point x="661" y="62"/>
      <point x="678" y="77"/>
      <point x="695" y="94" type="curve"/>
      <point x="673" y="121" type="line" smooth="yes"/>
      <point x="668" y="127"/>
      <point x="663" y="130"/>
      <point x="656" y="130" type="curve" smooth="yes"/>
      <point x="651" y="130"/>
      <point x="645" y="128"/>
      <point x="640" y="125" type="curve" smooth="yes"/>
      <point x="635" y="122"/>
      <point x="629" y="117"/>
      <point x="623" y="112" type="curve" smooth="yes"/>
      <point x="617" y="107"/>
      <point x="610" y="102"/>
      <point x="602" y="96" type="curve"/>
      <point x="595" y="90"/>
      <point x="586" y="85"/>
      <point x="576" y="80" type="curve" smooth="yes"/>
      <point x="566" y="75"/>
      <point x="556" y="71"/>
      <point x="543" y="68" type="curve" smooth="yes"/>
      <point x="531" y="65"/>
      <point x="515" y="63"/>
      <point x="499" y="63" type="curve" smooth="yes"/>
      <point x="463" y="63"/>
      <point x="435" y="76"/>
      <point x="415" y="102" type="curve" smooth="yes"/>
      <point x="395" y="128"/>
      <point x="385" y="167"/>
      <point x="385" y="219" type="curve" smooth="yes"/>
      <point x="385" y="229" type="line"/>
      <point x="385" y="239" type="line"/>
      <point x="444" y="239"/>
      <point x="494" y="244"/>
      <point x="533" y="253" type="curve" smooth="yes"/>
      <point x="572" y="262"/>
      <point x="602" y="274"/>
      <point x="625" y="288" type="curve" smooth="yes"/>
      <point x="648" y="302"/>
      <point x="664" y="318"/>
      <point x="673" y="336" type="curve" smooth="yes"/>
      <point x="682" y="354"/>
      <point x="687" y="373"/>
      <point x="687" y="392" type="curve" smooth="yes"/>
      <point x="687" y="409"/>
      <point x="683" y="425"/>
      <point x="676" y="440" type="curve" smooth="yes"/>
      <point x="669" y="455"/>
      <point x="659" y="467"/>
      <point x="647" y="478" type="curve" smooth="yes"/>
      <point x="635" y="489"/>
      <point x="620" y="498"/>
      <point x="603" y="504" type="curve" smooth="yes"/>
      <point x="586" y="510"/>
      <point x="568" y="513"/>
      <point x="548" y="513" type="curve" smooth="yes"/>
    </contour>
    <contour>
      <point x="300" y="200" type="line" smooth="yes"/>
      <point x="297" y="175"/>
      <point x="291" y="153"/>
      <point x="282" y="135" type="curve" smooth="yes"/>
      <point x="273" y="117"/>
      <point x="262" y="101"/>
      <point x="250" y="89" type="curve"/>
      <point x="237" y="77"/>
      <point x="223" y="68"/>
      <point x="208" y="62" type="curve" smooth="yes"/>
      <point x="192" y="56"/>
      <point x="176" y="52"/>
      <point x="159" y="52" type="curve" smooth="yes"/>
      <point x="137" y="52"/>
      <point x="120" y="58"/>
      <point x="107" y="70" type="curve" smooth="yes"/>
      <point x="94" y="82"/>
      <point x="88" y="100"/>
      <point x="88" y="124" type="curve" smooth="yes"/>
      <point x="88" y="141"/>
      <point x="92" y="155"/>
      <point x="99" y="169" type="curve"/>
      <point x="107" y="183"/>
      <point x="119" y="195"/>
      <point x="136" y="205" type="curve" smooth="yes"/>
      <point x="153" y="215"/>
      <point x="175" y="223"/>
      <point x="203" y="229" type="curve" smooth="yes"/>
      <point x="231" y="235"/>
      <point x="265" y="238"/>
      <point x="305" y="238" type="curve"/>
    </contour>
    <contour>
      <point x="560" y="450"/>
      <point x="578" y="444"/>
      <point x="590" y="433" type="curve" smooth="yes"/>
      <point x="602" y="422"/>
      <point x="609" y="406"/>
      <point x="609" y="387" type="curve" smooth="yes"/>
      <point x="609" y="375"/>
      <point x="606" y="364"/>
      <point x="599" y="353" type="curve" smooth="yes"/>
      <point x="592" y="342"/>
      <point x="581" y="333"/>
      <point x="564" y="324" type="curve" smooth="yes"/>
      <point x="547" y="315"/>
      <point x="525" y="308"/>
      <point x="497" y="302" type="curve" smooth="yes"/>
      <point x="469" y="296"/>
      <point x="433" y="292"/>
      <point x="390" y="292" type="curve"/>
      <point x="394" y="316"/>
      <point x="400" y="338"/>
      <point x="408" y="357" type="curve" smooth="yes"/>
      <point x="416" y="376"/>
      <point x="427" y="393"/>
      <point x="439" y="407" type="curve" smooth="yes"/>
      <point x="451" y="421"/>
      <point x="466" y="432"/>
      <point x="482" y="439" type="curve" smooth="yes"/>
      <point x="498" y="446"/>
      <point x="517" y="450"/>
      <point x="537" y="450" type="curve" smooth="yes"/>
    </contour>
  </outline>
</glyph>
<glyph name="iacute" format="1">
  <advance width="285"/>
  <unicode hex="00ED"/>
  <note>
    iacute
  </note>
  <outline>
    <contour>
      <point x="180" y="64"/>
      <point x="134" y="73"/>
      <point x="134" y="73" type="curve"/>
      <point x="187" y="506" type="line"/>
      <point x="26" y="506" type="line"/>
      <point x="21" y="463" type="line" smooth="yes"/>
      <point x="20" y="454"/>
      <point x="25" y="447"/>
      <point x="34" y="445" type="curve" smooth="yes"/>
      <point x="43" y="443"/>
      <point x="89" y="434"/>
      <point x="89" y="434" type="curve"/>
      <point x="45" y="73" type="line"/>
      <point x="36" y="0" type="line"/>
      <point x="197" y="0" type="line"/>
      <point x="202" y="43" type="line" smooth="yes"/>
      <point x="203" y="52"/>
      <point x="198" y="60"/>
      <point x="189" y="62" type="curve" smooth="yes"/>
    </contour>
    <contour>
      <point x="318" y="724" type="line"/>
      <point x="231" y="724" type="line" smooth="yes"/>
      <point x="208" y="724"/>
      <point x="200" y="717"/>
      <point x="189" y="702" type="curve" smooth="yes"/>
      <point x="100" y="582" type="line"/>
      <point x="153" y="582" type="line" smooth="yes"/>
      <point x="169" y="582"/>
      <point x="176" y="586"/>
      <point x="186" y="595" type="curve"/>
    </contour>
  </outline>
</glyph>
<glyph name="icircumflex" format="1">
  <advance width="284"/>
  <unicode hex="00EE"/>
  <note>
    icircumflex
  </note>
  <outline>
    <contour>
      <point x="192" y="64"/>
      <point x="146" y="73"/>
      <point x="146" y="73" type="curve"/>
      <point x="199" y="506" type="line"/>
      <point x="38" y="506" type="line"/>
      <point x="32" y="463" type="line" smooth="yes"/>
      <point x="31" y="454"/>
      <point x="36" y="447"/>
      <point x="45" y="445" type="curve" smooth="yes"/>
      <point x="54" y="443"/>
      <point x="101" y="434"/>
      <point x="101" y="434" type="curve"/>
      <point x="57" y="73" type="line"/>
      <point x="48" y="0" type="line"/>
      <point x="209" y="0" type="line"/>
      <point x="214" y="43" type="line" smooth="yes"/>
      <point x="215" y="52"/>
      <point x="210" y="60"/>
      <point x="201" y="62" type="curve" smooth="yes"/>
    </contour>
    <contour>
      <point x="177" y="663" type="line"/>
      <point x="198" y="639"/>
      <point x="220" y="615"/>
      <point x="241" y="591" type="curve"/>
      <point x="247" y="586"/>
      <point x="253" y="585"/>
      <point x="260" y="585" type="curve" smooth="yes"/>
      <point x="319" y="585" type="line"/>
      <point x="224" y="716" type="line"/>
      <point x="141" y="716" type="line"/>
      <point x="14" y="585" type="line"/>
      <point x="75" y="585" type="line" smooth="yes"/>
      <point x="83" y="585"/>
      <point x="92" y="588"/>
      <point x="96" y="591" type="curve"/>
    </contour>
  </outline>
</glyph>
<glyph name="idieresis" format="1">
  <advance width="311"/>
  <unicode hex="00EF"/>
  <note>
    idieresis
  </note>
  <outline>
    <contour>
      <point x="211" y="64"/>
      <point x="164" y="73"/>
      <point x="164" y="73" type="curve"/>
      <point x="217" y="506" type="line"/>
      <point x="56" y="506" type="line"/>
      <point x="51" y="463" type="line" smooth="yes"/>
      <point x="50" y="454"/>
      <point x="55" y="447"/>
      <point x="64" y="445" type="curve" smooth="yes"/>
      <point x="73" y="443"/>
      <point x="120" y="434"/>
      <point x="120" y="434" type="curve"/>
      <point x="75" y="73" type="line"/>
      <point x="66" y="0" type="line"/>
      <point x="227" y="0" type="line"/>
      <point x="233" y="43" type="line" smooth="yes"/>
      <point x="234" y="52"/>
      <point x="229" y="60"/>
      <point x="220" y="62" type="curve" smooth="yes"/>
    </contour>
    <contour>
      <point x="335" y="673"/>
      <point x="332" y="680"/>
      <point x="327" y="685" type="curve" smooth="yes"/>
      <point x="322" y="690"/>
      <point x="317" y="694"/>
      <point x="311" y="697" type="curve" smooth="yes"/>
      <point x="305" y="700"/>
      <point x="297" y="702"/>
      <point x="289" y="702" type="curve" smooth="yes"/>
      <point x="281" y="702"/>
      <point x="274" y="700"/>
      <point x="267" y="697" type="curve" smooth="yes"/>
      <point x="260" y="694"/>
      <point x="254" y="690"/>
      <point x="248" y="685" type="curve" smooth="yes"/>
      <point x="242" y="680"/>
      <point x="238" y="673"/>
      <point x="234" y="666" type="curve" smooth="yes"/>
      <point x="230" y="659"/>
      <point x="227" y="652"/>
      <point x="226" y="644" type="curve" smooth="yes"/>
      <point x="225" y="636"/>
      <point x="226" y="630"/>
      <point x="228" y="623" type="curve" smooth="yes"/>
      <point x="230" y="616"/>
      <point x="234" y="610"/>
      <point x="238" y="605" type="curve" smooth="yes"/>
      <point x="242" y="600"/>
      <point x="248" y="596"/>
      <point x="254" y="593" type="curve" smooth="yes"/>
      <point x="260" y="590"/>
      <point x="268" y="589"/>
      <point x="276" y="589" type="curve" smooth="yes"/>
      <point x="284" y="589"/>
      <point x="291" y="590"/>
      <point x="298" y="593" type="curve" smooth="yes"/>
      <point x="305" y="596"/>
      <point x="311" y="600"/>
      <point x="317" y="605" type="curve" smooth="yes"/>
      <point x="323" y="610"/>
      <point x="328" y="616"/>
      <point x="332" y="623" type="curve" smooth="yes"/>
      <point x="336" y="630"/>
      <point x="338" y="636"/>
      <point x="339" y="644" type="curve" smooth="yes"/>
      <point x="340" y="652"/>
      <point x="339" y="659"/>
      <point x="337" y="666" type="curve" smooth="yes"/>
    </contour>
    <contour>
      <point x="104" y="589"/>
      <point x="111" y="590"/>
      <point x="118" y="593" type="curve" smooth="yes"/>
      <point x="125" y="596"/>
      <point x="132" y="600"/>
      <point x="138" y="605" type="curve" smooth="yes"/>
      <point x="144" y="610"/>
      <point x="148" y="616"/>
      <point x="152" y="623" type="curve" smooth="yes"/>
      <point x="156" y="630"/>
      <point x="158" y="636"/>
      <point x="159" y="644" type="curve" smooth="yes"/>
      <point x="160" y="652"/>
      <point x="160" y="659"/>
      <point x="158" y="666" type="curve" smooth="yes"/>
      <point x="156" y="673"/>
      <point x="152" y="680"/>
      <point x="147" y="685" type="curve" smooth="yes"/>
      <point x="142" y="690"/>
      <point x="137" y="694"/>
      <point x="131" y="697" type="curve" smooth="yes"/>
      <point x="125" y="700"/>
      <point x="117" y="702"/>
      <point x="109" y="702" type="curve" smooth="yes"/>
      <point x="102" y="702"/>
      <point x="95" y="700"/>
      <point x="88" y="697" type="curve" smooth="yes"/>
      <point x="81" y="694"/>
      <point x="75" y="690"/>
      <point x="69" y="685" type="curve" smooth="yes"/>
      <point x="63" y="680"/>
      <point x="58" y="673"/>
      <point x="54" y="666" type="curve" smooth="yes"/>
      <point x="50" y="659"/>
      <point x="48" y="652"/>
      <point x="47" y="644" type="curve" smooth="yes"/>
      <point x="46" y="636"/>
      <point x="47" y="630"/>
      <point x="49" y="623" type="curve" smooth="yes"/>
      <point x="51" y="616"/>
      <point x="54" y="610"/>
      <point x="59" y="605" type="curve" smooth="yes"/>
      <point x="64" y="600"/>
      <point x="69" y="596"/>
      <point x="75" y="593" type="curve" smooth="yes"/>
      <point x="81" y="590"/>
      <point x="89" y="589"/>
      <point x="96" y="589" type="curve" smooth="yes"/>
    </contour>
  </outline>
</glyph>
<glyph name="ugrave" format="1">
  <advance width="570"/>
  <unicode hex="00F9"/>
  <note>
    ugrave
  </note>
  <outline>
    <contour>
      <point x="194" y="63"/>
      <point x="169" y="73"/>
      <point x="154" y="94" type="curve" smooth="yes"/>
      <point x="139" y="115"/>
      <point x="133" y="146"/>
      <point x="138" y="184" type="curve" smooth="yes"/>
      <point x="178" y="506" type="line"/>
      <point x="17" y="506" type="line"/>
      <point x="12" y="464" type="line" smooth="yes"/>
      <point x="11" y="454"/>
      <point x="14" y="447"/>
      <point x="24" y="445" type="curve" smooth="yes"/>
      <point x="30" y="444"/>
      <point x="49" y="440"/>
      <point x="80" y="434" type="curve"/>
      <point x="49" y="184" type="line" smooth="yes"/>
      <point x="42" y="125"/>
      <point x="50" y="77"/>
      <point x="75" y="44" type="curve" smooth="yes"/>
      <point x="101" y="9"/>
      <point x="141" y="-8"/>
      <point x="195" y="-8" type="curve" smooth="yes"/>
      <point x="258" y="-8"/>
      <point x="318" y="19"/>
      <point x="373" y="73" type="curve"/>
      <point x="374" y="18" type="line"/>
      <point x="376" y="6"/>
      <point x="382" y="0"/>
      <point x="395" y="0" type="curve" smooth="yes"/>
      <point x="521" y="0" type="line"/>
      <point x="526" y="43" type="line" smooth="yes"/>
      <point x="527" y="53"/>
      <point x="523" y="60"/>
      <point x="513" y="62" type="curve" smooth="yes"/>
      <point x="507" y="63"/>
      <point x="489" y="67"/>
      <point x="457" y="73" type="curve"/>
      <point x="510" y="506" type="line"/>
      <point x="421" y="506" type="line"/>
      <point x="349" y="506" type="line"/>
      <point x="344" y="464" type="line" smooth="yes"/>
      <point x="343" y="454"/>
      <point x="347" y="447"/>
      <point x="357" y="445" type="curve" smooth="yes"/>
      <point x="388" y="439"/>
      <point x="407" y="435"/>
      <point x="413" y="434" type="curve"/>
      <point x="376" y="133" type="line"/>
      <point x="329" y="86"/>
      <point x="280" y="63"/>
      <point x="230" y="63" type="curve" smooth="yes"/>
    </contour>
    <contour>
      <point x="196" y="724" type="line"/>
      <point x="297" y="596" type="line" smooth="yes"/>
      <point x="301" y="591"/>
      <point x="306" y="587"/>
      <point x="310" y="585" type="curve" smooth="yes"/>
      <point x="314" y="583"/>
      <point x="319" y="582"/>
      <point x="326" y="582" type="curve" smooth="yes"/>
      <point x="377" y="582" type="line"/>
      <point x="318" y="702" type="line" smooth="yes"/>
      <point x="314" y="710"/>
      <point x="310" y="715"/>
      <point x="305" y="719" type="curve" smooth="yes"/>
      <point x="300" y="723"/>
      <point x="292" y="724"/>
      <point x="281" y="724" type="curve" smooth="yes"/>
    </contour>
  </outline>
</glyph>
<glyph name="Aogonek" format="1">
  <advance width="738"/>
  <unicode hex="0104"/>
  <note>
    Aogonek
  </note>
  <outline>
    <contour>
      <point x="692" y="-112" type="line"/>
      <point x="692" y="-110"/>
      <point x="691" y="-108"/>
      <point x="690" y="-107" type="curve" smooth="yes"/>
      <point x="689" y="-106"/>
      <point x="686" y="-105"/>
      <point x="684" y="-105" type="curve" smooth="yes"/>
      <point x="682" y="-105"/>
      <point x="680" y="-106"/>
      <point x="678" y="-107" type="curve" smooth="yes"/>
      <point x="676" y="-108"/>
      <point x="673" y="-110"/>
      <point x="669" y="-112" type="curve" smooth="yes"/>
      <point x="665" y="-114"/>
      <point x="661" y="-115"/>
      <point x="656" y="-116" type="curve" smooth="yes"/>
      <point x="651" y="-117"/>
      <point x="645" y="-117"/>
      <point x="637" y="-117" type="curve" smooth="yes"/>
      <point x="623" y="-117"/>
      <point x="612" y="-114"/>
      <point x="605" y="-107" type="curve" smooth="yes"/>
      <point x="598" y="-100"/>
      <point x="595" y="-90"/>
      <point x="597" y="-77" type="curve"/>
      <point x="598" y="-68"/>
      <point x="600" y="-60"/>
      <point x="605" y="-52" type="curve" smooth="yes"/>
      <point x="610" y="-44"/>
      <point x="616" y="-37"/>
      <point x="622" y="-31" type="curve"/>
      <point x="628" y="-24"/>
      <point x="635" y="-18"/>
      <point x="643" y="-13" type="curve" smooth="yes"/>
      <point x="651" y="-8"/>
      <point x="658" y="-4"/>
      <point x="665" y="0" type="curve"/>
      <point x="684" y="0" type="line"/>
      <point x="710" y="0" type="line"/>
      <point x="714" y="40" type="line"/>
      <point x="715" y="45"/>
      <point x="714" y="49"/>
      <point x="711" y="52" type="curve" smooth="yes"/>
      <point x="709" y="54"/>
      <point x="706" y="55"/>
      <point x="703" y="56" type="curve"/>
      <point x="703" y="56" type="line"/>
      <point x="665" y="68" type="line"/>
      <point x="485" y="717" type="line"/>
      <point x="387" y="717" type="line"/>
      <point x="48" y="68" type="line"/>
      <point x="7" y="56" type="line"/>
      <point x="7" y="56" type="line"/>
      <point x="4" y="55"/>
      <point x="0" y="54"/>
      <point x="-2" y="52" type="curve"/>
      <point x="-6" y="49"/>
      <point x="-8" y="45"/>
      <point x="-9" y="40" type="curve"/>
      <point x="-14" y="0" type="line"/>
      <point x="12" y="0" type="line"/>
      <point x="40" y="0" type="line"/>
      <point x="79" y="0" type="line"/>
      <point x="87" y="0" type="line"/>
      <point x="139" y="0" type="line"/>
      <point x="192" y="0" type="line"/>
      <point x="197" y="40" type="line"/>
      <point x="198" y="45"/>
      <point x="196" y="49"/>
      <point x="193" y="52" type="curve" smooth="yes"/>
      <point x="191" y="54"/>
      <point x="188" y="55"/>
      <point x="185" y="56" type="curve"/>
      <point x="185" y="56" type="line"/>
      <point x="146" y="68" type="line"/>
      <point x="146" y="68" type="line"/>
      <point x="184" y="143" type="line"/>
      <point x="220" y="212" type="line"/>
      <point x="529" y="212" type="line"/>
      <point x="537" y="180" type="line"/>
      <point x="567" y="68" type="line"/>
      <point x="567" y="68" type="line"/>
      <point x="524" y="56" type="line"/>
      <point x="524" y="56" type="line"/>
      <point x="521" y="55"/>
      <point x="519" y="54"/>
      <point x="516" y="52" type="curve"/>
      <point x="512" y="49"/>
      <point x="510" y="45"/>
      <point x="509" y="40" type="curve"/>
      <point x="504" y="0" type="line"/>
      <point x="557" y="0" type="line"/>
      <point x="608" y="0" type="line"/>
      <point x="586" y="-13"/>
      <point x="568" y="-27"/>
      <point x="553" y="-44" type="curve" smooth="yes"/>
      <point x="538" y="-61"/>
      <point x="529" y="-79"/>
      <point x="527" y="-98" type="curve" smooth="yes"/>
      <point x="524" y="-120"/>
      <point x="530" y="-138"/>
      <point x="545" y="-151" type="curve" smooth="yes"/>
      <point x="560" y="-164"/>
      <point x="583" y="-171"/>
      <point x="612" y="-171" type="curve" smooth="yes"/>
      <point x="629" y="-171"/>
      <point x="646" y="-169"/>
      <point x="662" y="-164" type="curve" smooth="yes"/>
      <point x="678" y="-159"/>
      <point x="691" y="-153"/>
      <point x="702" y="-145" type="curve"/>
    </contour>
    <contour>
      <point x="255" y="282" type="line"/>
      <point x="272" y="315" type="line"/>
      <point x="279" y="330" type="line"/>
      <point x="279" y="330" type="line"/>
      <point x="395" y="557" type="line"/>
      <point x="399" y="566"/>
      <point x="404" y="575"/>
      <point x="409" y="587" type="curve" smooth="yes"/>
      <point x="414" y="598"/>
      <point x="419" y="611"/>
      <point x="424" y="625" type="curve"/>
      <point x="428" y="598"/>
      <point x="433" y="576"/>
      <point x="438" y="558" type="curve" smooth="yes"/>
      <point x="504" y="305" type="line"/>
      <point x="510" y="282" type="line"/>
    </contour>
  </outline>
</glyph>
<glyph name="dotlessi" format="1">
  <advance width="229"/>
  <unicode hex="0131"/>
  <note>
    dotlessi
  </note>
  <outline>
    <contour>
      <point x="184" y="64"/>
      <point x="137" y="73"/>
      <point x="137" y="73" type="curve"/>
      <point x="191" y="507" type="line"/>
      <point x="29" y="507" type="line"/>
      <point x="24" y="463" type="line" smooth="yes"/>
      <point x="23" y="454"/>
      <point x="28" y="447"/>
      <point x="37" y="445" type="curve" smooth="yes"/>
      <point x="46" y="443"/>
      <point x="93" y="434"/>
      <point x="93" y="434" type="curve"/>
      <point x="48" y="73" type="line"/>
      <point x="39" y="0" type="line"/>
      <point x="201" y="0" type="line"/>
      <point x="206" y="43" type="line" smooth="yes"/>
      <point x="207" y="52"/>
      <point x="202" y="60"/>
      <point x="193" y="62" type="curve" smooth="yes"/>
    </contour>
  </outline>
</glyph>
<glyph name="Lslash" format="1">
  <advance width="560"/>
  <unicode hex="0141"/>
  <note>
    Lslash
  </note>
  <outline>
    <contour>
      <point x="527" y="156" type="line"/>
      <point x="479" y="156" type="line" smooth="yes"/>
      <point x="467" y="156"/>
      <point x="459" y="150"/>
      <point x="456" y="139" type="curve"/>
      <point x="455" y="136"/>
      <point x="451" y="117"/>
      <point x="444" y="82" type="curve"/>
      <point x="185" y="82" type="line"/>
      <point x="214" y="320" type="line"/>
      <point x="404" y="414" type="line" smooth="yes"/>
      <point x="414" y="419"/>
      <point x="420" y="426"/>
      <point x="421" y="436" type="curve" smooth="yes"/>
      <point x="428" y="500" type="line"/>
      <point x="224" y="402" type="line"/>
      <point x="254" y="644" type="line"/>
      <point x="258" y="645"/>
      <point x="278" y="648"/>
      <point x="312" y="655" type="curve" smooth="yes"/>
      <point x="322" y="657"/>
      <point x="329" y="664"/>
      <point x="330" y="674" type="curve" smooth="yes"/>
      <point x="335" y="716" type="line"/>
      <point x="263" y="716" type="line"/>
      <point x="166" y="716" type="line"/>
      <point x="94" y="716" type="line"/>
      <point x="89" y="674" type="line" smooth="yes"/>
      <point x="88" y="664"/>
      <point x="91" y="657"/>
      <point x="101" y="655" type="curve" smooth="yes"/>
      <point x="107" y="654"/>
      <point x="126" y="650"/>
      <point x="157" y="644" type="curve"/>
      <point x="122" y="358" type="line"/>
      <point x="36" y="316" type="line"/>
      <point x="27" y="312"/>
      <point x="22" y="305"/>
      <point x="21" y="296" type="curve" smooth="yes"/>
      <point x="13" y="230" type="line"/>
      <point x="112" y="277" type="line"/>
      <point x="87" y="73" type="line"/>
      <point x="29" y="62" type="line" smooth="yes"/>
      <point x="19" y="60"/>
      <point x="12" y="53"/>
      <point x="11" y="43" type="curve" smooth="yes"/>
      <point x="6" y="0" type="line"/>
      <point x="508" y="0" type="line"/>
    </contour>
  </outline>
</glyph>
<glyph name="lslash" format="1">
  <advance width="305"/>
  <unicode hex="0142"/>
  <note>
    lslash
  </note>
  <outline>
    <contour>
      <point x="219" y="450" type="line"/>
      <point x="254" y="736" type="line"/>
      <point x="165" y="736" type="line"/>
      <point x="93" y="736" type="line"/>
      <point x="88" y="693" type="line" smooth="yes"/>
      <point x="87" y="683"/>
      <point x="91" y="676"/>
      <point x="101" y="674" type="curve" smooth="yes"/>
      <point x="128" y="669"/>
      <point x="146" y="666"/>
      <point x="156" y="664" type="curve"/>
      <point x="126" y="417" type="line"/>
      <point x="46" y="383" type="line" smooth="yes"/>
      <point x="37" y="379"/>
      <point x="32" y="373"/>
      <point x="31" y="363" type="curve" smooth="yes"/>
      <point x="24" y="310" type="line"/>
      <point x="117" y="348" type="line"/>
      <point x="83" y="73" type="line"/>
      <point x="83" y="73"/>
      <point x="75" y="71"/>
      <point x="58" y="68" type="curve" smooth="yes"/>
      <point x="41" y="65"/>
      <point x="30" y="63"/>
      <point x="26" y="62" type="curve"/>
      <point x="15" y="60"/>
      <point x="9" y="53"/>
      <point x="8" y="43" type="curve"/>
      <point x="2" y="0" type="line"/>
      <point x="236" y="0" type="line"/>
      <point x="241" y="43" type="line" smooth="yes"/>
      <point x="242" y="53"/>
      <point x="238" y="60"/>
      <point x="228" y="62" type="curve" smooth="yes"/>
      <point x="222" y="63"/>
      <point x="204" y="67"/>
      <point x="172" y="73" type="curve"/>
      <point x="210" y="382" type="line"/>
      <point x="290" y="415" type="line" smooth="yes"/>
      <point x="299" y="419"/>
      <point x="305" y="426"/>
      <point x="306" y="437" type="curve" smooth="yes"/>
      <point x="312" y="488" type="line"/>
    </contour>
  </outline>
</glyph>
<glyph name="scaron" format="1">
  <advance width="419"/>
  <unicode hex="0161"/>
  <note>
    scaron
  </note>
  <outline>
    <contour>
      <point x="196" y="514"/>
      <point x="147" y="500"/>
      <point x="110" y="470" type="curve" smooth="yes"/>
      <point x="75" y="443"/>
      <point x="56" y="409"/>
      <point x="51" y="368" type="curve" smooth="yes"/>
      <point x="46" y="329"/>
      <point x="55" y="297"/>
      <point x="80" y="274" type="curve" smooth="yes"/>
      <point x="91" y="264"/>
      <point x="106" y="255"/>
      <point x="123" y="247" type="curve" smooth="yes"/>
      <point x="140" y="239"/>
      <point x="170" y="229"/>
      <point x="212" y="215" type="curve" smooth="yes"/>
      <point x="227" y="210"/>
      <point x="240" y="204"/>
      <point x="252" y="198" type="curve" smooth="yes"/>
      <point x="264" y="192"/>
      <point x="273" y="183"/>
      <point x="279" y="174" type="curve" smooth="yes"/>
      <point x="285" y="165"/>
      <point x="287" y="151"/>
      <point x="285" y="132" type="curve" smooth="yes"/>
      <point x="283" y="113"/>
      <point x="272" y="96"/>
      <point x="253" y="81" type="curve" smooth="yes"/>
      <point x="232" y="64"/>
      <point x="205" y="56"/>
      <point x="172" y="56" type="curve" smooth="yes"/>
      <point x="132" y="56"/>
      <point x="99" y="63"/>
      <point x="72" y="76" type="curve"/>
      <point x="74" y="116"/>
      <point x="74" y="137"/>
      <point x="74" y="140" type="curve"/>
      <point x="73" y="148"/>
      <point x="68" y="152"/>
      <point x="60" y="152" type="curve" smooth="yes"/>
      <point x="25" y="152" type="line"/>
      <point x="8" y="20" type="line"/>
      <point x="60" y="1"/>
      <point x="114" y="-7"/>
      <point x="169" y="-7" type="curve" smooth="yes"/>
      <point x="224" y="-7"/>
      <point x="270" y="8"/>
      <point x="308" y="39" type="curve" smooth="yes"/>
      <point x="345" y="68"/>
      <point x="366" y="107"/>
      <point x="372" y="155" type="curve" smooth="yes"/>
      <point x="377" y="192"/>
      <point x="367" y="222"/>
      <point x="342" y="244" type="curve" smooth="yes"/>
      <point x="331" y="254"/>
      <point x="318" y="262"/>
      <point x="303" y="269" type="curve" smooth="yes"/>
      <point x="288" y="276"/>
      <point x="273" y="281"/>
      <point x="257" y="287" type="curve"/>
      <point x="241" y="292"/>
      <point x="221" y="299"/>
      <point x="197" y="307" type="curve" smooth="yes"/>
      <point x="173" y="315"/>
      <point x="155" y="326"/>
      <point x="144" y="342" type="curve"/>
      <point x="137" y="351"/>
      <point x="135" y="364"/>
      <point x="137" y="381" type="curve" smooth="yes"/>
      <point x="139" y="398"/>
      <point x="150" y="413"/>
      <point x="169" y="427" type="curve" smooth="yes"/>
      <point x="188" y="441"/>
      <point x="213" y="448"/>
      <point x="241" y="448" type="curve" smooth="yes"/>
      <point x="242" y="448" type="line" smooth="yes"/>
      <point x="264" y="448"/>
      <point x="289" y="445"/>
      <point x="318" y="438" type="curve"/>
      <point x="316" y="396"/>
      <point x="316" y="373"/>
      <point x="316" y="372" type="curve"/>
      <point x="317" y="363"/>
      <point x="322" y="358"/>
      <point x="332" y="358" type="curve" smooth="yes"/>
      <point x="371" y="358" type="line"/>
      <point x="383" y="453" type="line"/>
      <point x="387" y="488" type="line"/>
      <point x="336" y="506"/>
      <point x="293" y="514"/>
      <point x="258" y="514" type="curve" smooth="yes"/>
    </contour>
    <contour>
      <point x="125" y="717" type="line"/>
      <point x="220" y="585" type="line"/>
      <point x="303" y="585" type="line"/>
      <point x="431" y="717" type="line"/>
      <point x="371" y="717" type="line" smooth="yes"/>
      <point x="367" y="717"/>
      <point x="363" y="716"/>
      <point x="359" y="714" type="curve" smooth="yes"/>
      <point x="355" y="712"/>
      <point x="352" y="711"/>
      <point x="350" y="709" type="curve"/>
      <point x="278" y="647" type="line"/>
      <point x="276" y="646"/>
      <point x="275" y="644"/>
      <point x="274" y="642" type="curve" smooth="yes"/>
      <point x="273" y="640"/>
      <point x="271" y="639"/>
      <point x="269" y="637" type="curve"/>
      <point x="267" y="640"/>
      <point x="264" y="644"/>
      <point x="261" y="647" type="curve"/>
      <point x="205" y="709" type="line"/>
      <point x="203" y="711"/>
      <point x="200" y="712"/>
      <point x="197" y="714" type="curve" smooth="yes"/>
      <point x="194" y="716"/>
      <point x="190" y="717"/>
      <point x="186" y="717" type="curve" smooth="yes"/>
    </contour>
  </outline>
</glyph>
<glyph name="zcaron" format="1">
  <advance width="456"/>
  <unicode hex="017E"/>
  <note>
    zcaron
  </note>
  <outline>
    <contour>
      <point x="124" y="506" type="line"/>
      <point x="74" y="506" type="line"/>
      <point x="56" y="363" type="line"/>
      <point x="92" y="363" type="line" smooth="yes"/>
      <point x="100" y="363"/>
      <point x="105" y="368"/>
      <point x="108" y="376" type="curve"/>
      <point x="109" y="380"/>
      <point x="113" y="399"/>
      <point x="121" y="436" type="curve"/>
      <point x="338" y="436" type="line"/>
      <point x="17" y="69" type="line" smooth="yes"/>
      <point x="7" y="58"/>
      <point x="2" y="47"/>
      <point x="1" y="37" type="curve" smooth="yes"/>
      <point x="-4" y="0" type="line"/>
      <point x="383" y="0" type="line"/>
      <point x="401" y="148" type="line"/>
      <point x="366" y="148" type="line" smooth="yes"/>
      <point x="357" y="148"/>
      <point x="352" y="144"/>
      <point x="349" y="136" type="curve"/>
      <point x="348" y="132"/>
      <point x="343" y="111"/>
      <point x="335" y="70" type="curve"/>
      <point x="110" y="70" type="line"/>
      <point x="428" y="434" type="line" smooth="yes"/>
      <point x="438" y="445"/>
      <point x="444" y="456"/>
      <point x="445" y="468" type="curve"/>
      <point x="450" y="506" type="line"/>
    </contour>
    <contour>
      <point x="139" y="716" type="line"/>
      <point x="234" y="584" type="line"/>
      <point x="317" y="584" type="line"/>
      <point x="445" y="716" type="line"/>
      <point x="385" y="716" type="line" smooth="yes"/>
      <point x="381" y="716"/>
      <point x="378" y="716"/>
      <point x="374" y="714" type="curve" smooth="yes"/>
      <point x="370" y="712"/>
      <point x="367" y="711"/>
      <point x="365" y="709" type="curve"/>
      <point x="293" y="646" type="line"/>
      <point x="291" y="645"/>
      <point x="289" y="644"/>
      <point x="288" y="642" type="curve" smooth="yes"/>
      <point x="287" y="640"/>
      <point x="285" y="639"/>
      <point x="283" y="637" type="curve"/>
      <point x="281" y="640"/>
      <point x="279" y="644"/>
      <point x="276" y="647" type="curve"/>
      <point x="220" y="709" type="line"/>
      <point x="218" y="711"/>
      <point x="215" y="712"/>
      <point x="212" y="714" type="curve" smooth="yes"/>
      <point x="209" y="716"/>
      <point x="204" y="716"/>
      <point x="200" y="716" type="curve" smooth="yes"/>
    </contour>
  </outline>
</glyph>
<glyph name="florin" format="1">
  <advance width="499"/>
  <unicode hex="0192"/>
  <note>
    florin
  </note>
  <outline>
    <contour>
      <point x="315" y="384" type="line"/>
      <point x="482" y="384" type="line"/>
      <point x="490" y="448" type="line"/>
      <point x="329" y="448" type="line"/>
      <point x="350" y="530" type="line" smooth="yes"/>
      <point x="356" y="553"/>
      <point x="363" y="571"/>
      <point x="372" y="587" type="curve" smooth="yes"/>
      <point x="381" y="603"/>
      <point x="392" y="614"/>
      <point x="404" y="624" type="curve" smooth="yes"/>
      <point x="416" y="634"/>
      <point x="429" y="642"/>
      <point x="443" y="646" type="curve" smooth="yes"/>
      <point x="457" y="650"/>
      <point x="472" y="652"/>
      <point x="487" y="652" type="curve" smooth="yes"/>
      <point x="497" y="652"/>
      <point x="505" y="654"/>
      <point x="510" y="658" type="curve" smooth="yes"/>
      <point x="515" y="662"/>
      <point x="519" y="668"/>
      <point x="520" y="678" type="curve" smooth="yes"/>
      <point x="526" y="727" type="line"/>
      <point x="453" y="727"/>
      <point x="395" y="711"/>
      <point x="352" y="679" type="curve" smooth="yes"/>
      <point x="309" y="647"/>
      <point x="279" y="598"/>
      <point x="263" y="532" type="curve" smooth="yes"/>
      <point x="243" y="448" type="line"/>
      <point x="136" y="448" type="line"/>
      <point x="132" y="412" type="line"/>
      <point x="131" y="406"/>
      <point x="132" y="400"/>
      <point x="135" y="396" type="curve" smooth="yes"/>
      <point x="138" y="392"/>
      <point x="143" y="390"/>
      <point x="150" y="389" type="curve"/>
      <point x="226" y="382" type="line"/>
      <point x="138" y="22" type="line" smooth="yes"/>
      <point x="133" y="-1"/>
      <point x="125" y="-21"/>
      <point x="116" y="-36" type="curve" smooth="yes"/>
      <point x="107" y="-51"/>
      <point x="96" y="-63"/>
      <point x="84" y="-73" type="curve" smooth="yes"/>
      <point x="72" y="-83"/>
      <point x="60" y="-90"/>
      <point x="46" y="-94" type="curve" smooth="yes"/>
      <point x="32" y="-98"/>
      <point x="17" y="-100"/>
      <point x="2" y="-100" type="curve" smooth="yes"/>
      <point x="-18" y="-100"/>
      <point x="-29" y="-110"/>
      <point x="-31" y="-129" type="curve" smooth="yes"/>
      <point x="-37" y="-176" type="line"/>
      <point x="34" y="-176"/>
      <point x="91" y="-161"/>
      <point x="135" y="-130" type="curve" smooth="yes"/>
      <point x="179" y="-99"/>
      <point x="209" y="-49"/>
      <point x="226" y="19" type="curve" smooth="yes"/>
    </contour>
  </outline>
</glyph>
<glyph name="gravecomb" format="1">
  <advance width="265"/>
  <unicode hex="0300"/>
  <outline>
    <component base="grave"/>
    <contour>
      <point x="191" y="724" type="move" name="top"/>
    </contour>
    <contour>
      <point x="164" y="506" type="move" name="_top"/>
    </contour>
  </outline>
</glyph>
<glyph name="acutecomb" format="1">
  <advance width="287"/>
  <unicode hex="0301"/>
  <outline>
    <component base="acute"/>
    <contour>
      <point x="201" y="724" type="move" name="top"/>
    </contour>
    <contour>
      <point x="174" y="506" type="move" name="_top"/>
    </contour>
  </outline>
</glyph>
<glyph name="macroncomb" format="1">
  <advance width="400"/>
  <unicode hex="0304"/>
  <outline>
    <component base="macron"/>
    <contour>
      <point x="250" y="674" type="move" name="top"/>
    </contour>
    <contour>
      <point x="230" y="506" type="move" name="_top"/>
    </contour>
  </outline>
</glyph>
<glyph name="brevecomb" format="1">
  <advance width="372"/>
  <unicode hex="0306"/>
  <outline>
    <component base="breve"/>
    <contour>
      <point x="249" y="716" type="move" name="top"/>
    </contour>
    <contour>
      <point x="224" y="506" type="move" name="_top"/>
    </contour>
  </outline>
</glyph>
<glyph name="dotaccentcomb" format="1">
  <advance width="230"/>
  <unicode hex="0307"/>
  <outline>
    <component base="dotaccent"/>
    <contour>
      <point x="173" y="733" type="move" name="top"/>
    </contour>
    <contour>
      <point x="145" y="506" type="move" name="_top"/>
    </contour>
  </outline>
</glyph>
<glyph name="dieresiscomb" format="1">
  <advance width="389"/>
  <unicode hex="0308"/>
  <outline>
    <component base="dieresis" xOffset="35"/>
    <contour>
      <point x="283" y="701" type="move" name="top"/>
    </contour>
    <contour>
      <point x="259" y="506" type="move" name="_top"/>
    </contour>
  </outline>
</glyph>
<glyph name="ringcomb" format="1">
  <advance width="297"/>
  <unicode hex="030A"/>
  <outline>
    <component base="ring"/>
    <contour>
      <point x="209" y="751" type="move" name="top"/>
    </contour>
    <contour>
      <point x="179" y="506" type="move" name="_top"/>
    </contour>
  </outline>
</glyph>
<glyph name="hungarumlautcomb" format="1">
  <advance width="411"/>
  <unicode hex="030B"/>
  <outline>
    <component base="hungarumlaut"/>
    <contour>
      <point x="263" y="724" type="move" name="top"/>
    </contour>
    <contour>
      <point x="236" y="506" type="move" name="_top"/>
    </contour>
  </outline>
</glyph>
<glyph name="caroncomb" format="1">
  <advance width="384"/>
  <unicode hex="030C"/>
  <outline>
    <component base="caron"/>
    <contour>
      <point x="256" y="716" type="move" name="top"/>
    </contour>
    <contour>
      <point x="231" y="506" type="move" name="_top"/>
    </contour>
  </outline>
</glyph>
<glyph name="ogonekcomb" format="1">
  <advance width="269"/>
  <unicode hex="0328"/>
  <outline>
    <component base="ogonek" xOffset="-31"/>
    <contour>
      <point x="181" y="10" type="move" name="_ogonek"/>
    </contour>
  </outline>
</glyph>
<glyph name="strokeshortcomb" format="1">
  <advance width="340"/>
  <unicode hex="0335"/>
  <outline>
    <contour>
      <point x="25" y="337" type="line"/>
      <point x="335" y="337" type="line"/>
      <point x="343" y="400" type="line"/>
      <point x="33" y="400" type="line"/>
    </contour>
    <contour>
      <point x="184" y="369" type="move" name="_center"/>
    </contour>
  </outline>
</glyph>
<glyph name="emdash" format="1">
  <advance width="776"/>
  <unicode hex="2014"/>
  <note>
    emdash
  </note>
  <outline>
    <contour>
      <point x="60" y="328" type="line"/>
      <point x="52" y="262" type="line"/>
      <point x="718" y="262" type="line"/>
      <point x="725" y="328" type="line"/>
    </contour>
  </outline>
</glyph>
